<svg xmlns="http://www.w3.org/2000/svg" width="1400" height="410" viewBox="0 0 1400 410" fill="none">
  <path fill-rule="evenodd" clip-rule="evenodd" d="M277.129 34.9221V69.8091L272.308 70.1632C260.675 71.0171 249.197 76.0856 240.8 84.0774L239.177 85.622V94.5126V103.403H233.684H228.191V116.387V129.37H220.701H213.21V218.712V308.053L211.674 309.346C210.829 310.057 209.93 310.639 209.676 310.639C209.422 310.639 209.215 311.053 209.215 311.56C209.215 312.067 208.766 312.889 208.216 313.385C207.667 313.882 207.218 314.563 207.218 314.898C207.218 315.414 205.148 316.132 203.66 316.132C203.42 316.132 203.223 310.289 203.223 303.148V290.165H190.239H177.256V276.433V262.7H174.759H172.262V259.454C172.262 256.541 172.16 256.208 171.264 256.208C170.398 256.208 170.265 255.875 170.265 253.712V251.215H168.517C167.102 251.215 166.769 251.024 166.769 250.216C166.769 249.55 166.436 249.217 165.771 249.217C164.893 249.217 164.772 248.884 164.772 246.471V243.724H161.027H157.281V233.487V223.25H156.033H154.785V233.487V243.724H151.289H147.794V246.471C147.794 249.067 147.726 249.217 146.545 249.217C145.63 249.217 145.297 249.483 145.297 250.216C145.297 251.024 144.964 251.215 143.549 251.215H141.801V253.712C141.801 255.875 141.668 256.208 140.803 256.208C139.906 256.208 139.804 256.541 139.804 259.454V262.7H137.307H134.81V292.412V322.124H126.571H118.331V274.185V226.247H112.339H106.346V215.011V203.775H102.102H97.8573V194.537V185.299H96.3592H94.8611V178.807V172.315H92.614H90.3669V167.571V162.827H88.8688H87.3707V158.084V153.34H85.8726H84.3745V145.35V137.36H82.6267H80.879V145.35V153.34H79.3809H77.8828V158.084V162.827H76.3847H74.8866V167.571V172.315H72.6395H70.3923V178.807V185.299H68.8942H67.3962V194.537V203.775H63.1516H58.907V215.011V226.247H52.9146H46.9223V271.689C46.9223 311.748 46.8334 317.131 46.1732 317.131C45.5156 317.131 45.4242 313.469 45.4242 287.169V257.207L27.3223 257.214L9.22038 257.221L4.85095 264.856L0.481524 272.492V288.819V305.146H-2.01529H-4.5121V324.621C-4.5121 340.812 -4.62796 344.096 -5.19873 344.096C-6.04015 344.096 -6.50956 346.264 -6.50956 350.151V353.085H-10.2548H-14V381.798V410.511H194.859C309.731 410.511 631.033 410.661 908.862 410.844C1397.7 411.166 1414.02 411.148 1414.36 410.265C1414.55 409.763 1414.55 374.446 1414.36 331.782L1414.01 254.211H1411.6H1409.18V249.966V245.722H1407.44H1405.69V240.978V236.234H1401.44H1397.2V227.495V218.756H1395.95H1394.7V227.495V236.234H1390.21H1385.71V240.978V245.722H1383.97H1382.22V249.966V254.211H1379.97H1377.72V285.421V316.631H1376.5C1375.35 316.631 1375.26 316.82 1375.1 319.752C1375 321.469 1374.88 317.649 1374.82 311.263L1374.73 299.653H1363.74H1352.76V310.889V322.124H1351.26H1349.76V318.129V314.134H1342.27H1334.78V229.992V145.849H1330.28H1325.79V137.859V129.87H1323.79H1321.8V123.627V117.385H1315.3H1308.81V111.143V104.901H1303.32H1297.83V78.1855V51.4695H1295.58H1293.33V78.1855V104.901H1287.59H1281.85V111.143V117.385H1275.36H1268.86V123.627V129.87H1267.12H1265.37V137.859V145.849H1260.62H1255.88V226.247V306.644H1254.14H1252.39L1252.26 329.74L1252.12 352.835L1252 324.746L1251.89 296.657H1249.14H1246.39V292.162V287.668H1238.4H1230.41V292.162V296.657H1227.42H1224.42V305.454C1224.42 314.005 1224.39 314.244 1223.42 313.99C1222.53 313.758 1222.42 313.975 1222.42 315.929C1222.42 317.139 1222.23 318.129 1222 318.129C1221.77 318.129 1220.27 317.68 1218.68 317.131C1217.08 316.581 1215.7 316.132 1215.6 316.132C1215.51 316.132 1215.43 319.727 1215.43 324.122V332.111H1212.44H1209.44V339.602V347.092H1205.69H1201.95V299.154V251.215H1196.96C1192.29 251.215 1191.96 251.148 1191.96 250.216C1191.96 249.661 1192.29 249.217 1192.71 249.217C1193.32 249.217 1193.46 248.413 1193.46 244.973V240.728H1191.46H1189.46V238.231V235.734H1185.72H1181.97V224.249V212.764H1180.23H1178.48V224.249V235.734H1174.73H1170.99V238.231V240.728H1168.74H1166.49V244.77C1166.49 248.391 1166.6 248.839 1167.49 249.072C1168.05 249.217 1168.49 249.754 1168.49 250.274C1168.49 251.133 1168.06 251.215 1163.5 251.215H1158.5V281.926C1158.5 308.891 1158.41 312.636 1157.76 312.636C1157.17 312.636 1157.01 313.302 1157.01 315.633C1157.01 317.297 1157.23 318.629 1157.51 318.629C1157.78 318.629 1158 318.966 1158 319.378C1158 319.972 1157.28 320.127 1154.51 320.127H1151.01V335.607C1151.01 348.753 1150.91 351.087 1150.29 351.087C1149.9 351.087 1149.44 350.863 1149.27 350.588C1149.08 350.294 1146.1 350.089 1142 350.089C1137.69 350.089 1135.03 350.279 1135.03 350.588C1135.03 350.863 1134.36 351.087 1133.54 351.087H1132.04V326.369V301.65H1128.56H1125.08L1124.94 296.351L1124.8 291.051L1121.05 289.7L1117.31 288.348L1117.16 286.062C1117.04 284.353 1116.78 283.717 1116.1 283.54C1115.23 283.312 1115.21 279.195 1115.45 172.629L1115.7 61.9562H1112.89H1110.07V89.884V117.811L1100.95 124.429C1065.5 150.174 1045.27 171.738 1028.64 201.528C1008.55 237.507 998.3 282.469 998.22 334.983C998.21 340.97 998.09 342.099 997.46 342.099C996.828 342.099 996.711 340.961 996.711 334.858V327.617H981.23H965.75V335.857C965.75 343.941 965.73 344.096 964.682 344.096H963.614L963.934 292.537C964.11 264.179 964.396 223.552 964.57 202.254L964.886 163.529L942.597 139.867L920.308 116.204V91.827V67.4492H917.811H915.314L915.314 91.044C915.313 104.021 915.165 125.594 914.983 138.983L914.652 163.327H918.978H923.304V179.057V194.787H918.655H914.006L913.402 248.593C913.07 278.187 912.654 310.77 912.479 321.001L912.159 339.602H907.744H903.33V337.105V334.608H901.332C899.446 334.608 899.335 334.525 899.335 333.11C899.335 331.615 899.33 331.612 896.385 331.612H893.436L893.157 326.993C892.901 322.756 891.814 253.541 891.835 242.85L891.844 238.231H887.35H882.856V226.247V214.262H886.932H891.008L890.677 190.96C890.495 178.143 890.346 161.289 890.346 153.507V139.357H888.099H885.852V158.046V176.735L863.341 195.373L840.83 214.012L841.118 237.482C841.276 250.391 841.541 277.525 841.705 297.78L842.005 334.608L838.586 334.601C832.454 334.589 832.919 335.372 832.919 325.062V316.132H831.671H830.423V290.165V264.198H828.176H825.928V259.704C825.928 255.543 825.854 255.21 824.93 255.21C824.033 255.21 823.931 254.877 823.931 251.964V248.718H820.935H817.939V245.222V241.727H815.442H812.945V227.245V212.764H811.697H810.448V227.245V241.727H807.702H804.955V245.222V248.718H801.959H798.963V251.964C798.963 254.877 798.86 255.21 797.964 255.21C797.039 255.21 796.965 255.543 796.965 259.704V264.198H794.968H792.97V303.398C792.97 337.91 792.881 342.598 792.221 342.598C791.606 342.598 791.472 343.486 791.472 347.592C791.472 352.252 791.406 352.585 790.474 352.585C789.535 352.585 789.475 352.252 789.475 347.092V341.599H785.979H782.484V331.113V320.626H780.736H778.988V311.508V302.39L776.233 298.275L773.478 294.16H761.752H750.025V319.128V344.096H748.277H746.53V299.403V254.71H743.783H741.037V250.715V246.72H739.039H737.042V242.226V237.732H732.048H727.055V229.492V221.253H725.806H724.558V229.492V237.732H719.564H714.57V242.226V246.72H712.573H710.576V250.715V254.71H707.829H705.083L704.966 282.3C704.902 297.475 704.786 303.991 704.709 296.782L704.567 283.673H692.34H680.114V296.407V309.141H676.619H673.123V310.889C673.123 312.591 673.072 312.636 671.151 312.636H669.178L668.998 315.508L668.818 318.379L668.723 315.508L668.629 312.636L665.258 312.633L661.888 312.63L661.811 299.112C661.673 274.841 659.599 255.961 655.147 238.448C651.145 222.708 645.44 210.845 639.676 206.28L637.666 204.688L636.109 205.997C631.879 209.556 627.024 217.754 623.889 226.63L622.438 230.738L620.516 230.739C618.99 230.74 618.237 231.097 616.868 232.466L615.143 234.191L613.721 232.6L612.299 231.009L613.856 230.501C614.712 230.22 615.944 229.205 616.594 228.244C619.626 223.759 614.641 218.481 609.56 220.796C608.182 221.424 606.708 223.692 606.708 225.184C606.708 226.132 606.471 226.065 603.78 224.358L600.853 222.501L602.348 221.706C605.637 219.955 606.177 216.128 603.512 213.463C601.463 211.413 598.657 211.134 596.575 212.772C595.089 213.94 594.006 216.784 594.479 218.273C594.798 219.277 594.759 219.284 592.956 218.53C591.938 218.105 591.004 217.757 590.879 217.757C590.754 217.757 591.314 217.2 592.124 216.519C596.246 213.05 592.93 206.465 587.569 207.472C584.898 207.972 583.105 210.351 583.323 213.103C583.504 215.377 583.242 215.583 580.947 214.967C579.905 214.687 579.905 214.685 580.867 212.743C581.693 211.072 581.744 210.546 581.233 208.996C580.528 206.858 578.23 205.278 575.823 205.275C574.573 205.274 573.704 205.719 572.389 207.034C570.747 208.675 570.645 208.961 570.868 211.278L571.107 213.762H569.307H567.508V211.474C567.508 209.521 567.269 208.973 565.877 207.729C564.728 206.702 563.726 206.272 562.482 206.272C557.977 206.272 555.635 210.043 557.48 214.325C557.756 214.965 557.443 215.211 556.017 215.478C555.02 215.666 553.883 215.942 553.49 216.092C552.947 216.301 552.777 215.903 552.777 214.426C552.777 209.525 547.091 207.1 543.656 210.536C541.423 212.768 541.575 217.072 543.931 218.333C544.922 218.863 544.893 218.927 543.254 219.799C541.002 220.999 540.792 220.976 540.792 219.529C540.792 216.453 538.46 214.262 535.185 214.262C533.158 214.262 531.558 215.318 530.508 217.349C529.139 219.998 530.331 222.935 533.447 224.586C534.239 225.006 534.126 225.213 532.448 226.411C530.762 227.614 530.536 227.665 530.379 226.879C529.87 224.332 526.184 222.385 523.529 223.262C518.822 224.815 518.572 231.529 523.156 233.272L524.365 233.732L522.753 235.737L521.142 237.742L519.723 236.291C517.967 234.495 516.231 234.025 514.034 234.75C510.225 236.007 509.041 240.514 511.797 243.269C512.603 244.075 513.935 244.87 514.758 245.034L516.255 245.333L515.45 247.021C514.714 248.565 514.572 248.643 513.798 247.943C512.654 246.907 509.886 246.523 508.209 247.167C506.643 247.769 504.843 250.411 504.84 252.114C504.836 254.896 507.24 257.207 510.138 257.207C511.103 257.207 511.336 257.411 511.138 258.081C510.995 258.561 510.728 259.583 510.544 260.351C510.22 261.709 510.184 261.723 509.22 260.85C508.577 260.269 507.444 259.954 505.993 259.954C504.099 259.954 503.535 260.203 502.3 261.584C499.587 264.621 500.74 268.921 504.611 270.198C505.859 270.61 506.794 270.628 507.849 270.26L509.332 269.743V272.481C509.332 275.033 509.267 275.184 508.367 274.702C507.835 274.418 506.499 274.185 505.398 274.185C502.559 274.185 500.821 275.791 500.491 278.719C500.274 280.641 500.433 281.206 501.569 282.556C503.269 284.576 505.78 285.122 508.155 283.989C509.979 283.12 509.963 283.108 510.526 285.707C510.784 286.895 510.693 286.976 509.313 286.773C504.369 286.048 501.273 292.17 504.8 295.696C506.637 297.534 509.957 297.737 511.992 296.136L513.289 295.116L514.557 297.618C516.081 300.627 516.081 300.625 514.822 300.296C514.271 300.152 513.139 300.316 512.308 300.66C507.449 302.673 507.738 309.173 512.754 310.676C515.27 311.43 518.091 310.301 518.981 308.185L519.608 306.693L520.962 308.39C521.707 309.323 522.316 310.207 522.316 310.356C522.316 310.504 521.585 310.931 520.693 311.304C518.521 312.212 517.785 313.199 517.457 315.645C517.241 317.253 517.416 318.01 518.266 319.161C518.862 319.966 519.118 320.626 518.835 320.626C518.502 320.626 518.321 323.781 518.321 329.615V338.603H515.075H511.829V340.101C511.829 341.1 511.579 341.599 511.08 341.599C510.438 341.599 510.331 340.101 510.331 331.113V320.626L501.717 320.631C496.98 320.634 490.912 320.365 488.234 320.033L483.365 319.43V300.871V282.312L480.494 281.039C476.839 279.418 474.122 278.686 471.755 278.683L469.883 278.68V248.324V217.969L467.199 216.342C463.844 214.308 461.256 213.577 458.804 213.969L456.899 214.274V188.81V163.347L454.278 161.84C452.835 161.011 450.367 160.063 448.79 159.734L445.924 159.134L445.794 139.134L445.664 119.133L442.465 117.51C440.706 116.618 438.628 115.887 437.846 115.887H436.425V94.8812C436.425 82.0116 436.235 73.5184 435.932 72.9541C435.661 72.4473 434.65 71.5449 433.685 70.9487L431.931 69.8646V44.1878V18.5116H429.434H426.937V41.4998C426.937 64.4754 426.937 64.4879 425.92 63.9436C424.509 63.1881 423.16 63.7349 421.694 65.6574L420.446 67.2938V79.3225C420.446 90.8598 420.405 91.3641 419.46 91.6643C418.918 91.836 418.019 92.5556 417.463 93.2632C416.516 94.4672 416.451 95.2582 416.451 105.614V116.678L413.704 118.025L410.958 119.372V140.101C410.958 153.857 410.787 160.83 410.448 160.83C410.168 160.83 409.045 161.395 407.952 162.085L405.964 163.339V189.3V215.261L404.591 215.283C402.654 215.314 399.757 216.426 397.449 218.025L395.478 219.391V238.718C395.478 249.348 395.33 262.791 395.149 268.593L394.82 279.141L392.028 280.119C390.492 280.657 388.505 281.389 387.613 281.746L385.99 282.394V300.955V319.516L384.117 319.839C383.087 320.016 381.627 320.284 380.871 320.433L379.498 320.706V314.174V307.643H378.011H376.525L376.388 298.779L376.252 289.915L373.88 289.763L371.508 289.611V287.608C371.508 285.458 370.88 283.925 369.497 282.695C368.908 282.172 368.443 280.506 368.045 277.496C366.495 265.774 360.265 256.394 350.925 251.72C348.724 250.618 346.501 249.717 345.983 249.717C345.121 249.717 345.042 249.276 345.042 244.473V239.23H343.294C341.63 239.23 341.546 239.147 341.546 237.482C341.546 236.521 341.322 235.734 341.047 235.734C340.734 235.734 340.548 232.655 340.548 227.495V219.255H339.05H337.551V227.495C337.551 232.655 337.365 235.734 337.052 235.734C336.777 235.734 336.553 236.521 336.553 237.482C336.553 239.147 336.469 239.23 334.805 239.23H333.057V244.473C333.057 249.258 332.976 249.717 332.125 249.717C331.613 249.717 329.535 250.541 327.506 251.547C322.042 254.26 316.378 260.064 313.699 265.696C311.377 270.576 310.087 275.363 310.087 279.093C310.087 281.372 309.895 281.861 308.525 283.086C307.256 284.219 306.915 284.97 306.713 287.073L306.464 289.666H304.28H302.097V305.146V320.626H300.848H299.6V212.015V103.403H297.111H294.621L294.489 88.7969L294.357 74.1906L289.862 72.7609C287.391 71.9744 285.087 71.2513 284.744 71.1534C284.252 71.0136 284.12 63.4542 284.12 35.5054V0.0351562H280.624H277.129V34.9221ZM270.138 93.9154V101.905H271.885H273.633V93.9154V85.9256H271.885H270.138V93.9154ZM289.113 91.1689C289.113 94.609 289.255 95.4135 289.862 95.4135C290.47 95.4135 290.611 94.609 290.611 91.1689C290.611 87.7288 290.47 86.9243 289.862 86.9243C289.255 86.9243 289.113 87.7288 289.113 91.1689ZM244.67 94.1651V99.9077H254.158H263.646V94.1651V88.4224H254.158H244.67V94.1651ZM1105.07 129.37L1103.32 130.841L1106.94 130.855L1110.57 130.868V129.37C1110.57 127.969 1110.44 127.873 1108.69 127.886C1107.36 127.895 1106.32 128.324 1105.07 129.37ZM1092.86 138.608L1089.97 140.855H1100.27H1110.57V138.608V136.361H1103.16H1095.76L1092.86 138.608ZM1081.03 148.143C1079.83 149.129 1078.64 150.141 1078.38 150.39C1078.1 150.661 1084.45 150.843 1094.24 150.843H1110.57V148.596V146.348H1096.88H1083.19L1081.03 148.143ZM1069.62 158.583L1067.41 160.83H1088.99H1110.57V158.583V156.336H1091.19H1071.82L1069.62 158.583ZM1061.56 166.698C1059.19 169.562 1057.01 169.319 1085.04 169.319H1110.57V167.571V165.824H1086.42C1064.04 165.824 1062.23 165.887 1061.56 166.698ZM1053.89 175.51C1053.61 175.893 1052.87 176.905 1052.23 177.757L1051.07 179.306H1080.82H1110.57V177.059V174.812H1082.47C1058.99 174.812 1054.3 174.927 1053.89 175.51ZM1045.67 186.512C1044.84 187.729 1044.15 188.853 1044.15 189.009C1044.15 189.166 1059.09 189.294 1077.36 189.294H1110.57V186.797V184.3H1078.88H1047.19L1045.67 186.512ZM1039.28 196.263C1038.66 197.345 1038.16 198.355 1038.16 198.506C1038.16 198.658 1054.45 198.782 1074.36 198.782H1110.57V196.534V194.287L1075.48 194.291L1040.4 194.295L1039.28 196.263ZM1033.91 205.773L1033.14 207.271H1071.85H1110.57V205.773V204.275H1072.63H1034.69L1033.91 205.773ZM1030 213.138C1029.88 213.345 1029.43 214.356 1029 215.385L1028.22 217.258H1069.39H1110.57V215.011V212.764H1070.4C1048.3 212.764 1030.13 212.932 1030 213.138ZM558.02 218.742C546.749 221.187 537.351 226.255 529.286 234.236C521.963 241.484 517.225 249.762 514.444 260.166C513.318 264.379 513.166 265.925 513.166 273.187C513.166 280.467 513.316 281.988 514.456 286.255C516.145 292.577 518.622 298.211 521.904 303.198L524.563 307.237L524.705 305.318C524.946 302.069 524.926 302.078 528.871 303.42C530.855 304.094 532.663 304.647 532.89 304.647C533.117 304.647 533.302 303.523 533.302 302.15C533.302 300.776 533.358 299.656 533.427 299.66C533.495 299.664 535.349 300.226 537.546 300.909C539.744 301.591 541.71 302.15 541.916 302.15C542.122 302.15 542.29 300.914 542.29 299.403V296.657H551.279H560.267V300.432V304.208L562.135 304.052L564.003 303.897L565.584 289.666C566.453 281.838 567.051 274.843 566.911 274.121C566.515 272.064 567.521 270.69 569.423 270.69C571.66 270.69 572.251 271.465 572.257 274.41C572.26 275.797 572.593 279.853 572.996 283.424C573.4 286.994 573.735 290.196 573.74 290.54C573.748 291.027 577.634 291.164 591.478 291.164H609.205V302.004V312.844L611.452 310.639L613.699 308.434L613.701 297.427C613.703 285.95 614.204 277.098 615.497 265.696C616.201 259.487 617.786 249.265 618.466 246.558C619.185 243.693 608.801 232.028 601.06 227.003C595.796 223.586 590.534 221.235 584.184 219.465C580.179 218.348 578.25 218.128 571.004 217.962C563.935 217.799 561.762 217.93 558.02 218.742ZM1025.15 224.071C1024.87 224.797 1024.53 225.584 1024.38 225.819C1024.23 226.055 1043.5 226.247 1067.34 226.247H1110.57V224.499V222.751H1068.11H1025.65L1025.15 224.071ZM1021.65 233.113C1021.38 233.868 1021.05 234.767 1020.93 235.11C1020.76 235.607 1029.91 235.734 1065.64 235.734H1110.57V233.737V231.74H1066.36H1022.15L1021.65 233.113ZM1018.31 242.975L1017.78 244.723H1064.17H1110.57V242.975V241.227H1064.71H1018.85L1018.31 242.975ZM1016.03 251.09C1015.88 251.845 1015.6 252.857 1015.42 253.337C1015.1 254.165 1017.56 254.211 1062.82 254.211H1110.57V251.964V249.717H1063.44H1016.31L1016.03 251.09ZM1013.5 261.264C1013.33 262.123 1013.19 263.134 1013.19 263.512C1013.19 264.089 1020.9 264.198 1061.88 264.198H1110.57V261.951V259.704H1062.19H1013.81L1013.5 261.264ZM1011.69 269.878C1011.69 270.256 1011.55 271.267 1011.38 272.126L1011.07 273.686H1060.82H1110.57V271.439V269.192H1061.13C1019.51 269.192 1011.69 269.301 1011.69 269.878ZM1010.01 280.303C1009.84 280.92 1009.7 281.707 1009.7 282.05C1009.7 282.546 1019.86 282.675 1058.88 282.675C1103.85 282.675 1108.07 282.605 1108.07 281.867C1108.07 281.306 1108.37 281.14 1109.07 281.321C1109.86 281.529 1110.07 281.336 1110.07 280.38V279.179H1060.19H1010.31L1010.01 280.303ZM569.061 284.422C568.851 286.894 568.559 289.422 568.414 290.04C568.189 290.992 568.354 291.164 569.491 291.164H570.833L570.479 287.793C570.284 285.939 569.971 283.411 569.784 282.175C569.471 280.109 569.413 280.291 569.061 284.422ZM1009.03 288.001C1008.85 288.184 1008.7 289.195 1008.7 290.248V292.162H1055.14H1101.58V289.915V287.668H1055.47C1030.11 287.668 1009.21 287.818 1009.03 288.001ZM1007.7 299.653V301.65H1054.64H1101.58V299.653V297.655H1054.64H1007.7V299.653ZM1007.2 309.39V311.638H1037.41H1067.62V309.39V307.143H1037.41H1007.2V309.39ZM1080.1 309.39V311.638H1087.59H1095.09V309.39V307.143H1087.59H1080.1V309.39ZM1006.7 318.629V320.127H1037.16H1067.62V318.629V317.131H1037.16H1006.7V318.629ZM1080.1 318.629V320.127H1086.85H1093.59V318.629V317.131H1086.85H1080.1V318.629ZM1006.7 327.867V330.114H1034.66H1062.63V327.867V325.62H1034.66H1006.7V327.867ZM1087.1 327.867V330.114H1090.34H1093.59V327.867V325.62H1090.34H1087.1V327.867ZM1028.67 337.355V339.103H1045.65H1062.63V337.355V335.607H1045.65H1028.67V337.355ZM1053.14 346.094C1053.14 346.826 1053.47 347.092 1054.39 347.092C1055.3 347.092 1055.64 346.826 1055.64 346.094C1055.64 345.361 1055.3 345.095 1054.39 345.095C1053.47 345.095 1053.14 345.361 1053.14 346.094ZM-13.7663 381.798C-13.7663 397.728 -13.7029 404.317 -13.626 396.44C-13.5486 388.563 -13.5486 375.53 -13.6255 367.477C-13.7029 359.424 -13.7663 365.868 -13.7663 381.798Z" fill="black"/>
</svg>