<svg width="252" height="252" viewBox="0 0 252 252" fill="none" xmlns="http://www.w3.org/2000/svg">
<path d="M125.999 250.998C57.0755 250.998 1 194.925 1 125.999C1 57.0736 57.0755 1 125.999 1C194.925 1 250.998 57.0736 250.998 125.999C250.998 194.925 194.925 250.998 125.999 250.998ZM125.999 2.91423C58.1302 2.91423 2.91423 58.1302 2.91423 125.999C2.91423 193.868 58.1302 249.084 125.999 249.084C193.868 249.084 249.084 193.868 249.084 125.999C249.084 58.1302 193.868 2.91423 125.999 2.91423Z" fill="url(#paint0_linear_1352_7582)" stroke="#2EE580" stroke-width="2"/>
<path d="M250.884 125.548C250.755 125.31 242.39 110.257 225.422 99.3628C234.668 81.4456 234.387 64.2252 234.379 63.9553C234.37 63.6318 234.199 63.3351 233.923 63.1666C233.694 63.025 218.922 54.1697 198.782 53.2184C197.831 33.0788 188.975 18.3086 188.834 18.0769C188.665 17.8013 188.369 17.6309 188.045 17.6213C187.783 17.6194 170.561 17.3361 152.64 26.5819C141.746 9.6122 126.69 1.24701 126.453 1.11876C126.17 0.965622 125.827 0.965622 125.542 1.11876C125.304 1.24701 110.249 9.61412 99.355 26.5819C81.4359 17.3361 64.2155 17.6118 63.9514 17.6213C63.6279 17.6309 63.3312 17.8013 63.1627 18.0769C63.0211 18.3066 54.1658 33.0788 53.2144 53.2203C33.0729 54.1717 18.3027 63.025 18.073 63.1666C17.7974 63.3351 17.627 63.6318 17.6174 63.9553C17.6098 64.2252 17.3284 81.4437 26.576 99.3628C9.6102 110.257 1.24502 125.31 1.11485 125.548C0.961715 125.831 0.961715 126.173 1.11485 126.459C1.24311 126.696 9.61021 141.752 26.5779 152.645C17.3322 170.563 17.6117 187.781 17.6174 188.051C17.627 188.375 17.7974 188.671 18.073 188.84C18.3027 188.981 33.071 197.837 53.2144 198.788C54.1658 218.927 63.0211 233.698 63.1627 233.927C63.3312 234.203 63.6279 234.373 63.9514 234.383C63.9705 234.383 64.072 234.385 64.2519 234.385C66.6351 234.385 82.6974 234.033 99.3627 225.432C110.257 242.394 125.306 250.757 125.544 250.886C125.685 250.962 125.842 251 125.999 251C126.156 251 126.313 250.962 126.455 250.886C126.692 250.757 141.742 242.394 152.636 225.432C169.303 234.033 185.365 234.385 187.747 234.385C187.925 234.385 188.028 234.383 188.047 234.383C188.371 234.373 188.667 234.203 188.836 233.927C188.977 233.698 197.831 218.927 198.784 198.788C218.924 197.837 233.696 188.981 233.925 188.84C234.201 188.671 234.371 188.375 234.381 188.051C234.389 187.781 234.67 170.563 225.424 152.643C242.39 141.75 250.755 126.696 250.885 126.459C251.037 126.173 251.037 125.833 250.884 125.548ZM232.467 64.5334C232.44 67.5139 231.87 82.6363 223.805 98.3387C215.08 93.0516 204.207 88.9628 191.15 88.3885C197.182 76.794 199.077 65.3335 198.861 55.1345C216.491 56.0017 229.873 63.0671 232.467 64.5334ZM196.939 196.952C186.751 197.18 175.268 195.247 163.671 189.014C163.675 188.681 163.698 188.359 163.698 188.024C163.698 175.195 160.285 164.389 155.532 155.538C164.383 160.289 175.189 163.704 188.018 163.704C188.353 163.704 188.675 163.681 189.006 163.677C195.241 175.272 197.17 186.759 196.939 196.952ZM62.9904 163.675C63.3235 163.679 63.6451 163.702 63.9782 163.702C76.8073 163.702 87.6151 160.287 96.4646 155.536C91.7135 164.387 88.2985 175.193 88.2985 188.022C88.2985 188.357 88.3214 188.679 88.3253 189.01C76.7327 195.241 65.2492 197.17 55.0579 196.941C54.8301 186.753 56.7596 175.268 62.9904 163.675ZM55.0598 55.0541C65.2473 54.8263 76.7308 56.7597 88.3272 62.9943C88.3233 63.3274 88.3004 63.649 88.3004 63.984C88.3004 76.8132 91.7154 87.6209 96.4665 96.4704C87.6151 91.7193 76.8093 88.3043 63.9801 88.3043C63.6451 88.3043 63.3235 88.3272 62.9923 88.3311C56.7577 76.7347 54.8281 65.2474 55.0598 55.0541ZM189.008 88.3311C188.675 88.3272 188.353 88.3043 188.02 88.3043C175.191 88.3043 164.383 91.7193 155.534 96.4704C160.285 87.619 163.7 76.8132 163.7 63.984C163.7 63.649 163.677 63.3274 163.673 62.9963C175.268 56.7635 186.755 54.8359 196.948 55.0656C197.174 65.2512 195.243 76.7347 189.008 88.3311ZM197.568 126.003C185.608 132.898 173.7 135.073 163.135 134.931C153.444 129.596 143.805 127.136 136.771 126.005C143.805 124.876 153.445 122.401 163.137 117.066C173.698 116.926 185.606 119.104 197.568 126.003ZM136.839 162.636C136.616 151.579 133.93 142.002 131.392 135.345C135.888 140.871 142.839 147.984 152.303 153.706C157.705 162.781 161.774 174.182 161.784 187.982C149.835 181.076 141.998 171.851 136.839 162.636ZM90.2146 187.984C90.2223 174.182 94.2919 162.783 99.6958 153.708C109.16 147.986 116.11 140.871 120.607 135.345C118.069 142.002 115.383 151.577 115.159 162.636C110 171.851 102.163 181.076 90.2146 187.984ZM54.4319 126.003C66.3939 119.104 78.31 116.93 88.8766 117.073C98.5721 122.408 108.216 124.881 115.249 126.009C108.216 127.138 98.5702 129.594 88.8727 134.929C78.3062 135.073 66.392 132.898 54.4319 126.003ZM115.159 89.3724C115.383 100.429 118.069 110.006 120.607 116.664C116.11 111.137 109.16 104.024 99.6958 98.3004C94.2938 89.2231 90.2242 77.8239 90.2146 64.0242C102.163 70.9307 110 80.1554 115.159 89.3724ZM161.784 64.0242C161.776 77.8258 157.707 89.225 152.303 98.3004C142.839 104.022 135.89 111.137 131.392 116.662C133.93 110.004 136.616 100.429 136.839 89.3705C141.998 80.1554 149.835 70.9307 161.784 64.0242ZM149.851 102.152C142.603 112.751 133.871 119.633 129.093 122.91C132.372 118.13 139.251 109.399 149.851 102.152ZM127.132 121.777C127.582 115.999 129.175 104.996 134.73 93.4211C133.754 106.223 129.631 116.549 127.132 121.777ZM117.27 93.4229C122.825 104.998 124.418 115.999 124.868 121.777C122.368 116.549 118.245 106.223 117.27 93.4229ZM122.904 122.908C118.126 119.631 109.393 112.751 102.146 102.15C112.747 109.399 119.627 118.13 122.904 122.908ZM116.66 120.613C110.002 118.074 100.427 115.389 89.3685 115.165C80.1515 110.006 70.9268 102.169 64.0184 90.2185C77.82 90.2262 89.2192 94.2959 98.2946 99.6997C104.02 109.166 111.133 116.116 116.66 120.613ZM121.773 124.87C115.995 124.42 104.991 122.827 93.4133 117.27C106.218 118.247 116.545 122.37 121.773 124.87ZM121.771 127.136C116.545 129.634 106.221 133.754 93.421 134.732C104.994 129.177 115.995 127.586 121.771 127.136ZM89.4106 136.82C100.473 136.587 110.033 133.917 116.681 131.378C111.151 135.875 104.026 142.831 98.2965 152.309C89.2192 157.712 77.82 161.78 64.0203 161.79C70.9364 149.822 80.1783 141.979 89.4106 136.82ZM122.904 129.098C119.627 133.876 112.745 142.609 102.146 149.856C109.393 139.255 118.126 132.376 122.904 129.098ZM124.866 130.232C124.416 136.009 122.825 147.01 117.268 158.585C118.245 145.783 122.368 135.458 124.866 130.232ZM134.73 158.585C129.175 147.01 127.582 136.007 127.132 130.23C129.631 135.457 133.754 145.783 134.73 158.585ZM129.095 129.098C133.872 132.376 142.605 139.255 149.852 149.856C139.251 142.609 132.372 133.876 129.095 129.098ZM135.32 131.38C141.968 133.918 151.527 136.589 162.59 136.82C171.82 141.979 181.062 149.822 187.98 161.788C174.178 161.78 162.779 157.71 153.704 152.307C147.973 142.831 140.848 135.877 135.32 131.38ZM130.226 127.136C136.003 127.586 147.006 129.177 158.581 134.734C145.779 133.758 135.454 129.636 130.226 127.136ZM130.218 124.872C135.444 122.368 145.785 118.233 158.608 117.261C147.017 122.829 135.995 124.422 130.218 124.872ZM162.63 115.165C151.571 115.389 141.996 118.074 135.339 120.613C140.865 116.116 147.98 109.166 153.702 99.7016C162.779 94.2996 174.178 90.23 187.978 90.2204C181.072 102.167 171.847 110.004 162.63 115.165ZM160.861 62.3435C149.751 68.7581 142.1 77.1176 136.811 85.6569C136.501 75.6168 134.054 64.5506 127.64 53.4404C127.471 53.1514 127.291 52.8834 127.123 52.5982C134.047 41.4076 143.026 33.9937 151.968 29.0971C157.262 37.8088 161.334 48.7199 161.734 61.8726C161.441 62.0353 161.15 62.177 160.861 62.3435ZM134.927 88.8594C129.592 98.5473 127.131 108.182 125.999 115.216C124.868 108.182 122.406 98.5473 117.071 88.8594C116.93 78.2986 119.106 66.3902 125.999 54.4339C132.892 66.3902 135.069 78.2986 134.927 88.8594ZM124.361 53.4404C117.946 64.5506 115.5 75.6168 115.19 85.6588C109.901 77.1194 102.249 68.7581 91.1373 62.3435C90.8463 62.177 90.5573 62.0353 90.2682 61.8726C90.6683 48.718 94.7398 37.8069 100.035 29.0971C108.976 33.9937 117.956 41.4076 124.879 52.5982C124.709 52.8834 124.527 53.1514 124.361 53.4404ZM62.3396 91.1412C68.7523 102.249 77.1098 109.904 85.6473 115.193C75.609 115.506 64.5448 117.952 53.4365 124.365C53.1456 124.531 52.8795 124.711 52.5942 124.881C41.4017 117.958 33.9898 108.976 29.0932 100.037C37.8049 94.7419 48.7141 90.6703 61.8687 90.2702C62.0314 90.5611 62.1731 90.8521 62.3396 91.1412ZM53.4384 127.642C64.5639 134.064 75.6339 136.493 85.6856 136.799C77.1347 142.086 68.7618 149.741 62.3396 160.865C62.1731 161.156 62.0314 161.445 61.8687 161.734C48.7141 161.334 37.8049 157.263 29.0932 151.968C33.9898 143.026 41.4037 134.047 52.5942 127.123C52.8814 127.295 53.1475 127.475 53.4384 127.642ZM91.1373 189.663C102.247 183.248 109.899 174.889 115.19 166.347C115.5 176.388 117.946 187.454 124.361 198.564C124.527 198.853 124.707 199.123 124.877 199.408C117.954 210.599 108.974 218.013 100.033 222.909C94.7379 214.196 90.6664 203.282 90.2663 190.124C90.5573 189.963 90.8463 189.829 91.1373 189.663ZM117.071 163.147C122.406 153.459 124.868 143.825 125.999 136.79C127.131 143.825 129.592 153.459 134.927 163.147C135.069 173.708 132.892 185.616 125.999 197.57C119.106 185.614 116.932 173.708 117.071 163.147ZM127.638 198.564C134.052 187.454 136.499 176.388 136.809 166.347C142.098 174.887 149.749 183.246 160.859 189.663C161.15 189.829 161.439 189.961 161.728 190.124C161.33 203.282 157.259 214.196 151.962 222.907C143.022 218.011 134.041 210.599 127.117 199.408C127.291 199.123 127.469 198.855 127.638 198.564ZM189.659 160.865C183.239 149.743 174.866 142.088 166.317 136.799C176.366 136.493 187.44 134.064 198.562 127.642C198.853 127.475 199.119 127.295 199.404 127.125C210.595 134.049 218.009 143.03 222.905 151.97C214.194 157.264 203.284 161.336 190.13 161.736C189.967 161.445 189.825 161.156 189.659 160.865ZM198.562 124.365C187.454 117.952 176.391 115.506 166.353 115.193C174.891 109.904 183.246 102.249 189.659 91.1412C189.825 90.8521 189.967 90.5612 190.13 90.2721C203.284 90.6722 214.195 94.7437 222.905 100.038C218.009 108.98 210.595 117.96 199.404 124.883C199.119 124.713 198.851 124.533 198.562 124.365ZM187.469 19.5356C188.937 22.1294 196.012 35.506 196.877 53.1418C186.676 52.9236 175.212 54.8187 163.614 60.8523C163.04 47.7954 158.951 36.9225 153.664 28.1974C169.366 20.1328 184.49 19.5624 187.469 19.5356ZM125.999 3.06553C128.566 4.57968 141.38 12.6367 150.945 27.472C142.004 32.382 133.024 39.7537 125.999 50.7739C118.974 39.7556 109.994 32.3839 101.053 27.472C110.618 12.6348 123.43 4.57777 125.999 3.06553ZM64.5295 19.5356C67.5099 19.5624 82.6323 20.1328 98.3348 28.1974C93.0477 36.9225 88.9569 47.7954 88.3846 60.8543C76.7901 54.8244 65.3277 52.9274 55.1306 53.1456C55.9958 35.5137 63.0632 22.1294 64.5295 19.5356ZM19.5317 64.5334C22.1235 63.0652 35.5021 55.9883 53.1379 55.123C52.9197 65.324 54.8148 76.7902 60.8484 88.3885C47.7914 88.9609 36.9186 93.0516 28.1935 98.3387C20.1289 82.6363 19.5585 67.512 19.5317 64.5334ZM3.06162 126.003C4.57578 123.436 12.6309 110.624 27.4662 101.059C32.3781 110 39.7497 118.978 50.7719 126.003C39.7517 133.028 32.38 142.008 27.47 150.949C12.6309 141.384 4.57578 128.572 3.06162 126.003ZM19.5317 187.473C19.5585 184.492 20.1308 169.37 28.1935 153.668C36.9167 158.955 47.7914 163.043 60.8484 163.618C54.8167 175.212 52.9216 186.675 53.1379 196.874C35.5078 196.007 22.1254 188.939 19.5317 187.473ZM64.5295 232.471C63.0613 229.875 55.9901 216.483 55.1287 198.84C55.6493 198.851 56.1566 198.882 56.6849 198.882C66.4858 198.882 77.3778 196.851 88.3846 191.123C88.9531 204.194 93.0438 215.076 98.3348 223.807C82.6323 231.873 67.508 232.444 64.5295 232.471ZM125.999 248.941C123.43 247.427 110.615 239.368 101.047 224.527C109.991 219.615 118.972 212.26 125.999 201.24C133.026 212.262 142.008 219.617 150.951 224.527C141.384 239.368 128.568 247.427 125.999 248.941ZM187.469 232.471C184.489 232.444 169.366 231.873 153.664 223.809C158.955 215.078 163.045 204.196 163.614 191.125C174.623 196.851 185.513 198.884 195.313 198.884C195.84 198.884 196.349 198.851 196.87 198.842C196.008 216.481 188.935 229.875 187.469 232.471ZM232.467 187.473C229.873 188.943 216.496 196.018 198.861 196.881C199.079 186.68 197.184 175.214 191.15 163.618C204.207 163.043 215.082 158.955 223.805 153.668C231.87 169.37 232.44 184.494 232.467 187.473ZM224.534 150.947C219.622 142.006 212.251 133.028 201.23 126.003C212.251 118.978 219.622 110 224.534 101.059C239.369 110.624 247.425 123.436 248.939 126.003C247.425 128.572 239.369 141.382 224.534 150.947Z" fill="url(#paint1_radial_1352_7582)"/>
<defs>
<linearGradient id="paint0_linear_1352_7582" x1="125.999" y1="1" x2="125.999" y2="250.998" gradientUnits="userSpaceOnUse">
<stop stop-color="#102D1C"/>
<stop offset="1" stop-color="#095F2E"/>
</linearGradient>
<radialGradient id="paint1_radial_1352_7582" cx="0" cy="0" r="1" gradientUnits="userSpaceOnUse" gradientTransform="translate(125.999 126.002) rotate(90) scale(124.998 124.999)">
<stop stop-color="#2EE580"/>
<stop offset="1" stop-color="#2EE580" stop-opacity="0"/>
</radialGradient>
</defs>
</svg>
