<svg width="253" height="259" viewBox="0 0 253 259" fill="none" xmlns="http://www.w3.org/2000/svg">
<path d="M45.9297 228.332C46.9918 229.207 48.0672 230.064 49.1586 230.904L50.4075 229.282C49.3347 228.457 48.2753 227.614 47.2319 226.752L45.9297 228.332Z" fill="#2EE580"/>
<path d="M66.4688 242.128C67.6642 242.771 68.8998 243.409 70.1433 244.025L71.0532 242.189C69.8284 241.586 68.6143 240.959 67.4375 240.324L66.4688 242.128Z" fill="#2EE580"/>
<path d="M198.152 231.886L199.348 233.549C200.463 232.748 201.568 231.932 202.657 231.094L201.413 229.471C200.341 230.293 199.252 231.099 198.152 231.886Z" fill="#2EE580"/>
<path d="M59.3242 237.98C60.4904 238.712 61.6698 239.421 62.8627 240.115L63.8901 238.346C62.7186 237.663 61.5578 236.964 60.4077 236.246L59.3242 237.98Z" fill="#2EE580"/>
<path d="M52.4648 233.37C53.5669 234.162 54.7064 234.957 55.8565 235.729L56.9987 234.029C55.8672 233.271 54.7438 232.489 53.663 231.71L52.4648 233.37Z" fill="#2EE580"/>
<path d="M9.91474 174.585L7.99609 175.305C8.47643 176.581 8.98343 177.872 9.51179 179.143L11.4011 178.361C10.8861 177.112 10.3897 175.855 9.91474 174.585Z" fill="#2EE580"/>
<path d="M73.875 245.795C75.1132 246.358 76.3887 246.916 77.6696 247.447L78.4542 245.558C77.1973 245.035 75.9404 244.488 74.7262 243.933L73.875 245.795Z" fill="#2EE580"/>
<path d="M33.9062 217.038C34.8456 218.042 35.8009 219.032 36.7722 220.006L38.2212 218.562C37.2659 217.604 36.3266 216.63 35.4006 215.64L33.9062 217.038Z" fill="#2EE580"/>
<path d="M7.31028 166.897L5.35156 167.492C5.74917 168.81 6.16812 170.118 6.60842 171.42L8.54577 170.763C8.11614 169.485 7.70255 168.196 7.31028 166.897Z" fill="#2EE580"/>
<path d="M28.4766 210.832C29.3358 211.881 30.2298 212.938 31.1424 213.979L32.6821 212.631C31.7908 211.614 30.9182 210.584 30.0616 209.538L28.4766 210.832Z" fill="#2EE580"/>
<path d="M23.4688 204.288C24.2693 205.406 25.0859 206.511 25.9211 207.6L27.5463 206.356C26.727 205.283 25.9211 204.197 25.1339 203.098L23.4688 204.288Z" fill="#2EE580"/>
<path d="M81.5156 248.977C82.8045 249.463 84.1014 249.93 85.409 250.373L86.0708 248.438C84.7846 247.998 83.5064 247.542 82.2388 247.061L81.5156 248.977Z" fill="#2EE580"/>
<path d="M154.125 251.815L154.587 253.811C155.929 253.498 157.266 253.165 158.592 252.813L158.064 250.835C156.759 251.182 155.446 251.51 154.125 251.815Z" fill="#2EE580"/>
<path d="M177.141 244.019L177.987 245.885C179.238 245.316 180.476 244.729 181.706 244.124L180.802 242.288C179.593 242.885 178.371 243.462 177.141 244.019Z" fill="#2EE580"/>
<path d="M161.965 249.727L162.557 251.686C163.878 251.285 165.186 250.864 166.485 250.426L165.831 248.486C164.551 248.921 163.262 249.332 161.965 249.727Z" fill="#2EE580"/>
<path d="M169.648 247.12L170.372 249.033C171.66 248.548 172.939 248.043 174.209 247.517L173.424 245.628C172.178 246.143 170.919 246.64 169.648 247.12Z" fill="#2EE580"/>
<path d="M191.414 236.394L192.495 238.131C193.661 237.405 194.816 236.661 195.959 235.897L194.822 234.197C193.698 234.947 192.562 235.678 191.414 236.394Z" fill="#2EE580"/>
<path d="M184.398 240.436L185.364 242.24C186.576 241.594 187.777 240.925 188.964 240.242L187.94 238.467C186.771 239.142 185.591 239.799 184.398 240.436Z" fill="#2EE580"/>
<path d="M5.22775 159.049L3.23438 159.511C3.54659 160.853 3.87748 162.19 4.22973 163.514L6.20707 162.988C5.86017 161.683 5.53463 160.37 5.22775 159.049Z" fill="#2EE580"/>
<path d="M97.3242 253.769C98.6665 254.084 100.022 254.374 101.356 254.639L101.754 252.632C100.425 252.368 99.1014 252.082 97.7885 251.778L97.3242 253.769Z" fill="#2EE580"/>
<path d="M89.3516 251.637C90.6645 252.035 91.9881 252.414 93.3197 252.771L93.848 250.794C92.5405 250.442 91.2382 250.071 89.9466 249.679L89.3516 251.637Z" fill="#2EE580"/>
<path d="M146.16 253.388L146.491 255.408C147.852 255.184 149.205 254.941 150.553 254.677L150.155 252.668C148.831 252.929 147.5 253.169 146.16 253.388Z" fill="#2EE580"/>
<path d="M105.414 255.383C106.77 255.605 108.128 255.808 109.497 255.986L109.761 253.958C108.416 253.779 107.079 253.582 105.745 253.363L105.414 255.383Z" fill="#2EE580"/>
<path d="M138.109 254.432L138.307 256.471C139.681 256.337 141.047 256.183 142.408 256.004L142.144 253.976C140.805 254.149 139.46 254.301 138.109 254.432Z" fill="#2EE580"/>
<path d="M39.7344 222.88C40.7324 223.82 41.7598 224.754 42.7871 225.658L44.1401 224.121C43.1234 223.227 42.1227 222.317 41.138 221.389L39.7344 222.88Z" fill="#2EE580"/>
<path d="M242.197 87.6191L244.113 86.9013C243.63 85.6098 243.126 84.3315 242.606 83.0613L240.711 83.8405C241.226 85.0894 241.722 86.3489 242.197 87.6191Z" fill="#2EE580"/>
<path d="M249.422 143.195L251.458 143.393C251.591 142.045 251.703 140.663 251.791 139.28L249.75 139.15C249.662 140.508 249.553 141.869 249.422 143.195Z" fill="#2EE580"/>
<path d="M250.012 131.033C250.012 132.391 249.988 133.744 249.945 135.094L251.992 135.158C252.035 133.789 252.059 132.412 252.059 131.033H250.012Z" fill="#2EE580"/>
<path d="M248.375 151.24L250.395 151.568C250.617 150.215 250.817 148.854 250.993 147.488L248.965 147.224C248.789 148.569 248.594 149.909 248.375 151.24Z" fill="#2EE580"/>
<path d="M2.64846 118.722L0.612344 118.522C0.47625 119.886 0.364167 121.257 0.273438 122.634L2.31489 122.768C2.40562 121.415 2.51503 120.067 2.64846 118.722Z" fill="#2EE580"/>
<path d="M3.66071 151.089L1.64062 151.417C1.86211 152.778 2.10494 154.134 2.36913 155.479L4.37853 155.084C4.11701 153.76 3.87953 152.426 3.66071 151.089Z" fill="#2EE580"/>
<path d="M249.956 127.271L252.003 127.21C251.96 125.83 251.896 124.456 251.814 123.09L249.77 123.215C249.852 124.56 249.916 125.913 249.956 127.271Z" fill="#2EE580"/>
<path d="M244.785 95.3027L246.746 94.7156C246.349 93.3974 245.93 92.0738 245.492 90.7822L243.555 91.4361C243.982 92.7063 244.395 94.0085 244.785 95.3027Z" fill="#2EE580"/>
<path d="M3.70788 110.68L1.68779 110.346C1.46363 111.699 1.26349 113.058 1.08203 114.427L3.1128 114.693C3.28892 113.348 3.48639 112.011 3.70788 110.68Z" fill="#2EE580"/>
<path d="M248.416 111.119L250.438 110.794C250.217 109.433 249.977 108.077 249.713 106.732L247.703 107.124C247.962 108.448 248.202 109.78 248.416 111.119Z" fill="#2EE580"/>
<path d="M246.861 103.154L248.857 102.695C248.553 101.369 248.219 100.021 247.867 98.6899L245.887 99.2129C246.236 100.523 246.562 101.849 246.861 103.154Z" fill="#2EE580"/>
<path d="M249.451 119.17L251.487 118.978C251.359 117.609 251.204 116.229 251.031 114.876L249 115.135C249.171 116.475 249.323 117.82 249.451 119.17Z" fill="#2EE580"/>
<path d="M13.155 79.6608L11.2951 78.8095C10.7294 80.0503 10.1717 81.3259 9.64062 82.6015L11.53 83.3887C12.053 82.1345 12.6 80.8803 13.155 79.6608Z" fill="#2EE580"/>
<path d="M2.11618 126.822L0.0720552 126.753C0.0266904 128.122 0.00266852 129.499 0 130.878L2.0468 130.881C2.04947 129.523 2.07348 128.17 2.11618 126.822Z" fill="#2EE580"/>
<path d="M238.961 182.267L240.824 183.115C241.395 181.858 241.95 180.583 242.473 179.321L240.581 178.536C240.066 179.777 239.521 181.031 238.961 182.267Z" fill="#2EE580"/>
<path d="M2.62198 143.036L0.585938 143.231C0.716695 144.606 0.871461 145.972 1.04491 147.33L3.07562 147.069C2.90483 145.732 2.75274 144.387 2.62198 143.036Z" fill="#2EE580"/>
<path d="M2.10663 134.939L0.0625 135.003C0.105196 136.382 0.169301 137.757 0.257362 139.123L2.29875 138.995C2.21603 137.647 2.15199 136.297 2.10663 134.939Z" fill="#2EE580"/>
<path d="M7.40013 94.8818L5.44148 94.2841C5.0412 95.5997 4.66227 96.9206 4.30469 98.2522L6.28204 98.7832C6.63428 97.473 7.00786 96.1734 7.40013 94.8818Z" fill="#2EE580"/>
<path d="M5.29567 102.717L3.3023 102.253C2.99008 103.595 2.69654 104.951 2.42969 106.285L4.43642 106.686C4.70327 105.354 4.98879 104.033 5.29567 102.717Z" fill="#2EE580"/>
<path d="M10.0252 87.17L8.11191 86.4468C7.62357 87.7357 7.15658 89.0326 6.71094 90.3402L8.64828 91.002C9.08592 89.7157 9.54488 88.4402 10.0252 87.17Z" fill="#2EE580"/>
<path d="M244.703 167.04L246.662 167.635C247.057 166.338 247.436 165.001 247.793 163.664L245.816 163.138C245.464 164.451 245.09 165.764 244.703 167.04Z" fill="#2EE580"/>
<path d="M242.082 174.744L243.995 175.467C244.484 174.175 244.953 172.865 245.391 171.571L243.454 170.912C243.016 172.201 242.56 173.476 242.082 174.744Z" fill="#2EE580"/>
<path d="M246.797 159.198L248.788 159.662C249.1 158.325 249.388 156.98 249.655 155.627L247.648 155.23C247.387 156.559 247.101 157.882 246.797 159.198Z" fill="#2EE580"/>
<path d="M27.8177 55.3457C28.645 54.273 29.4882 53.2136 30.3501 52.1702L28.7704 50.8679C27.8951 51.93 27.0386 53.0054 26.1953 54.0942L27.8177 55.3457Z" fill="#2EE580"/>
<path d="M102.049 9.36133C103.385 9.09981 104.728 8.85964 106.043 8.64882L105.718 6.6261C104.381 6.84225 103.012 7.08775 101.656 7.3546L102.049 9.36133Z" fill="#2EE580"/>
<path d="M50.7592 32.502C51.8319 31.68 52.918 30.8768 54.0201 30.0896L52.8326 28.4245C51.7118 29.225 50.607 30.0416 49.5156 30.8768L50.7592 32.502Z" fill="#2EE580"/>
<path d="M94.139 11.1895C95.4439 10.8452 96.7568 10.5197 98.0777 10.2155L97.6187 8.21942C96.2738 8.53164 94.9395 8.85986 93.6133 9.21211L94.139 11.1895Z" fill="#2EE580"/>
<path d="M110.058 8.07227C111.398 7.89881 112.743 7.74939 114.093 7.6213L113.898 5.58255C112.532 5.71331 111.152 5.86807 109.797 6.04153L110.058 8.07227Z" fill="#2EE580"/>
<path d="M146.455 8.72852L146.791 6.70846C145.444 6.48431 144.069 6.27882 142.708 6.10003L142.441 8.13077C143.778 8.30689 145.131 8.50703 146.455 8.72852Z" fill="#2EE580"/>
<path d="M64.2447 23.5176C65.4135 22.8451 66.593 22.1913 67.7858 21.5536L66.8225 19.7496C65.611 20.3954 64.4101 21.0599 63.2227 21.7457L64.2447 23.5176Z" fill="#2EE580"/>
<path d="M57.3568 27.7871C58.4802 27.0373 59.617 26.3088 60.7671 25.5936L59.6864 23.8564C58.5176 24.5822 57.3648 25.3241 56.2227 26.0846L57.3568 27.7871Z" fill="#2EE580"/>
<path d="M78.7663 16.373C80.0152 15.858 81.2747 15.3617 82.5449 14.8867L81.8271 12.9707C80.5355 13.4537 79.2546 13.958 77.9844 14.4811L78.7663 16.373Z" fill="#2EE580"/>
<path d="M154.411 10.3145L154.88 8.32105C153.56 8.0115 152.201 7.71799 150.848 7.4458L150.445 9.45249C151.774 9.71935 153.098 10.0049 154.411 10.3145Z" fill="#2EE580"/>
<path d="M71.3902 19.7051C72.599 19.1127 73.8186 18.5363 75.0514 17.9786L74.2108 16.1133C72.9807 16.6683 71.7265 17.2607 70.4883 17.8691L71.3902 19.7051Z" fill="#2EE580"/>
<path d="M86.3647 13.5293C87.6456 13.097 88.9345 12.686 90.2314 12.2938L89.6417 10.3351C88.3207 10.7327 87.0105 11.1516 85.7109 11.592L86.3647 13.5293Z" fill="#2EE580"/>
<path d="M162.253 12.4238L162.848 10.4651C161.535 10.0649 160.214 9.68593 158.883 9.32568L158.352 11.3031C159.659 11.6553 160.959 12.0289 162.253 12.4238Z" fill="#2EE580"/>
<path d="M204.942 35.4043L206.245 33.8272C205.185 32.9493 204.11 32.09 203.018 31.2494L201.77 32.8692C202.84 33.6964 203.896 34.5424 204.942 35.4043Z" fill="#2EE580"/>
<path d="M216.753 46.5254L218.25 45.1298C217.313 44.1237 216.358 43.1337 215.389 42.157L213.938 43.6007C214.893 44.5614 215.83 45.5354 216.753 46.5254Z" fill="#2EE580"/>
<path d="M191.777 25.8965L192.863 24.1619C191.697 23.4334 190.517 22.7209 189.327 22.0271L188.297 23.7963C189.468 24.4768 190.629 25.1787 191.777 25.8965Z" fill="#2EE580"/>
<path d="M198.513 30.4395L199.711 28.7796C198.595 27.9738 197.467 27.1865 196.324 26.418L195.18 28.1152C196.306 28.873 197.416 29.6469 198.513 30.4395Z" fill="#2EE580"/>
<path d="M211.031 40.7715L212.434 39.2798C211.434 38.3378 210.417 37.4119 209.387 36.4992L208.031 38.0336C209.045 38.9302 210.046 39.8428 211.031 40.7715Z" fill="#2EE580"/>
<path d="M222.087 52.6426L223.672 51.3457C222.802 50.2809 221.916 49.2322 221.011 48.1968L219.469 49.5418C220.357 50.5611 221.23 51.5939 222.087 52.6426Z" fill="#2EE580"/>
<path d="M169.954 15.0527L170.68 13.1394C169.399 12.6538 168.089 12.1814 166.787 11.7358L166.125 13.6731C167.406 14.1108 168.695 14.5751 169.954 15.0527Z" fill="#2EE580"/>
<path d="M177.462 18.1855L178.314 16.3229C177.059 15.7518 175.797 15.1995 174.524 14.6684L173.734 16.5577C174.989 17.0808 176.232 17.6225 177.462 18.1855Z" fill="#2EE580"/>
<path d="M227.011 59.084L228.676 57.8965C227.879 56.7757 227.062 55.6709 226.227 54.5795L224.602 55.823C225.423 56.8958 226.224 57.9846 227.011 59.084Z" fill="#2EE580"/>
<path d="M32.9902 49.084C33.8841 48.0699 34.7941 47.0693 35.7228 46.0819L34.2337 44.6783C33.289 45.6816 32.3631 46.6983 31.4531 47.7311L32.9902 49.084Z" fill="#2EE580"/>
<path d="M184.747 21.8066L185.719 20.0054C184.518 19.3569 183.282 18.7165 182.049 18.1054L181.137 19.9387C182.351 20.5391 183.565 21.1689 184.747 21.8066Z" fill="#2EE580"/>
<path d="M38.5492 43.1738C39.5072 42.2185 40.4812 41.2818 41.4712 40.3559L40.0756 38.8615C39.0695 39.8008 38.0795 40.7535 37.1055 41.7248L38.5492 43.1738Z" fill="#2EE580"/>
<path d="M216.438 215.871L217.929 217.271C218.871 216.271 219.795 215.251 220.705 214.219L219.167 212.868C218.273 213.882 217.363 214.886 216.438 215.871Z" fill="#2EE580"/>
<path d="M221.805 209.773L223.382 211.072C224.254 210.016 225.119 208.927 225.954 207.841L224.332 206.594C223.507 207.667 222.664 208.727 221.805 209.773Z" fill="#2EE580"/>
<path d="M210.695 221.606L212.094 223.104C213.1 222.162 214.087 221.206 215.061 220.235L213.615 218.786C212.657 219.741 211.683 220.683 210.695 221.606Z" fill="#2EE580"/>
<path d="M204.594 226.947L205.891 228.529C206.953 227.659 208.002 226.771 209.037 225.863L207.687 224.324C206.67 225.215 205.637 226.09 204.594 226.947Z" fill="#2EE580"/>
<path d="M44.4843 37.6387C45.501 36.7501 46.5337 35.8774 47.5824 35.0208L46.2856 33.4358C45.2208 34.3057 44.1721 35.1943 43.1367 36.0989L44.4843 37.6387Z" fill="#2EE580"/>
<path d="M233.4 193.02C227.551 203.153 214.547 206.632 204.42 200.786C204.068 200.58 203.737 200.351 203.401 200.129C212.802 189.613 220.095 177.177 224.613 163.49C224.957 163.667 225.298 163.843 225.635 164.037C235.767 169.887 239.249 182.888 233.4 193.02ZM149.005 230.155C147.706 221.915 142.065 215.105 134.505 212.138C158.134 209.685 178.786 197.095 192.054 178.81C191.558 181.981 191.702 185.242 192.558 188.433C193.842 193.223 196.572 197.367 200.35 200.433C186.778 214.955 169.017 225.517 149.005 230.155ZM147.244 233.795C147.244 245.494 137.728 255.01 126.03 255.01C114.331 255.01 104.815 245.494 104.815 233.795C104.815 233.408 104.852 233.029 104.871 232.648C111.705 234.067 118.782 234.817 126.03 234.817C133.277 234.817 140.354 234.067 147.188 232.648C147.207 233.029 147.244 233.408 147.244 233.795ZM51.7087 200.433C55.4873 197.367 58.2172 193.223 59.5008 188.433C60.3574 185.242 60.5015 181.981 60.0051 178.813C73.2756 197.095 93.9246 209.685 117.554 212.138C109.994 215.105 104.353 221.915 103.054 230.155C83.0424 225.517 65.2807 214.958 51.7087 200.433ZM47.6392 200.786C37.5095 206.635 24.5085 203.15 18.6591 193.02C12.8097 182.888 16.2921 169.887 26.4245 164.037C26.758 163.843 27.1076 163.683 27.4519 163.509C31.9697 177.191 39.26 189.618 48.6586 200.129C48.3197 200.351 47.9914 200.58 47.6392 200.786ZM24.287 131.028C24.287 120.711 25.8347 110.747 28.7034 101.357C31.4013 102.392 34.2086 102.904 36.9918 102.904C42.2648 102.902 47.4417 101.101 51.5993 97.7675C47.0388 107.932 44.4797 119.185 44.4797 131.028C44.4797 142.868 47.0361 154.119 51.5939 164.28C49.1095 162.284 46.2249 160.793 43.052 159.941C38.2407 158.652 33.2666 158.954 28.7087 160.713C25.8374 151.317 24.287 141.352 24.287 131.028ZM26.4245 98.0184C16.2921 92.169 12.8097 79.168 18.6591 69.0383C21.4904 64.1309 26.0669 60.6191 31.5401 59.1541C33.368 58.6631 35.2226 58.4202 37.0665 58.4202C40.7411 58.4202 44.3702 59.3836 47.6392 61.2729C47.9914 61.4757 48.3197 61.7078 48.6586 61.9293C39.26 72.4406 31.9697 84.8679 27.4519 98.5467C27.1076 98.3733 26.758 98.2132 26.4245 98.0184ZM103.054 31.9032C104.353 40.1409 109.994 46.9509 117.554 49.9183C93.9246 52.3707 73.2756 64.9608 60.0051 83.2455C60.5015 80.0779 60.3547 76.8143 59.5008 73.6255C58.2172 68.8328 55.4873 64.6886 51.7087 61.6251C65.2807 47.1004 83.0424 36.5384 103.054 31.9032ZM104.815 28.2633C104.815 16.5645 114.331 7.04596 126.03 7.04596C137.728 7.04596 147.244 16.5645 147.244 28.2633C147.244 28.6502 147.207 29.0265 147.188 29.4108C140.354 27.9885 133.277 27.2386 126.03 27.2386C118.782 27.2386 111.705 27.9885 104.871 29.4081C104.852 29.0265 104.815 28.6502 104.815 28.2633ZM200.337 61.6091C193.858 66.8821 190.802 75.1999 192.051 83.2401C178.781 64.9608 158.132 52.3707 134.505 49.9183C142.065 46.9509 147.706 40.1409 149.005 31.9032C169.009 36.5357 186.768 47.0924 200.337 61.6091ZM204.42 61.2729C207.689 59.3836 211.315 58.4202 214.993 58.4202C216.834 58.4202 218.691 58.6631 220.519 59.1541C225.992 60.6191 230.566 64.1309 233.4 69.0383C239.249 79.168 235.767 92.169 225.635 98.0184C225.298 98.2132 224.951 98.3733 224.607 98.5467C220.089 84.8679 212.799 72.4406 203.403 61.932C203.739 61.7105 204.065 61.4757 204.42 61.2729ZM214.627 180.999L197.21 170.944C200.065 166.495 204.396 163.296 209.535 161.919C211.366 161.428 213.218 161.188 215.062 161.188C217.682 161.188 220.276 161.687 222.734 162.65C220.631 169.07 217.904 175.211 214.627 180.999ZM196.185 172.715L213.6 182.768C210.173 188.545 206.197 193.952 201.735 198.92C198.24 196.118 195.715 192.31 194.536 187.902C193.156 182.76 193.762 177.415 196.185 172.715ZM127.052 181.442C128.06 181.423 129.069 181.383 130.07 181.303L129.907 179.261C128.96 179.339 128.007 179.376 127.052 179.397V132.802L167.413 156.104C167.119 156.587 166.823 157.067 166.514 157.54L168.227 158.66C168.558 158.156 168.875 157.644 169.188 157.129L194.338 171.648C180.614 194.637 155.631 210.141 127.052 210.507V181.442ZM127.052 212.631C137.197 213.117 145.478 220.746 146.977 230.598C140.538 231.951 133.875 232.69 127.052 232.757V212.631ZM125.008 232.757C118.184 232.69 111.521 231.951 105.082 230.598C106.581 220.746 114.862 213.117 125.008 212.631V232.757ZM125.008 132.8V210.507C96.4277 210.141 71.4424 194.637 57.7208 171.648L125.008 132.8ZM55.8742 172.715C58.2973 177.415 58.903 182.76 57.5234 187.902C56.3439 192.31 53.8168 196.118 50.321 198.92C45.862 193.952 41.8832 188.545 38.4595 182.768L55.8742 172.715ZM29.3278 162.666C33.5174 161.022 38.0966 160.734 42.5236 161.919C47.6632 163.296 51.9915 166.495 54.8495 170.941L37.4321 180.999C34.1552 175.213 31.4333 169.078 29.3278 162.666ZM56.6988 92.1823L81.8443 106.699C81.8336 106.718 81.8229 106.734 81.8149 106.75L83.6081 107.737C83.6108 107.732 83.6135 107.729 83.6161 107.724L123.983 131.028L56.6988 169.874C50.233 158.378 46.5264 145.131 46.5264 131.028C46.5264 116.925 50.233 103.678 56.6988 92.1823ZM37.4321 81.06L54.8495 91.1149C51.9915 95.5633 47.6632 98.7602 42.5236 100.137C38.0966 101.325 33.5174 101.034 29.3278 99.39C31.4333 92.9775 34.1552 86.8426 37.4321 81.06ZM55.8742 89.343L38.4595 79.2881C41.8832 73.5134 45.862 68.1043 50.321 63.1355C53.8168 65.9375 56.3439 69.7454 57.5234 74.1538C58.903 79.2961 58.2973 84.6437 55.8742 89.343ZM125.008 80.6143C124.084 80.633 123.161 80.6676 122.251 80.7344L122.403 82.7758C123.262 82.7117 124.135 82.6797 125.008 82.6611V129.256L84.6409 105.952C84.9798 105.397 85.3267 104.847 85.6842 104.308L83.9791 103.177C83.5975 103.75 83.2265 104.335 82.8689 104.927L57.7208 90.4104C71.4424 67.4211 96.4277 51.9144 125.008 51.5515V80.6143ZM125.008 49.4273C114.862 48.939 106.581 41.3097 105.082 31.4576C111.521 30.1046 118.184 29.3654 125.008 29.2987V49.4273ZM127.052 29.2987C133.875 29.3654 140.538 30.1046 146.977 31.4576C145.478 41.3097 137.197 48.939 127.052 49.4273V29.2987ZM127.052 129.256V51.5515C155.631 51.9144 180.617 67.4211 194.338 90.4104L127.052 129.256ZM196.188 89.3403C191.547 80.3288 193.994 69.3692 201.741 63.1382C206.2 68.107 210.176 73.5161 213.6 79.2881L196.188 89.3403ZM222.729 99.39C218.542 101.034 213.963 101.325 209.535 100.137C204.396 98.7602 200.065 95.5633 197.21 91.1149L214.627 81.06C217.901 86.8426 220.626 92.9775 222.729 99.39ZM195.358 169.874L170.212 155.357C170.263 155.263 170.319 155.17 170.37 155.077L168.571 154.1C168.528 154.177 168.483 154.255 168.438 154.332L128.076 131.028L195.358 92.1823C201.826 103.678 205.533 116.925 205.533 131.028C205.533 145.131 201.826 158.378 195.358 169.874ZM227.772 131.028C227.772 141.352 226.222 151.317 223.35 160.713C218.793 158.954 213.818 158.652 209.007 159.941C205.834 160.793 202.95 162.284 200.462 164.28C205.023 154.119 207.579 142.871 207.579 131.028C207.579 119.188 205.023 107.94 200.462 97.7755C202.95 99.7743 205.834 101.266 209.007 102.115C211.011 102.654 213.045 102.918 215.065 102.918C217.893 102.918 220.695 102.387 223.356 101.359C226.222 110.75 227.772 120.711 227.772 131.028ZM226.659 162.266C226.195 161.999 225.717 161.769 225.24 161.537C228.215 151.885 229.819 141.641 229.819 131.028C229.819 120.423 228.215 110.187 225.248 100.543C225.723 100.308 226.195 100.06 226.659 99.7903C234.526 95.2484 238.729 86.7732 238.241 78.2687C238.532 78.8878 238.83 79.4989 239.111 80.1206L240.976 79.28C240.413 78.0258 239.826 76.785 239.223 75.5548L238.019 76.1472C237.811 74.7729 237.48 73.4066 237.019 72.067L237.349 71.8883C236.704 70.6767 236.039 69.4759 235.356 68.2884L235.329 68.3018C235.276 68.2057 235.228 68.1096 235.172 68.0136C234.532 66.9061 233.792 65.8787 232.997 64.9047L233.245 64.7526C232.527 63.5972 231.78 62.431 231.017 61.2862L230.064 61.9187C227.476 59.7198 224.426 58.0813 221.047 57.1767C215.043 55.5703 208.778 56.3948 203.395 59.4983C202.912 59.7785 202.448 60.0774 201.992 60.3869C188.075 45.4299 169.812 34.5744 149.232 29.8564C149.267 29.3281 149.291 28.797 149.291 28.2633C149.291 19.201 144.079 11.3369 136.498 7.49959C137.136 7.55296 137.776 7.59566 138.411 7.65703L138.612 5.62094C137.248 5.48485 135.876 5.3728 134.502 5.2794L134.414 6.57095C133.12 6.0666 131.767 5.67702 130.371 5.41283L130.382 5.07391C129.029 5.02589 127.641 5.00186 126.256 4.99919V5.00453C126.182 5.00453 126.107 4.99919 126.03 4.99919C124.703 4.99919 123.406 5.11661 122.141 5.33009L122.131 5.05789C120.754 5.10059 119.38 5.16463 118.011 5.25002L118.083 6.40016C109.156 9.65309 102.768 18.2243 102.768 28.2633C102.768 28.797 102.792 29.3281 102.827 29.8564C82.2419 34.5744 63.9732 45.4352 50.0542 60.3976C49.5979 60.0881 49.1442 59.7785 48.6612 59.4983C43.2815 56.3922 37.0105 55.5703 31.009 57.1767C28.5807 57.8278 26.3231 58.8632 24.2764 60.2028C24.6473 59.6691 25.0102 59.1301 25.3918 58.6017L23.7293 57.4062C22.9261 58.5217 22.1388 59.6504 21.3703 60.7952L22.4564 61.5264C21.365 62.4043 20.3456 63.3757 19.4249 64.4484L19.1208 64.2589C18.4003 65.4091 17.6824 66.5992 16.986 67.7974L17.0153 67.8134C16.9726 67.8828 16.9245 67.9442 16.8845 68.0136C16.2227 69.161 15.6757 70.3405 15.23 71.5413L14.9712 71.4026C14.3174 72.6167 13.685 73.8389 13.0712 75.0744L14.1226 75.5975C12.4788 84.9533 16.7084 94.7734 25.3998 99.7903C25.8641 100.06 26.3365 100.311 26.8115 100.543C23.8414 110.187 22.2402 120.423 22.2402 131.028C22.2402 141.641 23.844 151.885 26.8167 161.537C26.3417 161.769 25.8641 161.999 25.3998 162.266C17.533 166.807 13.3274 175.283 13.8184 183.787C13.5489 183.213 13.2633 182.637 13.0098 182.074L11.1445 182.915C11.6969 184.142 12.2893 185.394 12.9004 186.637L14.0639 186.066C14.2801 187.435 14.6216 188.796 15.0913 190.133L14.7791 190.301C15.4275 191.513 16.092 192.711 16.7778 193.901L16.7992 193.888C16.8285 193.938 16.8552 193.992 16.8845 194.042C17.5516 195.198 18.3228 196.265 19.1554 197.271L18.8939 197.431C19.6198 198.6 20.3643 199.756 21.1248 200.895L22.1095 200.239C24.6739 202.387 27.6814 203.991 31.009 204.882C33.0157 205.418 35.0491 205.685 37.0692 205.685C41.0987 205.685 45.0774 204.626 48.6612 202.558C49.1442 202.28 49.5979 201.968 50.0569 201.661C63.9732 216.621 82.2419 227.481 102.827 232.202C102.792 232.728 102.768 233.259 102.768 233.795C102.768 242.857 107.98 250.722 115.561 254.559C114.974 254.508 114.382 254.471 113.794 254.415L113.594 256.451C114.961 256.584 116.33 256.696 117.707 256.787L117.789 255.544C119.086 256.037 120.442 256.416 121.837 256.67L121.827 256.987C123.198 257.033 124.573 257.057 125.952 257.057V257.054C125.979 257.054 126.003 257.057 126.03 257.057C127.407 257.057 128.757 256.929 130.07 256.699L130.078 256.993C131.457 256.95 132.832 256.886 134.198 256.798L134.123 255.602C142.972 252.307 149.291 243.775 149.291 233.795C149.291 233.259 149.267 232.728 149.232 232.202C169.817 227.481 188.083 216.621 202.002 201.661C202.459 201.968 202.915 202.28 203.395 202.558C206.982 204.628 210.958 205.685 214.99 205.685C217.01 205.685 219.043 205.418 221.047 204.882C223.478 204.231 225.736 203.195 227.78 201.856C227.439 202.347 227.105 202.846 226.755 203.334L228.418 204.527C229.221 203.409 230.006 202.277 230.774 201.135L229.723 200.431C230.806 199.545 231.815 198.565 232.73 197.49L233.016 197.669C233.747 196.503 234.462 195.31 235.148 194.128L235.126 194.114C235.143 194.09 235.159 194.069 235.172 194.042C235.86 192.849 236.426 191.619 236.882 190.368L237.16 190.517C237.811 189.308 238.449 188.07 239.055 186.843L237.96 186.304C239.53 176.993 235.303 167.256 226.659 162.266Z" fill="#2EE580"/>
<path d="M170.34 150.504L172.213 151.326C172.771 150.056 173.283 148.746 173.734 147.435L171.8 146.768C171.367 148.028 170.876 149.285 170.34 150.504Z" fill="#2EE580"/>
<path d="M172.941 142.93L174.927 143.432C175.266 142.084 175.554 140.71 175.781 139.343L173.761 139.007C173.542 140.317 173.267 141.638 172.941 142.93Z" fill="#2EE580"/>
<path d="M174.413 131.026C174.413 132.366 174.359 133.714 174.25 135.032L176.291 135.197C176.403 133.826 176.459 132.422 176.459 131.026H174.413Z" fill="#2EE580"/>
<path d="M172.424 111.222C171.88 109.949 171.274 108.682 170.626 107.454L168.816 108.415C169.438 109.592 170.02 110.806 170.54 112.025L172.424 111.222Z" fill="#2EE580"/>
<path d="M121.901 179.244C120.577 179.132 119.24 178.962 117.928 178.74L117.586 180.76C118.958 180.99 120.351 181.166 121.73 181.283L121.901 179.244Z" fill="#2EE580"/>
<path d="M77.6445 130.771C77.6525 129.435 77.7138 128.087 77.8286 126.769L75.7898 126.593C75.6697 127.964 75.6057 129.368 75.5977 130.761L77.6445 130.771Z" fill="#2EE580"/>
<path d="M91.7232 168.002L93.1162 166.5C92.1421 165.595 91.1921 164.64 90.2955 163.658L88.7852 165.035C89.7191 166.059 90.7092 167.057 91.7232 168.002Z" fill="#2EE580"/>
<path d="M173.063 119.623L175.054 119.14C174.726 117.787 174.339 116.437 173.904 115.127L171.961 115.772C172.377 117.027 172.748 118.323 173.063 119.623Z" fill="#2EE580"/>
<path d="M99.4135 171.446C98.3061 170.715 97.212 169.925 96.1633 169.101L94.8984 170.713C95.9925 171.569 97.132 172.391 98.2874 173.154L99.4135 171.446Z" fill="#2EE580"/>
<path d="M114.007 177.91C112.718 177.579 111.427 177.192 110.172 176.757L109.5 178.689C110.81 179.143 112.155 179.548 113.5 179.893L114.007 177.91Z" fill="#2EE580"/>
<path d="M106.441 175.288C105.232 174.751 104.021 174.153 102.847 173.513L101.867 175.309C103.089 175.976 104.352 176.598 105.611 177.158L106.441 175.288Z" fill="#2EE580"/>
<path d="M174.295 127.529L176.336 127.383C176.237 125.998 176.077 124.602 175.867 123.236L173.844 123.548C174.047 124.861 174.199 126.2 174.295 127.529Z" fill="#2EE580"/>
<path d="M130.406 82.8395C131.735 82.9596 133.072 83.1357 134.38 83.3652L134.732 81.3478C133.366 81.1103 131.973 80.9262 130.59 80.8008L130.406 82.8395Z" fill="#2EE580"/>
<path d="M87.7184 160.59C86.9019 159.534 86.1226 158.434 85.4021 157.324L83.6836 158.437C84.4361 159.595 85.2474 160.74 86.0959 161.842L87.7184 160.59Z" fill="#2EE580"/>
<path d="M141.648 176.838L142.307 178.775C143.623 178.327 144.931 177.82 146.198 177.265L145.379 175.392C144.162 175.92 142.908 176.408 141.648 176.838Z" fill="#2EE580"/>
<path d="M155.684 169.264L156.938 170.881C158.029 170.038 159.102 169.13 160.129 168.186L158.744 166.681C157.76 167.585 156.73 168.452 155.684 169.264Z" fill="#2EE580"/>
<path d="M161.586 163.854L163.088 165.244C164.03 164.225 164.94 163.155 165.794 162.061L164.18 160.801C163.363 161.85 162.488 162.877 161.586 163.854Z" fill="#2EE580"/>
<path d="M103.301 88.302L102.338 86.4954C101.116 87.1465 99.9044 87.8563 98.7383 88.6089L99.8484 90.3301C100.967 89.6096 102.127 88.9264 103.301 88.302Z" fill="#2EE580"/>
<path d="M96.5734 92.6392L95.3272 91.0167C94.2278 91.8626 93.1497 92.7646 92.125 93.6933L93.5019 95.209C94.4839 94.315 95.5193 93.4504 96.5734 92.6392Z" fill="#2EE580"/>
<path d="M90.646 98.025L89.1489 96.6294C88.2016 97.6434 87.2863 98.7082 86.4297 99.7969L88.0335 101.064C88.858 100.021 89.7387 98.999 90.646 98.025Z" fill="#2EE580"/>
<path d="M79.0544 142.688L77.0664 143.179C77.4026 144.532 77.7976 145.879 78.2379 147.189L80.1779 146.533C79.7536 145.279 79.3747 143.985 79.0544 142.688Z" fill="#2EE580"/>
<path d="M79.1757 118.881L77.1956 118.369C76.8487 119.709 76.5525 121.083 76.3203 122.452L78.3351 122.799C78.5619 121.486 78.8448 120.168 79.1757 118.881Z" fill="#2EE580"/>
<path d="M77.7836 134.782L75.7422 134.94C75.8489 136.325 76.0144 137.72 76.2332 139.084L78.2559 138.761C78.0451 137.451 77.885 136.111 77.7836 134.782Z" fill="#2EE580"/>
<path d="M81.8244 111.327L79.9538 110.495C79.3881 111.76 78.8704 113.067 78.4141 114.378L80.3434 115.053C80.7837 113.796 81.2827 112.542 81.8244 111.327Z" fill="#2EE580"/>
<path d="M138.297 84.2094C139.575 84.5429 140.864 84.9379 142.129 85.3809L142.807 83.4515C141.488 82.9872 140.146 82.5763 138.815 82.2267L138.297 84.2094Z" fill="#2EE580"/>
<path d="M152.852 90.7536C153.959 91.4901 155.048 92.2853 156.091 93.1152L157.364 91.5115C156.278 90.6495 155.141 89.8196 153.988 89.0511L152.852 90.7536Z" fill="#2EE580"/>
<path d="M110.649 85.1419L110 83.2019C108.682 83.6449 107.372 84.1439 106.102 84.6909L106.91 86.5723C108.127 86.0466 109.387 85.5662 110.649 85.1419Z" fill="#2EE580"/>
<path d="M145.844 86.8806C147.058 87.4249 148.264 88.0307 149.428 88.6738L150.42 86.8832C149.206 86.2108 147.949 85.581 146.684 85.0126L145.844 86.8806Z" fill="#2EE580"/>
<path d="M164.492 101.672C165.303 102.731 166.077 103.836 166.792 104.951L168.514 103.849C167.769 102.683 166.963 101.533 166.117 100.428L164.492 101.672Z" fill="#2EE580"/>
<path d="M160.523 94.2434L159.125 95.7377C160.094 96.645 161.038 97.6084 161.93 98.5957L163.451 97.2214C162.519 96.194 161.535 95.1907 160.523 94.2434Z" fill="#2EE580"/>
<path d="M118.425 83.2394L118.105 81.2193C116.726 81.4382 115.349 81.7157 114.012 82.0412L114.497 84.0293C115.778 83.7171 117.102 83.4502 118.425 83.2394Z" fill="#2EE580"/>
<path d="M133.883 178.779L134.214 180.799C135.588 180.575 136.965 180.292 138.305 179.956L137.808 177.97C136.522 178.29 135.204 178.563 133.883 178.779Z" fill="#2EE580"/>
<path d="M148.98 173.634L149.954 175.436C151.174 174.776 152.38 174.059 153.541 173.301L152.423 171.588C151.307 172.313 150.149 173.002 148.98 173.634Z" fill="#2EE580"/>
<path d="M79.7383 151.081C80.288 152.346 80.9018 153.61 81.5582 154.838L83.3621 153.869C82.7297 152.692 82.1426 151.481 81.6169 150.267L79.7383 151.081Z" fill="#2EE580"/>
<g filter="url(#filter0_d_1352_6238)">
<circle cx="126.059" cy="28.0566" r="23.5" stroke="#2EE580" shape-rendering="crispEdges"/>
</g>
<g style="mix-blend-mode:darken">
<circle cx="37.4967" cy="79.9266" r="23.7378" transform="rotate(-60 37.4967 79.9266)" fill="#0B5C30"/>
</g>
<g style="mix-blend-mode:darken">
<path d="M149.559 234.057C149.559 247.311 138.761 258.057 126.059 258.057C113.356 258.057 102.559 247.311 102.559 234.057C102.559 220.802 113.356 210.057 126.059 210.057C138.761 210.057 149.559 220.802 149.559 234.057Z" fill="#0B5C30"/>
</g>
<g filter="url(#filter1_d_1352_6238)">
<circle cx="215.258" cy="182.556" r="23.5" transform="rotate(-60 215.258 182.556)" stroke="#2EE580" shape-rendering="crispEdges"/>
</g>
<g filter="url(#filter2_d_1352_6238)">
<circle cx="37.9097" cy="182.86" r="22.4513" transform="rotate(-120 37.9097 182.86)" stroke="#2EE580" shape-rendering="crispEdges"/>
</g>
<g style="mix-blend-mode:darken">
<circle cx="215.021" cy="79.7264" r="23.5787" transform="rotate(-120 215.021 79.7264)" fill="#0B5C30"/>
</g>
<g style="mix-blend-mode:darken">
<path d="M125.014 132.81L126.058 131.057L127.058 132.81V212.057H124.559L125.014 132.81Z" fill="#0B5C30"/>
</g>
<g style="mix-blend-mode:darken">
<path d="M128.061 131.058L126.019 131.03L127.038 129.287L195.56 89.5593L196.561 91.5571L128.061 131.058Z" fill="#0B5C30"/>
</g>
<g style="mix-blend-mode:darken">
<path d="M125.062 129.273L126.059 131.055L124.04 131.044L55.0586 91.5566L56.6605 89.2559L125.062 129.273Z" fill="#0B5C30"/>
</g>
<defs>
<filter id="filter0_d_1352_6238" x="98.0586" y="0.0566406" width="56" height="56" filterUnits="userSpaceOnUse" color-interpolation-filters="sRGB">
<feFlood flood-opacity="0" result="BackgroundImageFix"/>
<feColorMatrix in="SourceAlpha" type="matrix" values="0 0 0 0 0 0 0 0 0 0 0 0 0 0 0 0 0 0 127 0" result="hardAlpha"/>
<feOffset/>
<feGaussianBlur stdDeviation="2"/>
<feComposite in2="hardAlpha" operator="out"/>
<feColorMatrix type="matrix" values="0 0 0 0 0.180392 0 0 0 0 0.898039 0 0 0 0 0.501961 0 0 0 1 0"/>
<feBlend mode="normal" in2="BackgroundImageFix" result="effect1_dropShadow_1352_6238"/>
<feBlend mode="normal" in="SourceGraphic" in2="effect1_dropShadow_1352_6238" result="shape"/>
</filter>
<filter id="filter1_d_1352_6238" x="187.254" y="154.552" width="56.0078" height="56.0078" filterUnits="userSpaceOnUse" color-interpolation-filters="sRGB">
<feFlood flood-opacity="0" result="BackgroundImageFix"/>
<feColorMatrix in="SourceAlpha" type="matrix" values="0 0 0 0 0 0 0 0 0 0 0 0 0 0 0 0 0 0 127 0" result="hardAlpha"/>
<feOffset/>
<feGaussianBlur stdDeviation="2"/>
<feComposite in2="hardAlpha" operator="out"/>
<feColorMatrix type="matrix" values="0 0 0 0 0.180392 0 0 0 0 0.898039 0 0 0 0 0.501961 0 0 0 1 0"/>
<feBlend mode="normal" in2="BackgroundImageFix" result="effect1_dropShadow_1352_6238"/>
<feBlend mode="normal" in="SourceGraphic" in2="effect1_dropShadow_1352_6238" result="shape"/>
</filter>
<filter id="filter2_d_1352_6238" x="10.9531" y="155.904" width="53.9102" height="53.9102" filterUnits="userSpaceOnUse" color-interpolation-filters="sRGB">
<feFlood flood-opacity="0" result="BackgroundImageFix"/>
<feColorMatrix in="SourceAlpha" type="matrix" values="0 0 0 0 0 0 0 0 0 0 0 0 0 0 0 0 0 0 127 0" result="hardAlpha"/>
<feOffset/>
<feGaussianBlur stdDeviation="2"/>
<feComposite in2="hardAlpha" operator="out"/>
<feColorMatrix type="matrix" values="0 0 0 0 0.180392 0 0 0 0 0.898039 0 0 0 0 0.501961 0 0 0 1 0"/>
<feBlend mode="normal" in2="BackgroundImageFix" result="effect1_dropShadow_1352_6238"/>
<feBlend mode="normal" in="SourceGraphic" in2="effect1_dropShadow_1352_6238" result="shape"/>
</filter>
</defs>
</svg>
