<svg width="283" height="244" viewBox="0 0 283 244" fill="none" xmlns="http://www.w3.org/2000/svg">
<g style="mix-blend-mode:screen">
<path d="M182.5 120.5L211.5 45.5L240 120.5H182.5Z" fill="url(#paint0_linear_1352_5750)"/>
</g>
<g style="mix-blend-mode:screen">
<path d="M44 120.5L73 45.5L101.5 120.5H44Z" fill="url(#paint1_linear_1352_5750)"/>
</g>
<path fill-rule="evenodd" clip-rule="evenodd" d="M3 2H141.794C218.117 2 280.518 2.13991 280.518 2.34978C280.518 2.55965 277.51 7.94631 273.732 14.3823C270.024 20.8183 263.798 31.6616 259.881 38.3774C255.963 45.0933 248.058 58.7348 242.322 68.5987C236.585 78.5326 231.898 86.5776 231.828 86.4377C231.758 86.3677 228.19 77.0635 216.158 45.3731L218.606 42.5748C220.006 41.0358 221.265 38.7272 221.475 37.468C221.754 36.2088 221.614 34.1101 221.195 32.7809C220.775 31.4517 219.306 29.2831 217.977 28.0239C215.808 26.0651 214.969 25.7853 211.821 25.7853C209.512 25.7853 207.343 26.2749 206.014 27.0445C204.895 27.744 203.356 29.493 201.467 33.4805L155.156 33.1307L148.79 22.0776C145.222 15.9913 142.214 11.0244 142.004 11.0244C141.864 11.0244 140.465 13.1931 139.066 15.7815C137.597 18.3699 134.728 23.3368 128.992 33.1307L82.8905 33.4805L81.7012 31.032C81.0017 29.7028 79.4626 27.9539 78.2034 27.1844C76.8043 26.3449 74.7056 25.7853 72.7468 25.7853C70.8579 25.7853 68.7592 26.3449 67.3601 27.1844C66.1009 27.9539 64.6318 29.423 64.1421 30.4723C63.5824 31.5217 62.9528 33.2706 62.673 34.32C62.3232 35.5792 62.6031 37.1882 63.3026 38.8671C63.9322 40.3362 65.2614 42.295 67.9897 45.0233L64.7018 53.7679C62.9528 58.5949 59.5949 67.5494 57.2164 73.7055C54.9078 79.8617 52.8091 85.3883 52.5293 85.948C52.1795 86.6475 49.3812 82.3802 43.365 71.9566C38.6079 63.7018 27.5548 44.5336 18.8802 29.423L3 2ZM142.354 19.5591C142.703 19.4892 144.942 23.1969 147.39 27.744C149.839 32.2213 151.798 36.3487 151.798 36.8384C151.798 37.468 149.349 37.6779 142.004 37.6779C135.918 37.6779 132.21 37.3981 132.21 36.9783C132.21 36.6285 134.309 32.5011 136.967 27.9539C139.555 23.3368 141.934 19.5591 142.354 19.5591ZM72.6068 29.9827C74.3324 30.0293 75.7316 30.5656 76.8043 31.5917C77.8536 32.641 78.4133 33.9702 78.4133 35.5792C78.4133 37.1182 77.8536 38.5873 75.545 40.8259L74.8455 38.9371C74.4257 37.6779 73.6562 36.9783 72.7468 36.9783C71.9772 36.9783 70.9979 37.7478 70.5082 38.7972C70.0185 39.7066 69.3889 40.5461 69.109 40.5461C68.7592 40.4761 68.0597 39.4968 67.4301 38.2375C66.8005 36.9783 66.5206 35.2294 66.7305 34.3899C66.9404 33.4805 67.7798 32.1513 68.5494 31.3818C69.4588 30.4724 70.8579 29.9827 72.6068 29.9827ZM211.261 29.9827C212.38 29.9827 213.919 30.2625 214.619 30.6123C215.248 30.962 216.228 32.1513 216.787 33.2007C217.557 34.9496 217.557 35.5792 216.787 37.538C216.228 38.7972 215.528 39.9864 215.109 40.1264C214.759 40.2663 213.989 39.6367 213.569 38.7272C213.08 37.7478 212.1 36.9783 211.471 36.9783C210.771 36.9783 209.792 37.8178 208.323 40.8259L206.994 39.077C206.224 38.1676 205.664 36.4886 205.664 35.3693C205.734 34.32 206.504 32.641 207.413 31.7316C208.463 30.6123 209.932 29.9827 211.261 29.9827ZM82.6806 37.6779H104.297C123.186 37.6779 125.844 37.8178 125.564 38.7272C125.354 39.3568 125.074 40.2663 124.864 40.8259C124.585 41.7354 125.704 41.8753 139.905 41.8753V87.6969C139.905 128.971 139.765 133.798 138.786 135.827C138.086 137.086 133.119 145.831 127.663 155.205C122.206 164.649 117.239 173.254 115.42 176.192H128.712L126.613 180.389L116.68 180.459C109.334 180.459 106.466 180.25 105.906 179.55C105.417 179.06 101.709 172.904 90.2359 153.106L94.6432 149.049C97.0217 146.81 99.9599 143.452 101.219 141.494C102.478 139.605 103.947 136.667 104.577 134.918C105.207 133.239 105.976 129.881 107.026 123.375L77.0841 45.0233L78.9729 43.5542C79.9523 42.7847 81.2115 41.1058 81.7712 39.9165L82.6806 37.6779ZM201.117 37.6079L202.167 39.8465C202.726 41.1058 203.985 42.7148 206.784 45.0233L197.479 69.5081C192.373 82.9398 185.657 100.569 176.982 123.375L177.682 127.712C178.032 130.161 179.081 133.938 179.92 136.107C180.76 138.346 182.579 141.563 183.978 143.312C185.377 145.061 188.105 147.86 193.772 152.757L190.204 159.053C188.175 162.481 185.097 167.867 183.418 170.945C181.669 174.023 179.641 177.381 177.682 180.389H158.094L155.296 176.192H168.587L167.608 174.583C167.118 173.744 161.592 164.229 144.103 133.868V41.8753H151.798C156.835 41.8753 159.423 41.5955 159.353 41.1058C159.283 40.686 159.003 39.7766 158.654 39.0071C158.024 37.6779 158.514 37.6779 201.117 37.6079ZM72.8167 46.0727C73.2365 46.0727 79.7424 62.6524 87.2977 82.8699C94.8531 103.087 101.149 119.947 101.219 120.297C101.359 120.646 89.4664 120.926 72.7468 120.926C56.9366 120.926 44.0645 120.786 44.0645 120.576C44.0645 120.367 46.7229 113.021 50.0808 104.277C53.3688 95.532 59.525 79.2321 63.7923 68.109C68.0597 56.916 71.6275 47.4019 71.8373 46.9122C71.9772 46.4225 72.4669 46.0727 72.8167 46.0727ZM211.681 46.1426C211.751 46.2825 218.187 63.0022 225.882 83.2896C233.577 103.577 239.943 120.367 239.943 120.576C239.943 120.786 227.001 120.926 182.579 120.926L184.677 115.12C185.867 111.972 191.883 96.1616 198.039 80.0016C204.195 63.8417 209.792 49.5705 210.351 48.2413C210.981 46.9122 211.611 46.0027 211.681 46.1426ZM42.5955 125.124H67.4301C89.0467 125.124 92.5 125 92.5 125L102.478 125.124L101.919 128.412C101.639 130.231 100.52 133.658 99.4002 135.967C98.2809 138.276 95.7625 141.773 93.8037 143.802C91.4252 146.251 88.3471 148.419 84.7793 150.098C79.6725 152.617 79.0429 152.757 72.7468 152.687C67.4301 152.617 65.1914 152.267 61.9035 150.938C59.5949 150.028 56.167 148.139 54.3482 146.67C52.5293 145.201 49.9409 142.473 48.6117 140.654C47.2825 138.835 45.5336 135.757 44.8341 133.868C44.1345 131.909 43.295 129.181 43.0152 127.712L42.5955 125.124ZM181.739 125.124H231.268H241.412L240.923 127.782C240.643 129.181 240.013 131.63 239.453 133.169C238.964 134.708 237.495 137.506 236.305 139.465C235.046 141.354 232.598 144.082 230.919 145.621C229.17 147.09 226.162 149.119 224.273 150.028C222.314 150.938 218.676 152.057 216.228 152.547C212.8 153.106 210.491 153.106 207.133 152.547C204.615 152.127 200.558 150.798 198.179 149.609C195.8 148.489 192.303 146.041 190.414 144.222C188.595 142.403 186.077 138.835 184.817 136.317C183.558 133.868 182.369 130.3 182.089 128.482L181.739 125.124ZM142.144 176.096H150L152.148 180.389H142.004H132.28L134.5 176.096H142.144Z" stroke="#2EE580" stroke-width="0.8"/>
<path d="M142.5 243L108 184L177 184L142.5 243Z" stroke="#2EE580" stroke-width="0.8"/>
<circle cx="280.5" cy="2.5" r="2.5" fill="#2EE580"/>
<circle cx="2.5" cy="2.5" r="2.5" transform="matrix(-1 0 0 1 6 0)" fill="#2EE580"/>
<circle cx="211.5" cy="46.5" r="2.5" fill="#2EE580"/>
<circle cx="2.5" cy="2.5" r="2.5" transform="matrix(-1 0 0 1 75 44)" fill="#2EE580"/>
<circle cx="159.5" cy="41.5" r="1.5" fill="#2EE580"/>
<circle cx="1.5" cy="1.5" r="1.5" transform="matrix(-1 0 0 1 126 40)" fill="#2EE580"/>
<circle cx="142.5" cy="19.5" r="1.5" fill="#2EE580"/>
<circle cx="152.5" cy="36.5" r="1.5" fill="#2EE580"/>
<circle cx="1.5" cy="1.5" r="1.5" transform="matrix(-1 0 0 1 133 35)" fill="#2EE580"/>
<circle cx="155.5" cy="32.5" r="1.5" fill="#2EE580"/>
<circle cx="1.5" cy="1.5" r="1.5" transform="matrix(-1 0 0 1 130 31)" fill="#2EE580"/>
<circle cx="201.5" cy="33.5" r="1.5" fill="#2EE580"/>
<circle cx="1.5" cy="1.5" r="1.5" transform="matrix(-1 0 0 1 84 32)" fill="#2EE580"/>
<circle cx="201.5" cy="37.5" r="1.5" fill="#2EE580"/>
<circle cx="1.5" cy="1.5" r="1.5" transform="matrix(-1 0 0 1 84 36)" fill="#2EE580"/>
<circle cx="215.5" cy="40.5" r="1.5" fill="#2EE580"/>
<circle cx="1.5" cy="1.5" r="1.5" transform="matrix(-1 0 0 1 70 39)" fill="#2EE580"/>
<circle cx="207.5" cy="40.5" r="1.5" fill="#2EE580"/>
<circle cx="1.5" cy="1.5" r="1.5" transform="matrix(-1 0 0 1 78 39)" fill="#2EE580"/>
<circle cx="211.5" cy="36.5" r="1.5" fill="#2EE580"/>
<circle cx="1.5" cy="1.5" r="1.5" transform="matrix(-1 0 0 1 74 35)" fill="#2EE580"/>
<circle cx="142.5" cy="10.5" r="1.5" fill="#2EE580"/>
<circle cx="182.5" cy="120.5" r="1.5" fill="#2EE580"/>
<circle cx="1.5" cy="1.5" r="1.5" transform="matrix(-1 0 0 1 103 119)" fill="#2EE580"/>
<circle cx="181.5" cy="125.5" r="1.5" fill="#2EE580"/>
<circle cx="1.5" cy="1.5" r="1.5" transform="matrix(-1 0 0 1 104 124)" fill="#2EE580"/>
<circle cx="177.5" cy="180.5" r="1.5" fill="#2EE580"/>
<circle cx="1.5" cy="1.5" r="1.5" transform="matrix(-1 0 0 1 108 179)" fill="#2EE580"/>
<circle cx="176.5" cy="184.5" r="1.5" fill="#2EE580"/>
<circle cx="1.5" cy="1.5" r="1.5" transform="matrix(-1 0 0 1 109 183)" fill="#2EE580"/>
<circle cx="142.5" cy="242.5" r="1.5" fill="#2EE580"/>
<circle cx="157.5" cy="180.5" r="1.5" fill="#2EE580"/>
<circle cx="1.5" cy="1.5" r="1.5" transform="matrix(-1 0 0 1 128 179)" fill="#2EE580"/>
<circle cx="193.5" cy="152.5" r="1.5" fill="#2EE580"/>
<circle cx="1.5" cy="1.5" r="1.5" transform="matrix(-1 0 0 1 92 151)" fill="#2EE580"/>
<circle cx="168.5" cy="175.5" r="1.5" fill="#2EE580"/>
<circle cx="1.5" cy="1.5" r="1.5" transform="matrix(-1 0 0 1 117 174)" fill="#2EE580"/>
<circle cx="155.5" cy="175.5" r="1.5" fill="#2EE580"/>
<circle cx="1.5" cy="1.5" r="1.5" transform="matrix(-1 0 0 1 130 174)" fill="#2EE580"/>
<circle cx="133.5" cy="175.5" r="1.5" fill="#2EE580"/>
<circle cx="132.5" cy="180.5" r="1.5" fill="#2EE580"/>
<circle cx="150.5" cy="175.5" r="1.5" fill="#2EE580"/>
<circle cx="152.5" cy="180.5" r="1.5" fill="#2EE580"/>
<circle cx="144.5" cy="134.5" r="1.5" fill="#2EE580"/>
<circle cx="1.5" cy="1.5" r="1.5" transform="matrix(-1 0 0 1 141 133)" fill="#2EE580"/>
<circle cx="239.5" cy="120.5" r="1.5" fill="#2EE580"/>
<circle cx="1.5" cy="1.5" r="1.5" transform="matrix(-1 0 0 1 46 119)" fill="#2EE580"/>
<circle cx="241.5" cy="125.5" r="1.5" fill="#2EE580"/>
<circle cx="1.5" cy="1.5" r="1.5" transform="matrix(-1 0 0 1 44 124)" fill="#2EE580"/>
<circle cx="232.5" cy="85.5" r="2.5" fill="#2EE580"/>
<circle cx="2.5" cy="2.5" r="2.5" transform="matrix(-1 0 0 1 54 83)" fill="#2EE580"/>
<path d="M142.5 243L108 184L177 184L142.5 243Z" fill="url(#paint2_linear_1352_5750)" fill-opacity="0.5" stroke="#2EE580"/>
<defs>
<linearGradient id="paint0_linear_1352_5750" x1="211.25" y1="46.5" x2="211.25" y2="120.5" gradientUnits="userSpaceOnUse">
<stop stop-color="#146136"/>
<stop offset="1" stop-color="#09562B" stop-opacity="0"/>
</linearGradient>
<linearGradient id="paint1_linear_1352_5750" x1="72.75" y1="46.5" x2="72.75" y2="120.5" gradientUnits="userSpaceOnUse">
<stop stop-color="#09562B" stop-opacity="0"/>
<stop offset="1" stop-color="#146136"/>
</linearGradient>
<linearGradient id="paint2_linear_1352_5750" x1="142.5" y1="184" x2="142.5" y2="243" gradientUnits="userSpaceOnUse">
<stop stop-color="#009D46"/>
<stop offset="1" stop-color="#009D46" stop-opacity="0"/>
</linearGradient>
</defs>
</svg>
