<svg width="169" height="247" viewBox="0 0 169 247" fill="none" xmlns="http://www.w3.org/2000/svg">
<path d="M167.217 226.478L136.827 218.708L120.743 245.637L79.8711 146.494L126.344 127.334L167.217 226.478Z" fill="url(#paint0_linear_1352_6689)" fill-opacity="0.1" stroke="#2EE580"/>
<path d="M1 226.478L31.3895 218.708L47.4731 245.637L88.3461 146.494L41.8735 127.334L1 226.478Z" fill="url(#paint1_linear_1352_6689)" fill-opacity="0.1" stroke="#2EE580"/>
<path d="M167.217 226.478L136.827 218.708L120.743 245.637L79.8711 146.494L126.344 127.334L167.217 226.478Z" fill="url(#paint2_linear_1352_6689)" fill-opacity="0.1" stroke="#2EE580"/>
<path d="M1 226.478L31.3895 218.708L47.4731 245.637L88.3461 146.494L41.8735 127.334L1 226.478Z" fill="url(#paint3_linear_1352_6689)" fill-opacity="0.1" stroke="#2EE580"/>
<path d="M160.974 89.2278C162.476 91.5364 163.192 94.1219 163.192 96.6787C163.192 101.296 160.855 105.812 156.601 108.388C152.476 110.888 150.009 115.344 150.009 120.084C150.009 120.665 150.046 121.251 150.122 121.839C150.2 122.435 150.236 123.028 150.236 123.613C150.236 130.55 144.962 136.523 137.868 137.203C135.174 137.464 132.681 138.506 130.651 140.126C128.619 141.744 127.049 143.942 126.198 146.513C124.289 152.269 118.937 155.886 113.216 155.886C111.648 155.886 110.051 155.614 108.49 155.04C106.949 154.472 105.348 154.196 103.764 154.196C100.124 154.196 96.5597 155.649 93.936 158.361C91.2483 161.139 87.6797 162.527 84.1097 162.527C80.5397 162.527 76.971 161.139 74.2833 158.361C71.6597 155.649 68.0947 154.196 64.4561 154.196C62.871 154.196 61.2707 154.472 59.7294 155.04C58.1679 155.614 56.5709 155.886 55.0026 155.886C49.2819 155.886 43.9301 152.269 42.0214 146.513C41.1708 143.942 39.6008 141.744 37.5693 140.126C35.5378 138.506 33.0463 137.464 30.351 137.203C23.2574 136.523 17.9831 130.55 17.9831 123.613C17.9831 123.028 18.0202 122.435 18.0977 121.839C18.1735 121.251 18.2106 120.665 18.2106 120.084C18.2106 115.344 15.7443 110.888 11.6189 108.388C7.3638 105.812 5.02734 101.296 5.02734 96.6787C5.02734 94.1219 5.74325 91.5364 7.24584 89.2278C8.72321 86.9587 9.46271 84.361 9.46271 81.7646C9.46271 79.1669 8.72321 76.5692 7.24584 74.3001C5.74325 71.9914 5.02734 69.406 5.02734 66.8492C5.02734 62.2319 7.3638 57.7155 11.6189 55.1396C15.7443 52.6401 18.2106 48.1837 18.2106 43.4437C18.2106 42.8628 18.1735 42.2764 18.0977 41.6887C18.0202 41.0928 17.9831 40.4996 17.9831 39.9146C17.9831 32.9778 23.2574 27.0051 30.351 26.3246C33.0463 26.0641 35.5378 25.0223 37.5693 23.4037C39.6008 21.7837 41.1708 19.5855 42.0214 17.0151C43.9301 11.2592 49.2819 7.64143 55.0026 7.64143C56.5709 7.64143 58.1679 7.91415 59.7294 8.48824C61.2707 9.05551 62.871 9.33234 64.4561 9.33234C68.0947 9.33234 71.6597 7.87869 74.2833 5.16643C76.971 2.3887 80.5397 1.00052 84.1097 1.00052C87.6797 1.00052 91.2483 2.3887 93.936 5.16643C97.7024 9.0596 103.409 10.3619 108.49 8.48824C110.051 7.91415 111.648 7.64143 113.216 7.64143C118.937 7.64143 124.289 11.2592 126.198 17.0151C127.049 19.5855 128.619 21.7837 130.651 23.4037C132.681 25.0223 135.174 26.0641 137.868 26.3246C144.962 27.0051 150.236 32.9778 150.236 39.9146C150.236 40.4996 150.2 41.0928 150.122 41.6887C150.046 42.2764 150.009 42.8628 150.009 43.4437C150.009 48.1837 152.476 52.6401 156.601 55.1396C160.855 57.7155 163.192 62.2319 163.192 66.8492C163.192 69.406 162.476 71.9914 160.974 74.3001C159.496 76.5692 158.756 79.1669 158.756 81.7646C158.756 84.361 159.496 86.9587 160.974 89.2278Z" fill="url(#paint4_linear_1352_6689)" fill-opacity="0.1" stroke="#2EE580"/>
<path d="M160.974 89.2278C162.476 91.5364 163.192 94.1219 163.192 96.6787C163.192 101.296 160.855 105.812 156.601 108.388C152.476 110.888 150.009 115.344 150.009 120.084C150.009 120.665 150.046 121.251 150.122 121.839C150.2 122.435 150.236 123.028 150.236 123.613C150.236 130.55 144.962 136.523 137.868 137.203C135.174 137.464 132.681 138.506 130.651 140.126C128.619 141.744 127.049 143.942 126.198 146.513C124.289 152.269 118.937 155.886 113.216 155.886C111.648 155.886 110.051 155.614 108.49 155.04C106.949 154.472 105.348 154.196 103.764 154.196C100.124 154.196 96.5597 155.649 93.936 158.361C91.2483 161.139 87.6797 162.527 84.1097 162.527C80.5397 162.527 76.971 161.139 74.2833 158.361C71.6597 155.649 68.0947 154.196 64.4561 154.196C62.871 154.196 61.2707 154.472 59.7294 155.04C58.1679 155.614 56.5709 155.886 55.0026 155.886C49.2819 155.886 43.9301 152.269 42.0214 146.513C41.1708 143.942 39.6008 141.744 37.5693 140.126C35.5378 138.506 33.0463 137.464 30.351 137.203C23.2574 136.523 17.9831 130.55 17.9831 123.613C17.9831 123.028 18.0202 122.435 18.0977 121.839C18.1735 121.251 18.2106 120.665 18.2106 120.084C18.2106 115.344 15.7443 110.888 11.6189 108.388C7.3638 105.812 5.02734 101.296 5.02734 96.6787C5.02734 94.1219 5.74325 91.5364 7.24584 89.2278C8.72321 86.9587 9.46271 84.361 9.46271 81.7646C9.46271 79.1669 8.72321 76.5692 7.24584 74.3001C5.74325 71.9914 5.02734 69.406 5.02734 66.8492C5.02734 62.2319 7.3638 57.7155 11.6189 55.1396C15.7443 52.6401 18.2106 48.1837 18.2106 43.4437C18.2106 42.8628 18.1735 42.2764 18.0977 41.6887C18.0202 41.0928 17.9831 40.4996 17.9831 39.9146C17.9831 32.9778 23.2574 27.0051 30.351 26.3246C33.0463 26.0641 35.5378 25.0223 37.5693 23.4037C39.6008 21.7837 41.1708 19.5855 42.0214 17.0151C43.9301 11.2592 49.2819 7.64143 55.0026 7.64143C56.5709 7.64143 58.1679 7.91415 59.7294 8.48824C61.2707 9.05551 62.871 9.33234 64.4561 9.33234C68.0947 9.33234 71.6597 7.87869 74.2833 5.16643C76.971 2.3887 80.5397 1.00052 84.1097 1.00052C87.6797 1.00052 91.2483 2.3887 93.936 5.16643C97.7024 9.0596 103.409 10.3619 108.49 8.48824C110.051 7.91415 111.648 7.64143 113.216 7.64143C118.937 7.64143 124.289 11.2592 126.198 17.0151C127.049 19.5855 128.619 21.7837 130.651 23.4037C132.681 25.0223 135.174 26.0641 137.868 26.3246C144.962 27.0051 150.236 32.9778 150.236 39.9146C150.236 40.4996 150.2 41.0928 150.122 41.6887C150.046 42.2764 150.009 42.8628 150.009 43.4437C150.009 48.1837 152.476 52.6401 156.601 55.1396C160.855 57.7155 163.192 62.2319 163.192 66.8492C163.192 69.406 162.476 71.9914 160.974 74.3001C159.496 76.5692 158.756 79.1669 158.756 81.7646C158.756 84.361 159.496 86.9587 160.974 89.2278Z" fill="url(#paint5_linear_1352_6689)" stroke="#2EE580"/>
<path d="M148.034 81.7682C148.034 117.071 119.416 145.691 84.111 145.691C48.807 145.691 20.1875 117.071 20.1875 81.7682C20.1875 46.4637 48.807 17.8437 84.111 17.8437C119.416 17.8437 148.034 46.4637 148.034 81.7682Z" fill="url(#paint6_linear_1352_6689)" fill-opacity="0.1" stroke="#2EE580"/>
<path d="M148.034 81.7682C148.034 117.071 119.416 145.691 84.111 145.691C48.807 145.691 20.1875 117.071 20.1875 81.7682C20.1875 46.4637 48.807 17.8437 84.111 17.8437C119.416 17.8437 148.034 46.4637 148.034 81.7682Z" fill="url(#paint7_linear_1352_6689)" fill-opacity="0.1" stroke="#2EE580"/>
<path d="M73.7247 116.125C72.603 117.506 70.5328 117.613 69.2747 116.355L47.0862 94.1665C45.9146 92.995 45.9146 91.0954 47.0862 89.9239L54.29 82.7201C55.4615 81.5486 57.3609 81.5485 58.5325 82.72L68.0274 92.2143C69.2855 93.4722 71.3557 93.3652 72.4773 91.9842L106.94 49.5538C107.985 48.2678 109.874 48.0719 111.16 49.1164L119.068 55.5393C120.355 56.5839 120.55 58.4733 119.506 59.7594L73.7247 116.125Z" fill="url(#paint8_linear_1352_6689)" stroke="#2EE580" stroke-width="1.28535"/>
<defs>
<linearGradient id="paint0_linear_1352_6689" x1="123.544" y1="245.637" x2="123.544" y2="127.334" gradientUnits="userSpaceOnUse">
<stop stop-color="#009D46"/>
<stop offset="1" stop-color="#009D46" stop-opacity="0"/>
</linearGradient>
<linearGradient id="paint1_linear_1352_6689" x1="44.673" y1="245.637" x2="44.673" y2="127.334" gradientUnits="userSpaceOnUse">
<stop stop-color="#009D46"/>
<stop offset="1" stop-color="#009D46" stop-opacity="0"/>
</linearGradient>
<linearGradient id="paint2_linear_1352_6689" x1="123.544" y1="245.637" x2="123.544" y2="127.334" gradientUnits="userSpaceOnUse">
<stop stop-color="#009D46"/>
<stop offset="1" stop-color="#009D46" stop-opacity="0"/>
</linearGradient>
<linearGradient id="paint3_linear_1352_6689" x1="44.673" y1="245.637" x2="44.673" y2="127.334" gradientUnits="userSpaceOnUse">
<stop stop-color="#009D46"/>
<stop offset="1" stop-color="#009D46" stop-opacity="0"/>
</linearGradient>
<linearGradient id="paint4_linear_1352_6689" x1="84.1099" y1="162.527" x2="84.1099" y2="1.00052" gradientUnits="userSpaceOnUse">
<stop stop-color="#009D46"/>
<stop offset="1" stop-color="#009D46" stop-opacity="0"/>
</linearGradient>
<linearGradient id="paint5_linear_1352_6689" x1="84.1099" y1="162.527" x2="84.1099" y2="1.00052" gradientUnits="userSpaceOnUse">
<stop stop-color="#102D1C"/>
<stop offset="1" stop-color="#095F2E"/>
</linearGradient>
<linearGradient id="paint6_linear_1352_6689" x1="84.1108" y1="145.691" x2="84.1108" y2="17.8437" gradientUnits="userSpaceOnUse">
<stop stop-color="#009D46"/>
<stop offset="1" stop-color="#009D46" stop-opacity="0"/>
</linearGradient>
<linearGradient id="paint7_linear_1352_6689" x1="84.1108" y1="145.691" x2="84.1108" y2="17.8437" gradientUnits="userSpaceOnUse">
<stop stop-color="#009D46"/>
<stop offset="1" stop-color="#009D46" stop-opacity="0"/>
</linearGradient>
<linearGradient id="paint8_linear_1352_6689" x1="83.181" y1="118.707" x2="83.181" y2="47.2252" gradientUnits="userSpaceOnUse">
<stop stop-color="#009D46"/>
<stop offset="1" stop-color="#009D46" stop-opacity="0"/>
</linearGradient>
</defs>
</svg>
