<svg width="240" height="252" viewBox="0 0 240 252" fill="none" xmlns="http://www.w3.org/2000/svg">
<path d="M112.444 89.4321L2.02205 193.715C1.38237 194.32 1.01368 195.162 1.00042 196.046C0.986271 196.936 1.33197 197.785 1.9522 198.412L19.5781 216.042C20.2098 216.668 21.0582 217.016 21.9437 217.002C22.8296 216.988 23.6722 216.619 24.2765 215.973L128.5 105.502C129.707 104.215 129.68 102.197 128.428 100.945L117 89.502C115.75 88.2564 113.733 88.2215 112.444 89.4321Z" fill="url(#paint0_linear_1352_6722)" stroke="#2EE580"/>
<path d="M207.992 213.847C207.35 213.212 206.497 212.854 205.595 212.854H101.609C100.717 212.854 99.8461 213.219 99.2144 213.847C98.5805 214.483 98.2211 215.358 98.2211 216.246V227.836H86.3512V239.418H68.2656V251.002H238.935V239.418H220.855V227.836H208.985V216.246C208.985 215.344 208.634 214.49 207.992 213.847Z" fill="url(#paint1_linear_1352_6722)" stroke="#2EE580"/>
<path d="M93.6645 61.9385C92.4929 63.1101 92.4928 65.0097 93.6645 66.1813L149.812 122.326C150.984 123.498 152.883 123.497 154.055 122.326L193.29 83.0875C193.93 82.4498 194.042 81.4395 193.403 80.8007L135.19 22.5863C134.553 21.9493 133.543 22.0605 132.907 22.6993L93.6645 61.9385Z" fill="url(#paint2_linear_1352_6722)" stroke="#2EE580" stroke-width="1.28535"/>
<path d="M194.605 82.0104C194.154 82.3542 193.698 82.6787 193.285 83.0904L151.929 124.45L151.343 125.032C146.375 130 146.375 138.053 151.343 143.019C156.31 147.98 164.362 147.98 169.326 143.019L211.269 101.071C216.236 96.1048 216.236 88.0573 211.269 83.0904C206.717 78.5334 199.592 78.2085 194.605 82.0104Z" fill="url(#paint3_linear_1352_6722)" stroke="#2EE580"/>
<path d="M114.915 4.72573L72.9752 46.6693C68.0083 51.6362 68.0083 59.6895 72.9752 64.6565C77.9396 69.6171 85.9916 69.6171 90.9564 64.6565L91.5368 64.0672L132.901 22.7066C133.309 22.2967 133.637 21.8396 133.979 21.3888C137.782 16.4029 137.454 9.28315 132.901 4.72573C127.937 -0.241203 119.883 -0.241203 114.915 4.72573Z" fill="url(#paint4_linear_1352_6722)" stroke="#2EE580"/>
<defs>
<linearGradient id="paint0_linear_1352_6722" x1="65" y1="217.002" x2="65" y2="89.002" gradientUnits="userSpaceOnUse">
<stop stop-color="#102D1C"/>
<stop offset="1" stop-color="#095F2E"/>
</linearGradient>
<linearGradient id="paint1_linear_1352_6722" x1="153.601" y1="251.002" x2="153.601" y2="212.854" gradientUnits="userSpaceOnUse">
<stop stop-color="#102D1C"/>
<stop offset="1" stop-color="#095F2E"/>
</linearGradient>
<linearGradient id="paint2_linear_1352_6722" x1="143.076" y1="124.447" x2="143.076" y2="21.3814" gradientUnits="userSpaceOnUse">
<stop stop-color="#009D46"/>
<stop offset="1" stop-color="#009D46" stop-opacity="0"/>
</linearGradient>
<linearGradient id="paint3_linear_1352_6722" x1="181.306" y1="146.74" x2="181.306" y2="79.3936" gradientUnits="userSpaceOnUse">
<stop stop-color="#102D1C"/>
<stop offset="1" stop-color="#095F2E"/>
</linearGradient>
<linearGradient id="paint4_linear_1352_6722" x1="102.923" y1="68.377" x2="102.923" y2="1.00053" gradientUnits="userSpaceOnUse">
<stop stop-color="#102D1C"/>
<stop offset="1" stop-color="#095F2E"/>
</linearGradient>
</defs>
</svg>
