<svg width="477" height="500" viewBox="0 0 477 500" fill="none" xmlns="http://www.w3.org/2000/svg">
<mask id="mask0_1352_6973" style="mask-type:alpha" maskUnits="userSpaceOnUse" x="-131" y="-120" width="740" height="740">
<circle cx="239" cy="250" r="370" fill="url(#paint0_radial_1352_6973)"/>
</mask>
<g mask="url(#mask0_1352_6973)">
<path d="M507.017 0H-31V500H507.017V0Z" fill="#101210"/>
<path d="M161.901 -38.3008L131.52 -17.9502L143.031 -1.04733L169.334 8.29044L191.123 -9.7202L161.901 -38.3008Z" fill="#1C1E1C"/>
<path d="M178.812 11.6082L211.26 23.0602L223.048 -15.7829L217.262 -24.3984L178.812 11.6082Z" fill="#1C1E1C"/>
<path d="M278.473 -45.6133L260.984 -35.5179L292.233 4.15234L311.778 -9.09182L278.473 -45.6133Z" fill="#1C1E1C"/>
<path d="M228.068 -8.54864L217.641 25.3413L308.794 57.4916L317.57 41.7635L333.772 32.4087L359.619 -16.875L347.661 -28.7382L299.566 10.4831L287.864 10.355L253.786 -33.1094L230.64 -17.5497L247.357 7.39778L261.631 -5.33398L266.517 3.53897L251.344 13.3123L263.045 30.1578L257.388 32.987L228.068 -8.54864Z" fill="#1C1E1C"/>
<path d="M363.795 -12.7539L340.391 39.52L345.535 44.1498L402.631 26.9822L363.795 -12.7539Z" fill="#1C1E1C"/>
<path d="M377.36 -40.3477L368.102 -18.7442L407.838 25.6206L429.441 18.0982L377.36 -40.3477Z" fill="#1C1E1C"/>
<path d="M391.445 -66.4805L380.836 -45.5846L432.724 15.7233L449.12 12.4757L391.445 -66.4805Z" fill="#1C1E1C"/>
<path d="M397.617 -67.8924L404.176 -75.543H414.978L468.215 5.40668L451.626 10.8076L397.617 -67.8924Z" fill="#1C1E1C"/>
<path d="M514.891 -25.8672L475.156 4.15908L523.186 -10.8541L514.891 -25.8672Z" fill="#1C1E1C"/>
<path d="M431.754 59.2081L479.206 20.6297L470.14 10.793L410.922 32.2037L431.754 59.2081Z" fill="#1C1E1C"/>
<path d="M484.412 24.1055L525.69 56.1252L429.438 118.815L396.453 95.4758L484.412 24.1055Z" fill="#1C1E1C"/>
<path d="M396.453 87.5505L427.509 62.6677L403.977 32.7695L396.453 87.5505Z" fill="#1C1E1C"/>
<path d="M396.457 35.8555L388.549 90.6364L336.66 67.2969L347.849 50.5148L396.457 35.8555Z" fill="#1C1E1C"/>
<path d="M529.362 63.25L436.582 123.819L505.444 169.34L530.249 139.793L529.362 63.25Z" fill="#1C1E1C"/>
<path d="M473.149 156.547L436.531 196.368L509.494 198.097L479.403 169.356L473.149 156.547Z" fill="#1C1E1C"/>
<path d="M449.305 214.87L482.097 254.606L531.862 206.383L449.305 214.87Z" fill="#1C1E1C"/>
<path d="M421.211 324.373L530.246 216.016V277.355L454.325 340.381L421.211 324.373Z" fill="#1C1E1C"/>
<path d="M500.425 310.34L461.617 343.908L530.245 377.083V324.421L500.425 310.34Z" fill="#1C1E1C"/>
<path d="M432.423 201.496L425.203 211.384L467.446 207.232L432.423 201.496Z" fill="#1C1E1C"/>
<path d="M386.463 193.984L357.688 222.394L414.205 213.715L425.886 200.441L386.463 193.984Z" fill="#1C1E1C"/>
<path d="M332.23 185.078L294.805 208.676C294.805 208.676 300.842 216.733 301.942 219.864C302.986 222.838 303.292 232.401 303.292 232.401L346.886 224.879L381.065 193.076L332.23 185.078Z" fill="#1C1E1C"/>
<path d="M429.834 125.703L420.761 132.107C420.761 132.107 421.516 155.002 420.761 162.583C420.01 170.122 414.641 192.689 414.641 192.689L429.594 195.189L467.056 152.168L429.834 125.703Z" fill="#1C1E1C"/>
<path d="M423.659 121.306C423.659 121.306 384.635 95.7637 370.807 88.7085C359.424 82.9002 323.548 69.2266 323.548 69.2266L275.141 169.374L333.107 179.063L423.659 121.306Z" fill="#1C1E1C"/>
<path d="M324.826 183.897L271.274 175.125L267.992 181.51C267.992 181.51 278.933 189.178 282.073 192.312C284.982 195.214 292.104 205.332 292.104 205.332L324.826 183.897Z" fill="#1C1E1C"/>
<path d="M413.818 136.926L343.34 180.768L408.33 191.631C408.33 191.631 412.292 167.166 413.046 158.723C413.532 153.292 413.818 136.926 413.818 136.926Z" fill="#1C1E1C"/>
<path d="M264.14 187.293C264.14 187.293 273.238 192.717 275.907 195.008C278.808 197.501 286.13 206.388 286.13 206.388L257.785 225.651C257.785 225.651 255.001 222.61 253.964 221.716C253.017 220.9 249.93 218.811 249.93 218.811L264.14 187.293Z" fill="url(#paint1_linear_1352_6973)" stroke="#2EE580" stroke-width="1.21998"/>
<path d="M289.407 212.762L261.398 231.37C261.398 231.37 262.389 233.658 262.673 234.442C263.014 235.38 263.702 238.136 263.702 238.136L297.122 232.436C297.122 232.436 296.028 223.127 294.808 220.284C293.894 218.156 289.407 212.762 289.407 212.762Z" fill="url(#paint2_linear_1352_6973)" stroke="#2EE580" stroke-width="1.21998"/>
<path d="M295.921 263.829L263.965 248.885C263.965 248.885 264.247 246.596 264.286 245.829C264.328 245.016 264.282 242.574 264.282 242.574L297.119 238.992C297.119 238.992 297.229 246.806 297.119 249.408C296.987 252.551 295.921 263.829 295.921 263.829Z" fill="url(#paint3_linear_1352_6973)" stroke="#2EE580" stroke-width="1.21998"/>
<path d="M303.87 238.217L302.34 266.929L329.91 241.11V235.902L303.87 238.217Z" fill="#1C1E1C"/>
<path d="M308.035 269.679L332.803 245.93L380.64 268.884L365.412 297.415L308.035 269.679Z" fill="#1C1E1C"/>
<path d="M392.312 249.781L382.957 264.441L337.242 241.487L347.851 230.492H369.84L392.312 249.781Z" fill="#1C1E1C"/>
<path d="M375.047 227.41L408.417 220.66L394.914 242.456L375.047 227.41Z" fill="#1C1E1C"/>
<path d="M401.086 245.914L419.217 263.66L429.248 258.066L442.364 257.487L459.532 274.654L477.47 259.223L442.944 216.016L418.446 217.752L401.086 245.914Z" fill="#1C1E1C"/>
<path d="M454.325 279.753L440.823 264.418H430.021L414.976 280.621H402.245L387.199 274.641L372.188 300.661L413.76 320.758L454.325 279.753Z" fill="#1C1E1C"/>
<path d="M397.42 251.703L389.125 267.906L401.085 274.657H413.237L418.445 268.678L397.42 251.703Z" fill="#1C1E1C"/>
<path d="M314.254 59.4076L331.352 65.438L340.388 48.6644L333.509 40.5625L320.521 46.2208L314.254 59.4076Z" fill="#1C1E1C"/>
<path d="M258.758 46.5859L242.918 75.3959L287.669 126.127L318.158 67.3403L258.758 46.5859Z" fill="#1C1E1C"/>
<path d="M252.083 44.2644L236.94 70.5868L217.781 53.0336L216.688 31.7656L252.083 44.2644Z" fill="#1C1E1C"/>
<path d="M211.67 47.0469L188.523 70.5804L206.269 124.204L216.686 112.244L211.67 47.0469Z" fill="#1C1E1C"/>
<path d="M218.613 119.961L193.73 161.239L202.603 182.264L222.856 173.97L218.613 119.961Z" fill="#1C1E1C"/>
<path d="M226.906 127.492L229.607 173.978C229.607 173.978 244.342 172.888 249.089 173.978C252.642 174.795 262.205 180.344 262.205 180.344L264.327 173.978L226.906 127.492Z" fill="#1C1E1C"/>
<path d="M223.629 90.6445V116.685L267.994 168.187L275.902 151.116L223.629 90.6445Z" fill="#1C1E1C"/>
<path d="M220.156 63.25L221.12 81.1899L230.571 87.169L234.397 76.3673L220.156 63.25Z" fill="#1C1E1C"/>
<path d="M239.063 81.1758L235.398 90.627L279.185 144.637L284.779 131.712L239.063 81.1758Z" fill="#1C1E1C"/>
<path d="M232.438 180.355H247.997L260.085 185.884L245.18 216.522C245.18 216.522 240.489 215.132 238.879 214.909C237.183 214.674 232.031 214.738 232.031 214.738L232.438 180.355Z" fill="url(#paint4_linear_1352_6973)" stroke="#2EE580" stroke-width="1.21998"/>
<path d="M225.749 180.355L205.945 188.843L222.302 217.334C222.302 217.334 223.751 216.705 224.238 216.522C224.747 216.33 226.279 215.835 226.279 215.835L225.749 180.355Z" fill="url(#paint5_linear_1352_6973)" stroke="#2EE580" stroke-width="1.21998"/>
<path d="M183.398 207.237L200.163 190.746L217.963 219.782C217.963 219.782 216.7 220.687 216.306 221.007C215.915 221.325 214.767 222.317 214.767 222.317L183.398 207.237Z" fill="url(#paint6_linear_1352_6973)" stroke="#2EE580" stroke-width="1.21998"/>
<path d="M181.385 76.418L158.238 96.6063L189.615 153.316L202.603 129.398L181.385 76.418Z" fill="#1C1E1C"/>
<path d="M165.958 126.984L129.824 181.502L176.08 203.739L196.82 184.08L165.958 126.984Z" fill="#1C1E1C"/>
<path d="M161.966 119.948L123.574 178.471L64.6328 150.136L151.164 100.723L161.966 119.948Z" fill="#1C1E1C"/>
<path d="M156.309 89.9493L210.962 39.0259L210.68 29.8089L131.454 2.125L123.133 10.9931L156.309 89.9493Z" fill="#1C1E1C"/>
<path d="M117.213 13.8281L82.4922 33.3747L101.138 68.0943L132.902 51.1206L117.213 13.8281Z" fill="#1C1E1C"/>
<path d="M105 73.2058L122.232 111.914L148.851 95.3241L133.934 58.2891L105 73.2058Z" fill="#1C1E1C"/>
<path d="M22.4453 9.03332L39.2909 49.4112L111.818 8.39039L111.601 -4.84279L74.7644 -17.7148L22.4453 9.03332Z" fill="#1C1E1C"/>
<path d="M21.2899 4.27219L19.4453 -10.2042L41.405 -29.375L67.0064 -20.4289L21.2899 4.27219Z" fill="#1C1E1C"/>
<path d="M77.0303 35.0977L37.6797 60.7515L64.6853 145.431L117.151 114.89L77.0303 35.0977Z" fill="#1C1E1C"/>
<path d="M12.6014 -4.20703L27.85 53.2238H-53.1875L12.6014 -4.20703Z" fill="#1C1E1C"/>
<path d="M-60.7919 59.9153L-82.9492 79.1862L-43.7182 98.0471L23.4079 58.2891L-60.7919 59.9153Z" fill="#1C1E1C"/>
<path d="M-38.125 100.754L7.3719 122.636L27.8445 62.8828L-38.125 100.754Z" fill="#1C1E1C"/>
<path d="M33.2436 66.3359L12.7344 125.197L58.8974 147.391L33.2436 66.3359Z" fill="#1C1E1C"/>
<path d="M-79.572 175.112L4.53619 135.584L-92.4062 87.457L-79.572 175.112Z" fill="#1C1E1C"/>
<path d="M1.41924 152.961L-10.9258 176.494L7.39839 179.194L1.41924 152.961Z" fill="#1C1E1C"/>
<path d="M-13.2393 181.684L-39.4727 234.923L-25.1476 253.713L22.4355 246.181L8.36418 184.192L-13.2393 181.684Z" fill="#1C1E1C"/>
<path d="M8.04297 137.32L27.8433 232.23L56.7765 194.617L78.9595 216.991L97.158 181.562L8.04297 137.32Z" fill="#1C1E1C"/>
<path d="M56.7766 202.332L29 241.681V245.15L87.5605 235.88L56.7766 202.332Z" fill="#1C1E1C"/>
<path d="M103.024 184.469L92.0781 206.958L123.134 222.196L134.221 199.956L103.024 184.469Z" fill="#1C1E1C"/>
<path d="M88.9854 211.762L84.1641 222.178L94.3888 234.778L121.585 230.473L88.9854 211.762Z" fill="#1C1E1C"/>
<path d="M141.157 203.391L129.305 230.48L163.06 248.226L168.064 216.748L141.157 203.391Z" fill="#1C1E1C"/>
<path d="M173.671 276.002L164.798 254.398L134.129 280.438L144.738 295.291L173.671 276.002Z" fill="#1C1E1C"/>
<path d="M206.627 234.796C206.627 234.796 205.862 237.427 205.682 238.321C205.488 239.291 205.16 242.241 205.16 242.241L170.391 248.24L173.564 219.492L206.627 234.796Z" fill="url(#paint7_linear_1352_6973)" stroke="#2EE580" stroke-width="1.21998"/>
<path d="M173.672 253.447L181.774 273.122L207.755 256.5C207.755 256.5 206.419 253.072 206.099 251.889C205.801 250.788 205.266 247.402 205.266 247.402L173.672 253.447Z" fill="url(#paint8_linear_1352_6973)" stroke="#2EE580" stroke-width="1.21998"/>
<path d="M184.086 279.854L210.358 261.059C210.358 261.059 212.825 264.21 213.772 265.144C214.844 266.203 218.446 268.954 218.446 268.954L202.99 297.213L184.086 279.854Z" fill="url(#paint9_linear_1352_6973)" stroke="#2EE580" stroke-width="1.21998"/>
<path d="M224.549 272.027C224.549 272.027 228.511 273.202 229.868 273.423C231.297 273.655 235.645 273.802 235.645 273.802L237.542 307.12L210.512 300.299L224.549 272.027Z" fill="url(#paint10_linear_1352_6973)" stroke="#2EE580" stroke-width="1.21998"/>
<path d="M242.617 306.68L265.292 298.772L250.026 269.57C250.026 269.57 246.73 271.323 245.573 271.777C244.36 272.253 240.57 273.253 240.57 273.253L242.617 306.68Z" fill="url(#paint11_linear_1352_6973)" stroke="#2EE580" stroke-width="1.21998"/>
<path d="M271.08 295.311L290.006 276.232L259.182 260.918C259.182 260.918 257.588 263.061 257.002 263.73C256.387 264.43 254.375 266.376 254.375 266.376L271.08 295.311Z" fill="url(#paint12_linear_1352_6973)" stroke="#2EE580" stroke-width="1.21998"/>
<path d="M178.943 282.438L57.293 356.508L101.272 412.06C101.272 412.06 150.285 345.501 163.255 321.272C168.196 312.042 178.943 282.438 178.943 282.438Z" fill="#1C1E1C"/>
<path d="M184.086 291.953L201.06 304.813L130.334 447.552L105.387 414.89C105.387 414.89 146.703 360.455 158.624 341.077C165.872 329.294 184.086 291.953 184.086 291.953Z" fill="#1C1E1C"/>
<path d="M140.105 298.383L125.703 282.438L11.2539 301.727L54.7195 353.164L140.105 298.383Z" fill="#1C1E1C"/>
<path d="M48.2931 355.207L20.7739 374.753L-6.23047 333.346L15.8879 316.371L48.2931 355.207Z" fill="#1C1E1C"/>
<path d="M12.0138 312.398L-9.83249 330.036L-36.3281 309.322L6.11272 303.547L12.0138 312.398Z" fill="#1C1E1C"/>
<path d="M-8.03346 341.586L-40.8242 414.113L14.3423 377.849L-8.03346 341.586Z" fill="#1C1E1C"/>
<path d="M27.7151 377.84L-38.125 419.505L-36.6757 422.945L79.1534 443.937L98.7 417.448L75.6813 390.185L51.3768 406.902L27.7151 377.84Z" fill="#1C1E1C"/>
<path d="M52.4037 360.105L33.8867 373.48L50.8604 398.941L71.9503 384.282L52.4037 360.105Z" fill="#1C1E1C"/>
<path d="M75.677 450.879L37.4842 504.117L5.59375 472.74L19.7383 439.562L75.677 450.879Z" fill="#1C1E1C"/>
<path d="M-35.5469 430.844L0.458542 467.621L13.7661 438.295L-35.5469 430.844Z" fill="#1C1E1C"/>
<path d="M-41.8945 432.367L-21.4085 572.276L33.8873 508.752L-41.8945 432.367Z" fill="#1C1E1C"/>
<path d="M-63.361 285.776L153.222 251.116L123.131 238.191L-65.7852 269.219L-63.361 285.776Z" fill="#1C1E1C"/>
<path d="M-62.5586 291.293L-60.4407 305.753L126.922 278.627L150.905 258.277L-62.5586 291.293Z" fill="#1C1E1C"/>
<path d="M86.9258 446.106L128.149 454.615L101.143 421.438L86.9258 446.106Z" fill="#1C1E1C"/>
<path d="M81.8538 451.148L65.2656 475.838L105.387 501.557L125.447 460.407L81.8538 451.148Z" fill="#1C1E1C"/>
<path d="M101.914 506.708L83.7813 545.286L41.9883 509.023L62.1778 479.703L101.914 506.708Z" fill="#1C1E1C"/>
<path d="M127.231 466.789L99.9883 525.752L136.509 504.149L127.231 466.789Z" fill="#1C1E1C"/>
<path d="M134.711 458.852L142.941 498.202L167.117 474.541L134.711 458.852Z" fill="#1C1E1C"/>
<path d="M143.711 506.194L170.973 479.703L182.803 569.205H159.141L143.711 506.194Z" fill="#1C1E1C"/>
<path d="M344.313 483.047L310.82 525.722L326.591 541.76L351.429 522.544L344.313 483.047Z" fill="#1C1E1C"/>
<path d="M302.412 457.172L266.457 498.207L305.481 521.093L336.859 481.512L302.412 457.172Z" fill="#1C1E1C"/>
<path d="M245.235 441.297L190.258 477.399L249.941 504.038L245.235 441.297Z" fill="#1C1E1C"/>
<path d="M248.715 406.301L254.401 499.184L297.762 452.034L248.715 406.301Z" fill="#1C1E1C"/>
<path d="M326.132 430.121L306.508 452.448L341.292 477.619L326.132 430.121Z" fill="#1C1E1C"/>
<path d="M347.143 469.92L385.207 430.828L382.635 419.254L332.227 430.828L347.143 469.92Z" fill="#1C1E1C"/>
<path d="M363.327 374.172L331.582 423.887L378.261 413.857L363.327 374.172Z" fill="#1C1E1C"/>
<path d="M354.902 372.715H310.621L325.838 413.737L354.902 372.715Z" fill="#1C1E1C"/>
<path d="M304.965 374.785L283.715 402.851L313.275 431.484L321.493 419.884L304.965 374.785Z" fill="#1C1E1C"/>
<path d="M244.784 434.296L242.595 395.855L191.803 437.007L174.57 471.085L182.8 474.042L244.784 434.296Z" fill="#1C1E1C"/>
<path d="M239.415 340.043L242.279 390.326L239.895 392.008L221.344 374.244L239.415 340.043Z" fill="#1C1E1C"/>
<path d="M218.036 379.512L235.011 395.071L199.004 423.876L218.036 379.512Z" fill="#1C1E1C"/>
<path d="M204.918 306.688L231.923 314.082L207.04 363.205L184.086 350.859L204.918 306.688Z" fill="#1C1E1C"/>
<path d="M182.799 356.258L203.888 367.317L157.337 464.791L135.477 451.16L182.799 356.258Z" fill="#1C1E1C"/>
<path d="M217.948 371.18L212.469 368.344L237.985 314.852L238.889 330.717L217.948 371.18Z" fill="#1C1E1C"/>
<path d="M209.642 373.393L164.344 465.196L169.878 467.927L215.176 376.124L209.642 373.393Z" fill="#1C1E1C"/>
<path d="M235.008 520.336L245.368 508.997L177.078 478.543L180.168 497.104L235.008 520.336Z" fill="#1C1E1C"/>
<path d="M306.509 362.176L336.857 332.599L283.618 306.688L276.16 307.653L306.509 362.176Z" fill="#1C1E1C"/>
<path d="M297.763 358.832H245.81L243.059 313.89L268.958 306.688L297.763 358.832Z" fill="#1C1E1C"/>
<path d="M294.848 278.57L277.961 299.164L341.228 327.969L359.305 309.759L294.848 278.57Z" fill="#1C1E1C"/>
<path d="M343.028 334.926L312.938 364.856H360.462L370.993 349.811L343.028 334.926Z" fill="#1C1E1C"/>
<path d="M347.656 330.001L373.89 345.896L389.244 324.223L363.655 311.84L347.656 330.001Z" fill="#1C1E1C"/>
<path d="M376.867 352.965L366.855 368.644L385.204 412.055L403.416 408.035L403.166 371.189L376.867 352.965Z" fill="#1C1E1C"/>
<path d="M403.048 363.559V330.928L393.805 326.457L379.609 348.688L403.048 363.559Z" fill="#1C1E1C"/>
<path d="M391.055 427.223L402.436 415.457L386.699 417.45L391.055 427.223Z" fill="#1C1E1C"/>
<path d="M265.36 413.734L301.88 371.172L299.823 364.867H282.655L247.93 393.42L248.198 397.798L265.36 413.734Z" fill="#1C1E1C"/>
<path d="M247.579 387.468L277.96 362.164L246.008 362.047L247.579 387.468Z" fill="#1C1E1C"/>
<path d="M301.878 447.558L310.612 435.23L279.471 406.793L269.73 417.467L301.878 447.558Z" fill="#1C1E1C"/>
<path d="M349.781 474.057L357.4 517.938L403.79 482.048L403.322 422.234L349.781 474.057Z" fill="#1C1E1C"/>
<path d="M358.973 524.663L403.788 489.934V569.212H365.789L358.973 524.663Z" fill="#1C1E1C"/>
<path d="M408.867 333.727L409.508 367.864L430.986 382.477L449.14 353.213L408.867 333.727Z" fill="#1C1E1C"/>
<path d="M409.637 374.785L410.097 399.302L415.826 404.465L427.852 387.988L409.637 374.785Z" fill="#1C1E1C"/>
<path d="M454.649 355.883L420.422 408.589L442.267 428.278L477.561 366.97L454.649 355.883Z" fill="#1C1E1C"/>
<path d="M482.878 369.562L447.016 432.577L458.355 442.798L525.436 390.156L482.878 369.562Z" fill="#1C1E1C"/>
<path d="M463.168 447.125L488.802 470.229L530.245 428.526L529.778 392.246L463.168 447.125Z" fill="#1C1E1C"/>
<path d="M410.305 410.203L411.571 477.599L450.94 448.131L410.305 410.203Z" fill="#1C1E1C"/>
<path d="M426.611 474.184L411.695 484.489L412.896 548.382L456.056 503.183L426.611 474.184Z" fill="#1C1E1C"/>
<path d="M508.503 501.859L483.192 523.664L465.328 504.685L487.195 481.969L508.503 501.859Z" fill="#1C1E1C"/>
<path d="M460.073 499.119L482.272 476.781L465.443 461.652L445.898 483.036L460.073 499.119Z" fill="#1C1E1C"/>
<path d="M441.783 479.713L461.777 458.274L454.57 451.547L433.168 470.405L441.783 479.713Z" fill="#1C1E1C"/>
<path d="M234.576 260.34C243.951 260.34 251.551 252.74 251.551 243.365C251.551 233.991 243.951 226.391 234.576 226.391C225.201 226.391 217.602 233.991 217.602 243.365C217.602 252.74 225.201 260.34 234.576 260.34Z" fill="#1C1E1C"/>
<path d="M-118.75 401.727L-33.6853 428.217L14.3443 434.598L78.191 447.571L128.922 458.629L157.084 571.662" stroke="#1C1E1C" stroke-width="2.43996" stroke-miterlimit="10"/>
<path d="M44.2383 -32.3516L296.409 55.7344L357.557 79.3959L391.635 97.2698L432.528 124.154L478.436 154.88L536.174 196.415" stroke="#1C1E1C" stroke-width="2.43996" stroke-miterlimit="10"/>
</g>
<defs>
<radialGradient id="paint0_radial_1352_6973" cx="0" cy="0" r="1" gradientUnits="userSpaceOnUse" gradientTransform="translate(239 250) rotate(90) scale(268.14 231.953)">
<stop stop-color="#101210"/>
<stop offset="1" stop-color="#101210" stop-opacity="0"/>
</radialGradient>
<linearGradient id="paint1_linear_1352_6973" x1="268.03" y1="187.293" x2="268.03" y2="225.651" gradientUnits="userSpaceOnUse">
<stop stop-color="#102D1C"/>
<stop offset="1" stop-color="#095F2E"/>
</linearGradient>
<linearGradient id="paint2_linear_1352_6973" x1="279.26" y1="212.762" x2="279.26" y2="238.136" gradientUnits="userSpaceOnUse">
<stop stop-color="#102D1C"/>
<stop offset="1" stop-color="#095F2E"/>
</linearGradient>
<linearGradient id="paint3_linear_1352_6973" x1="280.566" y1="238.992" x2="280.566" y2="263.829" gradientUnits="userSpaceOnUse">
<stop stop-color="#102D1C"/>
<stop offset="1" stop-color="#095F2E"/>
</linearGradient>
<linearGradient id="paint4_linear_1352_6973" x1="246.058" y1="180.355" x2="246.058" y2="216.522" gradientUnits="userSpaceOnUse">
<stop stop-color="#102D1C"/>
<stop offset="1" stop-color="#095F2E"/>
</linearGradient>
<linearGradient id="paint5_linear_1352_6973" x1="216.112" y1="180.355" x2="216.112" y2="217.334" gradientUnits="userSpaceOnUse">
<stop stop-color="#102D1C"/>
<stop offset="1" stop-color="#095F2E"/>
</linearGradient>
<linearGradient id="paint6_linear_1352_6973" x1="200.681" y1="190.746" x2="200.681" y2="222.317" gradientUnits="userSpaceOnUse">
<stop stop-color="#102D1C"/>
<stop offset="1" stop-color="#095F2E"/>
</linearGradient>
<linearGradient id="paint7_linear_1352_6973" x1="188.509" y1="219.492" x2="188.509" y2="248.24" gradientUnits="userSpaceOnUse">
<stop stop-color="#102D1C"/>
<stop offset="1" stop-color="#095F2E"/>
</linearGradient>
<linearGradient id="paint8_linear_1352_6973" x1="190.713" y1="247.402" x2="190.713" y2="273.122" gradientUnits="userSpaceOnUse">
<stop stop-color="#102D1C"/>
<stop offset="1" stop-color="#095F2E"/>
</linearGradient>
<linearGradient id="paint9_linear_1352_6973" x1="201.266" y1="261.059" x2="201.266" y2="297.213" gradientUnits="userSpaceOnUse">
<stop stop-color="#102D1C"/>
<stop offset="1" stop-color="#095F2E"/>
</linearGradient>
<linearGradient id="paint10_linear_1352_6973" x1="224.027" y1="272.027" x2="224.027" y2="307.12" gradientUnits="userSpaceOnUse">
<stop stop-color="#102D1C"/>
<stop offset="1" stop-color="#095F2E"/>
</linearGradient>
<linearGradient id="paint11_linear_1352_6973" x1="252.931" y1="269.57" x2="252.931" y2="306.68" gradientUnits="userSpaceOnUse">
<stop stop-color="#102D1C"/>
<stop offset="1" stop-color="#095F2E"/>
</linearGradient>
<linearGradient id="paint12_linear_1352_6973" x1="272.19" y1="260.918" x2="272.19" y2="295.311" gradientUnits="userSpaceOnUse">
<stop stop-color="#102D1C"/>
<stop offset="1" stop-color="#095F2E"/>
</linearGradient>
</defs>
</svg>
