<svg width="230" height="250" viewBox="0 0 230 250" fill="none" xmlns="http://www.w3.org/2000/svg">
<path d="M16.4014 80.5958V169.825C15.1973 169.929 14.0436 170.214 12.967 170.65C6.74177 156.728 3.27475 141.315 3.27475 125.107C3.27475 108.967 6.71218 93.6158 12.89 79.7417C13.9873 80.1985 15.1677 80.4891 16.4014 80.5958ZM7.8184 68.7593C7.8184 63.4594 12.1307 59.1471 17.4306 59.1471C18.8542 59.1471 20.2007 59.4645 21.4137 60.0221C17.7835 65.2389 14.5775 70.7702 11.843 76.5683C9.41106 74.8215 7.8184 71.9772 7.8184 68.7593ZM103.484 13.7851C103.676 14.9803 104.044 16.1132 104.566 17.1601L66.3754 39.2109H66.3724L27.108 61.8786C26.4259 60.9237 25.6074 60.0754 24.6791 59.3577C42.8773 34.3678 71.1533 17.1661 103.484 13.7851ZM115.207 2.27477C120.312 2.27477 124.487 6.27554 124.793 11.3056C121.631 11.0416 118.434 10.8994 115.207 10.8994C111.978 10.8994 108.784 11.0416 105.622 11.3056C105.927 6.27554 110.103 2.27477 115.207 2.27477ZM205.736 59.3577C204.808 60.0754 203.986 60.9237 203.304 61.8786L164.04 39.2109L125.849 17.1601C126.368 16.1132 126.738 14.9803 126.931 13.7851C159.262 17.1661 187.538 34.3678 205.736 59.3577ZM212.984 59.1471C218.284 59.1471 222.596 63.4594 222.596 68.7593C222.596 71.9772 221.004 74.8215 218.572 76.5683C215.837 70.7702 212.631 65.2389 209.001 60.0221C210.214 59.4645 211.561 59.1471 212.984 59.1471ZM227.14 125.107C227.14 141.315 223.673 156.731 217.448 170.65C216.371 170.214 215.218 169.929 214.01 169.825V125.762V124.451V80.5958C215.247 80.4891 216.428 80.1985 217.528 79.7417C223.703 93.6158 227.14 108.967 227.14 125.107ZM222.596 181.662C222.596 186.962 218.284 191.277 212.984 191.277C211.519 191.277 210.134 190.936 208.891 190.349C212.534 185.132 215.754 179.601 218.498 173.802C220.971 175.543 222.596 178.414 222.596 181.662ZM126.961 236.423C126.789 235.215 126.436 234.068 125.926 233.006L164.04 211.003L203.194 188.394C203.873 189.379 204.701 190.251 205.638 190.992C187.44 215.899 159.22 233.042 126.961 236.423ZM115.207 247.725C110.174 247.725 106.04 243.837 105.634 238.908C108.789 239.172 111.984 239.314 115.207 239.314C118.431 239.314 121.622 239.172 124.781 238.908C124.375 243.837 120.24 247.725 115.207 247.725ZM24.7769 190.989C25.7141 190.251 26.5386 189.379 27.2177 188.394L66.3724 211.003H66.3754L104.486 233.006C103.979 234.068 103.626 235.215 103.451 236.423C71.1948 233.042 42.9751 215.899 24.7769 190.989ZM16.4014 177.658C15.5354 176.036 14.711 174.39 13.9221 172.72C14.705 172.411 15.5354 172.198 16.4014 172.106V177.658ZM18.6762 180.837V172.139C23.3918 172.753 27.0458 176.786 27.0458 181.662C27.0458 182.934 26.7907 184.15 26.3399 185.262L18.6762 180.837ZM23.4571 189.145C22.3716 187.593 21.3276 186.016 20.3193 184.411L25.2366 187.252C24.7294 187.958 24.1333 188.596 23.4571 189.145ZM65.2276 153.952C65.2306 153.958 65.2336 153.961 65.2365 153.967V207.719L28.324 186.407C28.9616 184.954 29.3205 183.349 29.3205 181.662C29.3205 175.529 24.6493 170.466 18.6762 169.84V127.076L65.2276 153.952ZM110.907 67.5492C92.8957 68.8809 77.1561 78.502 67.5113 92.6163V42.4941L110.907 67.5492ZM162.904 92.6163C153.259 78.502 137.519 68.8809 119.508 67.5492L162.904 42.4941V92.6163ZM119.508 182.664C137.519 181.33 153.259 171.709 162.904 157.597V207.719L119.508 182.664ZM67.5113 157.597C77.1561 171.709 92.8957 181.33 110.907 182.664L67.5113 207.719V157.597ZM57.472 125.107C57.472 134.075 59.5273 142.569 63.193 150.15L19.8151 125.107L63.193 100.063C59.5273 107.641 57.472 116.138 57.472 125.107ZM114.069 123.137L91.3593 110.026L67.7693 96.4036C77.3162 80.6819 94.4616 70.0731 114.069 69.6757V123.137ZM139.056 110.026L116.343 123.137V69.6757C135.953 70.0731 153.099 80.6819 162.646 96.4036L139.056 110.026ZM172.943 125.107C172.943 116.138 170.885 107.641 167.222 100.063L210.6 125.107L167.222 150.15C170.885 142.569 172.943 134.075 172.943 125.107ZM116.343 127.076L139.056 140.188L162.646 153.81C153.099 169.532 135.953 180.14 116.343 180.538V127.076ZM91.3593 140.188L114.069 127.076V180.538C94.4616 180.14 77.3162 169.532 67.7693 153.81L91.3593 140.188ZM163.781 98.3759C168.165 106.309 170.668 115.42 170.668 125.107C170.668 134.793 168.165 143.904 163.781 151.838L140.191 138.219L117.482 125.107L140.191 111.995L163.781 98.3759ZM90.2205 111.995L112.933 125.107L90.2205 138.219L66.6334 151.838C62.2499 143.904 59.7468 134.793 59.7468 125.107C59.7468 115.42 62.2499 106.309 66.6334 98.3759L90.2205 111.995ZM115.207 226.223C111.296 226.223 107.828 228.133 105.66 231.057L68.6472 209.689L115.151 182.839C115.169 182.839 115.19 182.842 115.207 182.842C115.225 182.842 115.243 182.839 115.264 182.839L161.765 209.689L124.754 231.057C122.586 228.133 119.119 226.223 115.207 226.223ZM111.343 236.965C109.457 236.9 107.582 236.79 105.72 236.633C105.853 235.758 106.105 234.925 106.461 234.145L111.343 236.965ZM123.954 234.145C124.31 234.925 124.559 235.758 124.695 236.633C122.833 236.79 120.958 236.9 119.069 236.965L123.954 234.145ZM115.207 236.568L107.642 232.202C109.403 229.951 112.135 228.498 115.207 228.498C118.28 228.498 121.012 229.951 122.773 232.202L115.207 236.568ZM211.736 169.84C205.766 170.466 201.094 175.529 201.094 181.662C201.094 183.349 201.453 184.954 202.088 186.407L165.178 207.719V153.967C165.181 153.961 165.184 153.958 165.187 153.952L211.736 127.076V169.84ZM214.01 172.106C214.879 172.198 215.71 172.411 216.493 172.723C215.704 174.39 214.876 176.036 214.01 177.661V172.106ZM203.369 181.662C203.369 176.786 207.023 172.753 211.736 172.139V180.837L204.075 185.262C203.624 184.15 203.369 182.934 203.369 181.662ZM205.175 187.252L210.096 184.411C209.09 186.016 208.043 187.593 206.958 189.145C206.282 188.599 205.685 187.958 205.175 187.252ZM211.736 80.584V123.137L165.187 96.2613C165.184 96.2553 165.181 96.2494 165.178 96.2435V42.4941L202.168 63.8509C201.486 65.3486 201.094 67.0095 201.094 68.7593C201.094 74.8956 205.766 79.9582 211.736 80.584ZM211.736 69.3733V78.2855C207.023 77.6686 203.369 73.6381 203.369 68.7593C203.369 67.4217 203.645 66.1465 204.14 64.9898L211.736 69.3733ZM214.01 72.5526C214.909 74.2342 215.763 75.9396 216.576 77.6716C215.769 77.9978 214.909 78.2202 214.01 78.3181V72.5526ZM207.056 61.2054C208.106 62.7121 209.12 64.2424 210.096 65.8024L205.285 63.0234C205.795 62.3442 206.388 61.7304 207.056 61.2054ZM115.207 23.7769C119.054 23.7769 122.471 21.935 124.645 19.0908L161.765 40.5248L115.264 67.3713C115.243 67.3713 115.225 67.3713 115.207 67.3713C115.19 67.3713 115.169 67.3713 115.151 67.3713L68.6472 40.5248L105.77 19.0908C107.944 21.935 111.361 23.7769 115.207 23.7769ZM119.069 13.2482C120.946 13.3105 122.812 13.4202 124.662 13.5774C124.511 14.4375 124.241 15.2561 123.877 16.0213L119.069 13.2482ZM106.538 16.0213C106.174 15.2561 105.904 14.4375 105.749 13.5774C107.603 13.4202 109.469 13.3105 111.343 13.2482L106.538 16.0213ZM115.207 13.6427L122.663 17.9461C120.899 20.1141 118.212 21.505 115.207 21.505C112.2 21.505 109.516 20.1141 107.751 17.9461L115.207 13.6427ZM18.6762 80.584C24.6493 79.9582 29.3205 74.8956 29.3205 68.7593C29.3205 67.0095 28.929 65.3486 28.2469 63.8509L65.2365 42.4941V96.2435C65.2336 96.2494 65.2306 96.2553 65.2276 96.2613L18.6762 123.137V80.584ZM16.4014 78.3181C15.5058 78.2202 14.6457 77.9978 13.839 77.6716C14.6516 75.9425 15.5058 74.2342 16.4014 72.5556V78.3181ZM27.0458 68.7593C27.0458 73.6381 23.3918 77.6686 18.6762 78.2855V69.3733L26.2717 64.9898C26.7699 66.1465 27.0458 67.4217 27.0458 68.7593ZM25.1268 63.0234L20.3193 65.7995C21.295 64.2424 22.3093 62.7121 23.3592 61.2084C24.0265 61.7333 24.6197 62.3442 25.1268 63.0234ZM17.4306 191.277C12.1307 191.277 7.8184 186.962 7.8184 181.662C7.8184 178.414 9.44072 175.54 11.9172 173.799C14.6605 179.601 17.8814 185.132 21.5234 190.349C20.2807 190.936 18.8957 191.277 17.4306 191.277ZM10.9473 171.709C7.69978 173.835 5.54364 177.498 5.54364 181.662C5.54364 188.216 10.8761 193.552 17.4306 193.552C19.388 193.552 21.2328 193.065 22.864 192.226C41.4537 217.729 70.3318 235.278 103.347 238.7C103.659 244.982 108.849 250 115.207 250C121.563 250 126.756 244.982 127.068 238.7C160.083 235.278 188.961 217.732 207.551 192.226C209.182 193.065 211.024 193.552 212.984 193.552C219.539 193.552 224.871 188.216 224.871 181.662C224.871 177.498 222.715 173.835 219.468 171.711C225.856 157.473 229.415 141.698 229.415 125.107C229.415 108.578 225.883 92.8654 219.539 78.6681C222.748 76.5386 224.871 72.8937 224.871 68.7593C224.871 62.2049 219.539 56.8723 212.984 56.8723C211.071 56.8723 209.268 57.338 207.664 58.1447C189.08 32.5556 160.157 14.9447 127.077 11.5132C126.875 5.13377 121.634 0 115.207 0C108.778 0 103.54 5.13377 103.338 11.5132C70.2576 14.9447 41.3321 32.5556 22.7513 58.1447C21.1468 57.338 19.3435 56.8723 17.4306 56.8723C10.8761 56.8723 5.54364 62.2049 5.54364 68.7593C5.54364 72.8937 7.66716 76.5386 10.8762 78.6681C4.5323 92.8654 1 108.581 1 125.107C1 141.698 4.55898 157.47 10.9473 171.709Z" fill="url(#paint0_radial_1352_7457)"/>
<path d="M115 239C52.1411 239 1 187.861 1 125C1 62.1394 52.1411 11 115 11C177.861 11 229 62.1394 229 125C229 187.861 177.861 239 115 239ZM115 12.7458C53.1031 12.7458 2.74579 63.1031 2.74579 125C2.74579 186.897 53.1031 237.254 115 237.254C176.897 237.254 227.254 186.897 227.254 125C227.254 63.1031 176.897 12.7458 115 12.7458Z" fill="url(#paint1_linear_1352_7457)" stroke="#2EE580" stroke-width="2"/>
<circle cx="213.5" cy="69.5" r="11" stroke="#2EE580" stroke-width="3"/>
<circle cx="115.5" cy="125.5" r="6.5" stroke="white" stroke-width="2"/>
<circle cx="213.5" cy="179.5" r="11" stroke="#2EE580" stroke-width="3"/>
<circle cx="17.5" cy="69.5" r="11" stroke="#2EE580" stroke-width="3"/>
<circle cx="17.5" cy="179.5" r="11" stroke="#2EE580" stroke-width="3"/>
<circle cx="115.5" cy="12.5" r="11" transform="rotate(-90 115.5 12.5)" stroke="#2EE580" stroke-width="3"/>
<circle cx="115.5" cy="237.5" r="11" transform="rotate(-90 115.5 237.5)" stroke="#2EE580" stroke-width="3"/>
<defs>
<radialGradient id="paint0_radial_1352_7457" cx="0" cy="0" r="1" gradientUnits="userSpaceOnUse" gradientTransform="translate(115.207 125) rotate(-90) scale(125 114.207)">
<stop stop-color="#2EE580"/>
<stop offset="1" stop-color="#009D46" stop-opacity="0"/>
</radialGradient>
<linearGradient id="paint1_linear_1352_7457" x1="115" y1="11" x2="115" y2="239" gradientUnits="userSpaceOnUse">
<stop stop-color="#102D1C"/>
<stop offset="1" stop-color="#095F2E"/>
</linearGradient>
</defs>
</svg>
