<svg width="205" height="251" viewBox="0 0 205 251" fill="none" xmlns="http://www.w3.org/2000/svg">
<path d="M36 36.2006L102.289 15L169 36.2006V145.19C145.146 177.589 130.403 190.657 102.184 207C71.6181 188.75 57.041 175.103 36 145.19V36.2006Z" fill="url(#paint0_linear_828_5003)" fill-opacity="0.5" stroke="#2EE580"/>
<path d="M1 66.1938L102.06 43.3789L203.763 66.1938V183.482C167.397 218.348 144.921 232.411 101.9 249.998C55.3011 230.359 33.0779 215.673 1 183.482V66.1938Z" fill="url(#paint1_linear_828_5003)" fill-opacity="0.1" stroke="#2EE580"/>
<path d="M96.3518 145.101C95.5697 145.888 94.2964 145.888 93.5144 145.101L66.6684 118.084C65.8933 117.304 65.8933 116.045 66.6684 115.265L71.2653 110.639C72.0473 109.852 73.3206 109.852 74.1026 110.639L93.5144 130.174C94.2964 130.961 95.5697 130.961 96.3518 130.174L141.265 84.9746C142.047 84.1876 143.321 84.1876 144.103 84.9746L148.7 89.6007C149.475 90.3807 149.475 91.6402 148.7 92.4202L96.3518 145.101Z" fill="url(#paint2_linear_828_5003)" stroke="#2EE580" stroke-width="1.28535"/>
<circle cx="2.5" cy="2.5" r="2.5" transform="matrix(-1 0 0 1 39 143)" fill="#2EE580"/>
<circle cx="2.5" cy="2.5" r="2.5" transform="matrix(-1 0 0 1 39 56)" fill="#2EE580"/>
<circle cx="2.5" cy="2.5" r="2.5" transform="matrix(-1 0 0 1 39 33)" fill="#2EE580"/>
<defs>
<linearGradient id="paint0_linear_828_5003" x1="102.5" y1="15" x2="102.5" y2="207" gradientUnits="userSpaceOnUse">
<stop stop-color="#009D46" stop-opacity="0"/>
<stop offset="0.234592" stop-color="#009D46"/>
<stop offset="1" stop-color="#009D46" stop-opacity="0"/>
</linearGradient>
<linearGradient id="paint1_linear_828_5003" x1="102.382" y1="43.3789" x2="102.382" y2="249.998" gradientUnits="userSpaceOnUse">
<stop stop-color="#009D46"/>
<stop offset="1" stop-color="#009D46" stop-opacity="0"/>
</linearGradient>
<linearGradient id="paint2_linear_828_5003" x1="107.684" y1="83.5469" x2="107.684" y2="146.529" gradientUnits="userSpaceOnUse">
<stop stop-color="#009D46"/>
<stop offset="1" stop-color="#009D46" stop-opacity="0"/>
</linearGradient>
</defs>
</svg>
