<svg xmlns="http://www.w3.org/2000/svg" width="15" height="15" viewBox="0 0 15 15" fill="none">
  <mask id="mask0_815_3930" style="mask-type:alpha" maskUnits="userSpaceOnUse" x="0" y="0" width="15" height="15">
    <rect x="0.5" y="0.5" width="14" height="14" fill="#D9D9D9"/>
  </mask>
  <g mask="url(#mask0_815_3930)">
    <path d="M7.50016 8.08464C7.01405 8.08464 6.60086 7.9145 6.26058 7.57422C5.9203 7.23394 5.75016 6.82075 5.75016 6.33464C5.75016 5.84852 5.9203 5.43533 6.26058 5.09505C6.60086 4.75477 7.01405 4.58464 7.50016 4.58464C7.98627 4.58464 8.39947 4.75477 8.73975 5.09505C9.08002 5.43533 9.25016 5.84852 9.25016 6.33464C9.25016 6.82075 9.08002 7.23394 8.73975 7.57422C8.39947 7.9145 7.98627 8.08464 7.50016 8.08464ZM4.00016 13.918V9.41172C3.63072 9.00339 3.34391 8.53672 3.13975 8.01172C2.93558 7.48672 2.8335 6.92769 2.8335 6.33464C2.8335 5.03186 3.28558 3.92839 4.18975 3.02422C5.09391 2.12005 6.19738 1.66797 7.50016 1.66797C8.80294 1.66797 9.90641 2.12005 10.8106 3.02422C11.7147 3.92839 12.1668 5.03186 12.1668 6.33464C12.1668 6.92769 12.0647 7.48672 11.8606 8.01172C11.6564 8.53672 11.3696 9.00339 11.0002 9.41172V13.918L7.50016 12.7513L4.00016 13.918ZM7.50016 9.83463C8.47238 9.83463 9.29877 9.49436 9.97933 8.8138C10.6599 8.13325 11.0002 7.30686 11.0002 6.33464C11.0002 5.36241 10.6599 4.53602 9.97933 3.85547C9.29877 3.17491 8.47238 2.83464 7.50016 2.83464C6.52794 2.83464 5.70155 3.17491 5.021 3.85547C4.34044 4.53602 4.00016 5.36241 4.00016 6.33464C4.00016 7.30686 4.34044 8.13325 5.021 8.8138C5.70155 9.49436 6.52794 9.83463 7.50016 9.83463ZM5.16683 12.1826L7.50016 11.5846L9.8335 12.1826V10.3742C9.49322 10.5687 9.1262 10.7218 8.73245 10.8336C8.3387 10.9454 7.92794 11.0013 7.50016 11.0013C7.07238 11.0013 6.66162 10.9454 6.26787 10.8336C5.87412 10.7218 5.50711 10.5687 5.16683 10.3742V12.1826Z" fill="#17E250"/>
  </g>
</svg>