<svg width="340" height="137" viewBox="0 0 340 137" fill="none" xmlns="http://www.w3.org/2000/svg">
<path d="M286.125 104.03L286.006 105.101L287.082 105.14C295.034 105.429 301.538 111.934 301.538 120.177C301.538 128.414 294.893 135.06 286.656 135.06C286.657 135.06 286.656 135.06 286.653 135.059C286.649 135.059 286.642 135.059 286.631 135.058C286.611 135.056 286.585 135.053 286.55 135.047C286.514 135.042 286.478 135.035 286.437 135.028C286.39 135.02 286.339 135.01 286.276 134.999C286.064 134.96 285.753 134.905 285.422 134.905H284.422V135.06H257.358H213.103H204.622H185.039H117.197C105.109 134.909 95.2158 124.876 95.2158 112.621C95.2158 100.221 105.254 90.1832 117.654 90.1832C120.041 90.1832 122.397 90.4819 124.585 91.2113L125.233 91.4271L125.67 90.9028C132.459 82.7554 142.119 77.0184 152.989 75.0558L153.684 74.9304L153.798 74.2337C157.113 54.0428 174.592 38.5266 195.833 38.5266C215.119 38.5266 231.539 51.3331 236.66 69.1058L236.993 70.261L238.068 69.7234C242.556 67.4795 247.491 66.2824 252.732 66.2824C271.3 66.2824 286.427 81.4087 286.427 99.9771C286.427 101.3 286.28 102.633 286.125 104.03Z" fill="#151715" stroke="#009D46" stroke-width="2"/>
<path d="M139.012 52.1821L139.024 53.9998L140.553 53.0168C144.703 50.3489 149.757 48.8581 155.124 48.8581C167.049 48.8581 177.16 56.3439 180.924 66.7497H153.89H109.635H101.309H81.7253H13.8928C9.14881 66.6072 4.79855 65.0153 1.21421 62.467C7.56877 46.8686 22.7497 35.9054 40.7085 35.9054C45.831 35.9054 50.649 36.8089 55.1673 38.4656L56.1031 38.8088L56.4493 37.8741C62.478 21.5965 77.9975 10 96.3742 10C119.883 10 138.862 28.8342 139.012 52.1821Z" stroke="#009D46" stroke-width="2"/>
<path d="M276.056 84.014L276.057 84.0139C282.916 83.7281 288.917 89.1687 289.203 96.0083C289.489 103.024 284.2 108.869 277.208 109.155C270.192 109.441 264.347 104.152 264.062 97.1603C263.776 90.1443 269.064 84.2994 276.056 84.014Z" fill="#151715" stroke="#009D46" stroke-width="2"/>
<path d="M275.935 101.005L275.935 101.009C276.072 103.881 276.714 106.636 277.753 109.275L326.764 106.877C327.521 104.233 327.889 101.357 327.752 98.4848C327.008 84.2225 314.978 73.095 300.585 73.8366L275.935 101.005ZM275.935 101.005C275.193 86.6108 286.321 74.5798 300.584 73.8366L275.935 101.005Z" fill="#151715" stroke="#009D46" stroke-width="2"/>
<path d="M131.303 56.339C131.303 71.515 118.952 83.8658 103.776 83.8658C88.5998 83.8658 76.249 71.515 76.249 56.339C76.249 41.163 88.5998 28.8123 103.776 28.8123C118.952 28.8123 131.303 41.163 131.303 56.339Z" fill="#151715" stroke="#009D46" stroke-width="2"/>
<rect opacity="0.7" width="340" height="136" fill="url(#paint0_linear_179_430)"/>
<defs>
<linearGradient id="paint0_linear_179_430" x1="170" y1="0" x2="170" y2="136" gradientUnits="userSpaceOnUse">
<stop stop-color="#151715" stop-opacity="0"/>
<stop offset="1" stop-color="#151715"/>
</linearGradient>
</defs>
</svg>
