<svg xmlns="http://www.w3.org/2000/svg" width="15" height="15" viewBox="0 0 15 15" fill="none">
  <mask id="mask0_1042_20076" style="mask-type:alpha" maskUnits="userSpaceOnUse" x="0" y="0" width="15" height="15">
    <rect x="0.5" y="0.5" width="14" height="14" fill="#D9D9D9"/>
  </mask>
  <g mask="url(#mask0_1042_20076)">
    <path d="M6.93177 12.75V11.4958C6.41649 11.3792 5.9717 11.1556 5.5974 10.825C5.22309 10.4944 4.94844 10.0278 4.77344 9.425L5.8526 8.9875C5.99844 9.45417 6.21476 9.80903 6.50156 10.0521C6.78837 10.2951 7.1651 10.4167 7.63177 10.4167C8.03038 10.4167 8.36823 10.3267 8.64531 10.1469C8.9224 9.96701 9.06094 9.6875 9.06094 9.30833C9.06094 8.96806 8.95399 8.69826 8.7401 8.49896C8.52621 8.29965 8.03038 8.07361 7.2526 7.82083C6.41649 7.55833 5.84288 7.24479 5.53177 6.88021C5.22066 6.51562 5.0651 6.07083 5.0651 5.54583C5.0651 4.91389 5.26927 4.42292 5.6776 4.07292C6.08594 3.72292 6.50399 3.52361 6.93177 3.475V2.25H8.09844V3.475C8.58455 3.55278 8.98559 3.73021 9.30156 4.00729C9.61753 4.28437 9.84844 4.62222 9.99427 5.02083L8.9151 5.4875C8.79844 5.17639 8.63316 4.94306 8.41927 4.7875C8.20538 4.63194 7.91371 4.55417 7.54427 4.55417C7.11649 4.55417 6.7908 4.64896 6.56719 4.83854C6.34358 5.02812 6.23177 5.26389 6.23177 5.54583C6.23177 5.86667 6.3776 6.11944 6.66927 6.30417C6.96094 6.48889 7.46649 6.68333 8.18594 6.8875C8.85677 7.08194 9.36476 7.39062 9.7099 7.81354C10.055 8.23646 10.2276 8.725 10.2276 9.27917C10.2276 9.96944 10.0234 10.4944 9.6151 10.8542C9.20677 11.2139 8.70121 11.4375 8.09844 11.525V12.75H6.93177Z" fill="#17E250"/>
  </g>
</svg>