<svg width="50" height="50" viewBox="0 0 50 50" fill="none" xmlns="http://www.w3.org/2000/svg">
<rect width="50" height="50" rx="25" fill="#25201D"/>
<mask id="mask0_767_11356" style="mask-type:alpha" maskUnits="userSpaceOnUse" x="13" y="13" width="24" height="24">
<rect x="13" y="13" width="24" height="24" fill="#D9D9D9"/>
</mask>
<g mask="url(#mask0_767_11356)">
<path d="M16.998 32.9961C16.448 32.9961 15.9772 32.8003 15.5855 32.4086C15.1939 32.0169 14.998 31.5461 14.998 30.9961V18.9961C14.998 18.4461 15.1939 17.9753 15.5855 17.5836C15.9772 17.1919 16.448 16.9961 16.998 16.9961H32.998C33.548 16.9961 34.0189 17.1919 34.4105 17.5836C34.8022 17.9753 34.998 18.4461 34.998 18.9961V30.9961C34.998 31.5461 34.8022 32.0169 34.4105 32.4086C34.0189 32.8003 33.548 32.9961 32.998 32.9961H16.998ZM24.998 25.9961L32.998 20.9961V18.9961L24.998 23.9961L16.998 18.9961V20.9961L24.998 25.9961Z" fill="white"/>
</g>
</svg>
