<svg xmlns="http://www.w3.org/2000/svg" width="14" height="15" viewBox="0 0 14 15" fill="none">
  <mask id="mask0_1018_17462" style="mask-type:alpha" maskUnits="userSpaceOnUse" x="0" y="0" width="14" height="15">
    <rect y="0.5" width="14" height="14" fill="#D9D9D9"/>
  </mask>
  <g mask="url(#mask0_1018_17462)">
    <path d="M7.00534 8.6C6.52005 8.6 6.10755 8.43015 5.76784 8.09044C5.42814 7.75074 5.25828 7.33824 5.25828 6.85294C5.25828 6.36765 5.42814 5.95515 5.76784 5.61544C6.10755 5.27574 6.52005 5.10588 7.00534 5.10588C7.49064 5.10588 7.90314 5.27574 8.24284 5.61544C8.58255 5.95515 8.7524 6.36765 8.7524 6.85294C8.7524 7.33824 8.58255 7.75074 8.24284 8.09044C7.90314 8.43015 7.49064 8.6 7.00534 8.6ZM7.00534 11.7059C5.43083 11.7059 3.99652 11.2664 2.7024 10.3875C1.40828 9.50858 0.470048 8.33039 -0.112305 6.85294C0.470048 5.37549 1.40828 4.1973 2.7024 3.31838C3.99652 2.43946 5.43083 2 7.00534 2C8.52593 2 9.91441 2.4098 11.1708 3.22941C12.4272 4.04902 13.3681 5.14902 13.9936 6.52941H12.5215C11.9607 5.52647 11.1897 4.73652 10.2083 4.15956C9.22691 3.5826 8.15926 3.29412 7.00534 3.29412C5.78672 3.29412 4.66784 3.61495 3.64872 4.25662C2.62961 4.89828 1.85044 5.76373 1.31122 6.85294C1.85044 7.94216 2.62961 8.8076 3.64872 9.44927C4.66784 10.0909 5.78672 10.4118 7.00534 10.4118C7.22103 10.4118 7.43672 10.401 7.6524 10.3794C7.86809 10.3578 8.08377 10.3255 8.29946 10.2824V11.5926C8.08377 11.625 7.86809 11.652 7.6524 11.6735C7.43672 11.6951 7.22103 11.7059 7.00534 11.7059ZM7.00534 9.76471C7.2426 9.76471 7.47176 9.73775 7.69284 9.68382C7.91392 9.6299 8.12152 9.55441 8.31564 9.45735C8.36956 8.91814 8.53941 8.43284 8.8252 8.00147C9.11098 7.5701 9.47495 7.225 9.91711 6.96618V6.85294C9.91711 6.04412 9.63402 5.35662 9.06784 4.79044C8.50167 4.22426 7.81417 3.94118 7.00534 3.94118C6.19652 3.94118 5.50902 4.22426 4.94284 4.79044C4.37667 5.35662 4.09358 6.04412 4.09358 6.85294C4.09358 7.66177 4.37667 8.34927 4.94284 8.91544C5.50902 9.48162 6.19652 9.76471 7.00534 9.76471ZM10.2406 13C10.0573 13 9.90363 12.938 9.77961 12.814C9.65559 12.69 9.59358 12.5363 9.59358 12.3529V10.4118C9.59358 10.2284 9.65559 10.0748 9.77961 9.95074C9.90363 9.82672 10.0573 9.76471 10.2406 9.76471V9.11765C10.2406 8.76177 10.3674 8.45711 10.6208 8.20368C10.8742 7.95025 11.1789 7.82353 11.5348 7.82353C11.8906 7.82353 12.1953 7.95025 12.4487 8.20368C12.7022 8.45711 12.8289 8.76177 12.8289 9.11765V9.76471C13.0122 9.76471 13.1659 9.82672 13.2899 9.95074C13.4139 10.0748 13.4759 10.2284 13.4759 10.4118V12.3529C13.4759 12.5363 13.4139 12.69 13.2899 12.814C13.1659 12.938 13.0122 13 12.8289 13H10.2406ZM10.8877 9.76471H12.1818V9.11765C12.1818 8.93431 12.1198 8.78064 11.9958 8.65662C11.8718 8.5326 11.7181 8.47059 11.5348 8.47059C11.3514 8.47059 11.1977 8.5326 11.0737 8.65662C10.9497 8.78064 10.8877 8.93431 10.8877 9.11765V9.76471Z" fill="#17E250"/>
  </g>
</svg>