<svg xmlns="http://www.w3.org/2000/svg" width="15" height="15" viewBox="0 0 15 15" fill="none">
  <mask id="mask0_815_3921" style="mask-type:alpha" maskUnits="userSpaceOnUse" x="-1" y="-1" width="17" height="17">
    <rect x="-0.433105" y="-0.4375" width="15.8667" height="15.8667" fill="#D9D9D9"/>
  </mask>
  <g mask="url(#mask0_815_3921)">
    <path d="M7.50125 14.1089C6.58671 14.1089 5.72727 13.9354 4.92291 13.5883C4.11856 13.2412 3.41889 12.7702 2.82389 12.1752C2.22889 11.5802 1.75785 10.8805 1.41076 10.0762C1.06368 9.27181 0.890137 8.41237 0.890137 7.49783C0.890137 6.58329 1.06368 5.72385 1.41076 4.9195C1.75785 4.11514 2.22889 3.41547 2.82389 2.82047C3.41889 2.22547 4.11856 1.75443 4.92291 1.40734C5.72727 1.06026 6.58671 0.886719 7.50125 0.886719C8.41578 0.886719 9.27523 1.06026 10.0796 1.40734C10.8839 1.75443 11.5836 2.22547 12.1786 2.82047C12.7736 3.41547 13.2446 4.11514 13.5917 4.9195C13.9388 5.72385 14.1124 6.58329 14.1124 7.49783C14.1124 8.41237 13.9388 9.27181 13.5917 10.0762C13.2446 10.8805 12.7736 11.5802 12.1786 12.1752C11.5836 12.7702 10.8839 13.2412 10.0796 13.5883C9.27523 13.9354 8.41578 14.1089 7.50125 14.1089ZM6.84014 12.7537V11.4645C6.47653 11.4645 6.16525 11.335 5.90632 11.0761C5.64738 10.8172 5.51791 10.5059 5.51791 10.1423V9.48116L2.34458 6.30783C2.31153 6.50616 2.28122 6.7045 2.25368 6.90283C2.22613 7.10116 2.21236 7.2995 2.21236 7.49783C2.21236 8.83107 2.65034 9.99903 3.52632 11.0017C4.40229 12.0044 5.5069 12.5884 6.84014 12.7537ZM11.4018 11.0678C11.6222 10.8254 11.8205 10.5637 11.9968 10.2828C12.1731 10.0018 12.3191 9.7098 12.4348 9.40679C12.5505 9.10378 12.6386 8.79251 12.6992 8.47297C12.7598 8.15343 12.7901 7.82838 12.7901 7.49783C12.7901 6.41801 12.4899 5.43186 11.8894 4.53936C11.2889 3.64686 10.4873 3.00227 9.48458 2.60561V2.87005C9.48458 3.23366 9.35511 3.54494 9.09618 3.80387C8.83724 4.06281 8.52597 4.19227 8.16236 4.19227H6.84014V5.5145C6.84014 5.70181 6.77678 5.85882 6.65007 5.98554C6.52335 6.11225 6.36634 6.17561 6.17903 6.17561H4.8568V7.49783H8.82347C9.01078 7.49783 9.1678 7.56119 9.29451 7.6879C9.42122 7.81461 9.48458 7.97163 9.48458 8.15894V10.1423H10.1457C10.4322 10.1423 10.6911 10.2277 10.9225 10.3985C11.1539 10.5692 11.3137 10.7924 11.4018 11.0678Z" fill="#17E250"/>
  </g>
</svg>