<svg xmlns="http://www.w3.org/2000/svg" width="25" height="25" viewBox="0 0 25 25" fill="none">
  <path d="M12.5 0C5.59625 0 0 5.59625 0 12.5C0 19.4037 5.59625 25 12.5 25C19.4037 25 25 19.4037 25 12.5C25 5.59625 19.4037 0 12.5 0ZM12.5 22.5L15 20L16.25 18.75V16.25H13.75V15L12.5 13.75H8.75V17.5L11.25 20V22.4137C6.325 21.795 2.5 17.59 2.5 12.5L3.75 13.75H6.25V11.25H8.75L12.5 7.5V5H10L8.75 3.75V3.23625C11.1539 2.25598 13.8461 2.25598 16.25 3.23625V5L15 6.25V8.75L16.25 10L20.1625 6.0875C21.1143 7.22616 21.8001 8.56278 22.17 10H20L17.5 12.5V15L18.75 16.25H21.25L21.6075 16.6075C20.0362 20.0763 16.5487 22.5 12.5 22.5Z" fill="#2DD35C"/>
</svg>