<svg xmlns="http://www.w3.org/2000/svg" width="28" height="24" viewBox="0 0 28 24" fill="none">
  <path d="M20.949 6.52529C20.95 6.52139 20.9466 6.52123 20.9458 6.52518C20.945 6.5294 20.944 6.53362 20.9429 6.53782C20.9427 6.53873 20.9436 6.53914 20.944 6.53828C20.9461 6.53422 20.9478 6.52988 20.949 6.52529ZM16.8419 11.3091C16.8306 11.3069 16.8209 11.3282 16.8297 11.3357C16.831 11.3369 16.8323 11.338 16.8336 11.3392C16.8411 11.3457 16.8529 11.3397 16.8516 11.3299C16.8511 11.3259 16.8506 11.3218 16.85 11.3175C16.8494 11.3133 16.8462 11.3099 16.8419 11.3091ZM13.0367 22.0276C13.0429 22.0294 13.049 22.0307 13.0554 22.0316C13.9437 22.1496 14.8601 22.2878 15.7462 22.4215C17.0731 22.6215 18.4441 22.8284 19.7715 22.9755C19.8087 22.9796 19.846 22.967 19.8711 22.9392C20.2532 22.5171 20.2267 21.8659 20.2009 21.2353C20.1901 20.9667 20.1797 20.7128 20.2023 20.4856C20.2024 20.4834 20.2029 20.4811 20.2034 20.4789C20.2991 20.1038 20.4723 19.7125 20.6398 19.3341C20.8814 18.7887 21.1311 18.2246 21.1743 17.6695C21.1749 17.6606 21.1782 17.6522 21.1836 17.6451C21.563 17.1605 21.5852 17.0521 21.678 16.5964C21.6929 16.5237 21.7098 16.4412 21.7299 16.3474C21.7313 16.3411 21.734 16.3353 21.7379 16.33C22.1977 15.7131 22.1535 15.1502 21.6065 14.6569C21.5957 14.6472 21.5903 14.6326 21.5919 14.6181C21.6079 14.4852 21.7591 14.4512 21.8926 14.4213C21.9697 14.4039 22.0493 14.386 22.0909 14.3529C22.433 14.0967 23.0818 13.9695 23.4674 14.1952C23.4677 14.1954 23.468 14.1956 23.4683 14.1958C23.4686 14.196 23.4689 14.1961 23.4693 14.1962C23.5522 14.2082 24.0724 13.9841 24.1468 13.9323C24.1498 13.93 24.1531 13.9283 24.1567 13.927C24.1789 13.9187 24.2109 13.9113 24.2515 13.902C24.3135 13.8878 24.4384 13.8593 24.4966 13.8188C24.5212 13.8017 24.5194 13.7691 24.5069 13.7417C24.338 13.3717 24.2648 13.1523 24.2246 13.0319C24.2105 12.9898 24.1977 12.9515 24.1877 12.929C24.1814 12.9149 24.1677 12.9086 24.1524 12.911C24.1425 12.9125 24.1308 12.9147 24.1199 12.9168C24.011 12.9372 23.7847 12.98 23.2591 12.8694C23.2412 12.8656 23.2273 12.8513 23.224 12.8332C23.1963 12.6818 23.3545 12.3864 23.4609 12.2099C23.4672 12.1995 23.472 12.1879 23.475 12.1761C23.567 11.8123 23.5103 11.7645 23.4447 11.7096C23.3459 11.6265 23.2733 11.5326 23.3159 11.1637C23.318 11.1451 23.3162 11.1261 23.3104 11.1084C23.2115 10.8029 23.2457 10.7248 23.3131 10.6166C23.3505 10.5567 23.3926 10.4889 23.4095 10.3278C23.411 10.3138 23.4189 10.3011 23.431 10.2939C23.5947 10.1947 23.5562 10.0842 23.4742 9.89775C23.4615 9.86931 23.4486 9.83981 23.4368 9.81031C23.4341 9.80354 23.4332 9.79616 23.434 9.78894C23.4484 9.64896 23.4391 9.48792 23.429 9.3174C23.4147 9.07207 23.3998 8.81831 23.4588 8.61197C23.4602 8.6076 23.462 8.60354 23.4644 8.59993C23.7445 8.16602 24.1209 7.92686 24.4008 8.00437C24.5672 8.05058 24.7691 8.22306 24.7872 8.7831C24.7878 8.80236 24.7762 8.81982 24.7582 8.82674C24.7401 8.83352 24.7198 8.82825 24.7074 8.81335C24.6319 8.72289 24.4614 8.65607 24.4153 8.68527C24.4038 8.6925 24.4014 8.71958 24.4168 8.7657C24.4244 8.78864 24.4413 8.80686 24.46 8.82229C24.5607 8.90579 24.6327 9.05808 24.7026 9.20587C24.787 9.38422 24.8743 9.56874 24.9961 9.59433C25.0533 9.6065 25.1218 9.58279 25.2 9.52407C25.22 9.50911 25.2335 9.48736 25.2409 9.4636C25.3511 9.11307 25.549 9.00123 25.7578 8.88333C25.9132 8.79561 26.0737 8.70504 26.217 8.505C26.2249 8.49405 26.2291 8.48094 26.2295 8.46748C26.2346 8.28958 26.2385 8.14901 26.3302 8.06427C26.3529 8.04324 26.3802 8.02659 26.4126 8.01414C26.492 7.98369 26.5532 7.90282 26.5341 7.81996C26.4525 7.4657 26.4934 7.08179 26.5332 6.7082C26.5803 6.26465 26.625 5.84579 26.4777 5.48608C26.4748 5.47916 26.4738 5.47178 26.4745 5.46441C26.4794 5.4161 26.4854 5.36462 26.4917 5.31014C26.5217 5.05036 26.559 4.72722 26.515 4.453C26.4691 4.16676 26.3432 3.98845 26.1305 3.90953C26.1045 3.89988 26.0757 3.90164 26.0498 3.91141C25.8176 3.99876 25.6896 4.00522 25.5605 3.79618C25.5375 3.75887 25.4974 3.73589 25.4568 3.71948C25.3868 3.69122 25.3341 3.62467 25.3068 3.52633C25.2613 3.36228 25.2954 3.1385 25.4033 3.03647C25.4232 3.01766 25.4432 2.99684 25.4472 2.96975C25.4574 2.90083 25.4225 2.85111 25.3805 2.79125C25.3088 2.68948 25.2208 2.56418 25.4015 2.33621C25.416 2.31793 25.4262 2.29625 25.4296 2.27317C25.5031 1.77319 25.5278 1.40956 25.501 1.21929C25.5007 1.21758 25.5006 1.21592 25.5003 1.21423C25.4922 1.11866 25.4699 1.05755 25.4344 1.03272C25.3871 0.999456 25.3048 1.02143 25.2097 1.04672C25.1851 1.05326 25.1603 1.05988 25.1351 1.06579C25.081 1.07853 25.0367 1.1208 25.0218 1.17435C24.9853 1.30537 24.9115 1.50027 24.8233 1.72867C24.8143 1.75182 24.8052 1.77552 24.7963 1.79887C24.7905 1.81397 24.7992 1.83082 24.8075 1.84471C24.8862 1.97655 24.7679 2.1388 24.631 2.32648C24.496 2.51145 24.3429 2.72126 24.3521 2.93152C24.3527 2.94552 24.3468 2.95891 24.3361 2.96794C24.3254 2.97697 24.3111 2.98059 24.2975 2.97758C24.2547 2.9684 24.2345 2.94356 24.2252 2.9243C24.2219 2.91755 24.2194 2.91051 24.2176 2.9032C24.2124 2.88152 24.1764 2.86458 24.1621 2.8817C23.965 3.11905 23.761 3.36453 23.4817 3.47305C23.4755 3.47545 23.4688 3.47636 23.4621 3.47591C23.3738 3.46928 23.2599 3.61046 23.1912 3.74396C23.1854 3.75555 23.1748 3.76398 23.1622 3.76714C22.8691 3.84134 22.7028 4.15229 22.6495 4.39596C22.6473 4.40634 22.6413 4.41567 22.6328 4.42215C22.4549 4.55865 22.2334 4.59342 22.1389 4.49966C22.1149 4.47584 22.0417 4.46499 22.0291 4.49633C21.9805 4.61742 21.942 4.75493 21.9056 4.8848C21.8666 5.02432 21.8297 5.15602 21.784 5.25355C21.7768 5.2689 21.7614 5.27898 21.7442 5.27944C21.7334 5.27966 21.7216 5.28458 21.7178 5.29474C21.7088 5.31876 21.6965 5.34139 21.6755 5.35529C21.6705 5.35845 21.6648 5.36071 21.6589 5.36191C21.643 5.3649 21.6297 5.3637 21.6186 5.3598C21.5877 5.34896 21.5434 5.34089 21.5266 5.36899C21.4571 5.48488 21.3782 5.61642 21.2869 5.62064C21.2837 5.62079 21.2804 5.6208 21.2769 5.62062C21.2407 5.61869 21.1981 5.61475 21.1854 5.64863C21.1698 5.69122 21.1734 5.74495 21.1947 5.78559C21.2042 5.8035 21.2006 5.82548 21.1859 5.83932C21.1711 5.85332 21.149 5.85573 21.1317 5.84534C21.0798 5.81434 20.9797 5.94227 20.9369 5.9969C20.9285 6.0076 20.9211 6.01713 20.9143 6.02541C20.9059 6.03571 20.8978 6.04681 20.8958 6.05998C20.8876 6.11429 20.9265 6.19406 20.9643 6.27158C21.0165 6.37874 21.0706 6.48951 21.0244 6.57967C20.9947 6.63716 20.9303 6.67358 20.8274 6.69104C20.8072 6.69436 20.7872 6.68382 20.7787 6.66516C20.7703 6.64649 20.7754 6.62452 20.7912 6.61143C20.8969 6.52503 20.8549 6.40944 20.8395 6.37618C20.8081 6.308 20.7535 6.26842 20.7223 6.27399C20.6933 6.27925 20.6717 6.33073 20.666 6.40824C20.6656 6.41411 20.6641 6.41983 20.6613 6.4251C20.34 7.06505 19.732 7.75468 19.3229 8.07887C19.3197 8.08128 19.3163 8.08339 19.3125 8.08504C19.0727 8.18679 18.8306 8.37733 18.5964 8.56155C18.4325 8.69054 18.2645 8.82274 18.0937 8.92803C18.033 8.96549 18.0193 9.05072 18.0096 9.12144C18.0011 9.18344 17.9585 9.23642 17.8928 9.26683C17.8845 9.27074 17.8752 9.27194 17.8663 9.27044C17.7785 9.25554 17.7207 9.24244 17.6825 9.23386C17.6691 9.23088 17.6563 9.228 17.646 9.226C17.6365 9.22414 17.6272 9.2281 17.6215 9.23597C17.5943 9.2736 17.5379 9.35171 17.3524 9.48356C17.3509 9.48461 17.3493 9.48551 17.3478 9.48642C17.3393 9.49093 17.3323 9.50749 17.329 9.53051C17.3114 9.65544 17.3994 9.90919 17.4554 9.96413C17.4646 9.97331 17.4694 9.9858 17.4688 9.99874C17.4652 10.0656 17.4236 10.0881 17.3961 10.1032C17.3628 10.1213 17.3285 10.1399 17.3223 10.2662C17.3217 10.2769 17.3175 10.287 17.3103 10.2946C17.278 10.3294 17.2095 10.3536 17.1624 10.364C17.1604 10.3645 17.1588 10.3663 17.1593 10.3684C17.1639 10.3837 17.1955 10.4092 17.2554 10.4316C17.2686 10.4366 17.2788 10.4474 17.2829 10.4611C17.2868 10.4746 17.2843 10.4894 17.2758 10.5007C17.2498 10.5359 17.2216 10.6087 17.1917 10.686C17.1273 10.8523 17.0544 11.0409 16.9267 11.0783C16.9153 11.0817 16.9035 11.0836 16.8919 11.0844C16.8855 11.0848 16.8805 11.0905 16.8795 11.0968C16.8771 11.1128 16.8663 11.1262 16.8514 11.1321C16.6154 11.224 16.5128 10.9922 16.4447 10.8387C16.4256 10.7956 16.3689 10.7956 16.3441 10.8358C16.3143 10.8844 16.2985 10.8916 16.2721 10.887C16.2352 10.8809 16.2303 10.8446 16.2278 10.8273C16.2276 10.8245 16.2245 10.8231 16.2222 10.8245C16.2123 10.8307 16.1981 10.8412 16.1782 10.859C16.1566 10.8782 16.1628 10.9128 16.1886 10.9257C16.2361 10.9496 16.2844 10.9754 16.3343 11.0019C16.5174 11.0991 16.7068 11.1998 16.8952 11.2264C16.9149 11.2291 16.9304 11.2446 16.9334 11.2642C16.9562 11.4125 16.9566 11.462 16.9152 11.4835C16.8761 11.5038 16.8428 11.4721 16.8076 11.4382C16.7731 11.4053 16.7277 11.3617 16.6796 11.3523C16.6752 11.3514 16.6723 11.3564 16.675 11.3601C16.737 11.4448 16.7819 11.5061 16.7468 11.5512C16.7152 11.5923 16.6554 11.5685 16.6267 11.5571C16.6225 11.5554 16.6184 11.553 16.615 11.5502C16.6031 11.5406 16.5862 11.5313 16.5676 11.523C16.5583 11.5189 16.5472 11.5296 16.5453 11.5396C16.542 11.5571 16.5287 11.5711 16.5113 11.5752C16.4357 11.5931 16.4369 11.6564 16.4682 11.7914L16.4712 11.805C16.4735 11.8149 16.4724 11.8253 16.4681 11.8345C16.4574 11.8568 16.4422 11.8903 16.4238 11.9307C16.3194 12.1602 16.212 12.3903 16.146 12.4609C16.1448 12.4621 16.1436 12.4633 16.1422 12.4644C16.0528 12.5408 15.9983 12.5932 15.9622 12.628C15.8892 12.6981 15.8696 12.7169 15.7927 12.6814C15.7657 12.6688 15.7255 12.6501 15.6494 12.6321C15.6031 12.6211 15.5561 12.6421 15.5229 12.6763C15.3899 12.8131 15.1682 12.9105 14.9841 12.9914C14.9352 13.013 14.888 13.0337 14.8458 13.0536C14.8176 13.067 14.7968 13.0915 14.783 13.1195C14.7159 13.2556 14.5767 13.3817 14.4303 13.4333C14.4282 13.4341 14.4261 13.4345 14.424 13.435C14.0371 13.512 13.6453 13.6814 13.2666 13.8451C13.1887 13.8787 13.1151 13.9106 13.0415 13.9416C13.0369 13.9434 13.0324 13.9446 13.0276 13.9449C12.9161 13.9544 12.4154 13.9314 12.2284 13.9207C12.1979 13.9189 12.168 13.9289 12.1422 13.9452C12.0362 14.0125 11.9394 14.0116 11.8454 14.0107C11.7737 14.0101 11.6998 14.0093 11.6156 14.0381C11.6031 14.0423 11.5895 14.0409 11.5781 14.0343C11.5138 13.9965 11.4604 13.9405 11.4088 13.8865C11.3692 13.845 11.3288 13.8027 11.2828 13.7675C11.2486 13.7414 11.2025 13.7447 11.1605 13.7541C11.0769 13.7728 10.9811 13.7498 10.9163 13.688C10.9124 13.6842 10.9091 13.6799 10.9068 13.6749C10.8412 13.5385 10.6186 13.5965 10.3828 13.6577C10.1384 13.7214 9.88564 13.787 9.72146 13.6675C9.71233 13.6609 9.70604 13.6511 9.70379 13.64C9.67225 13.4843 9.46245 13.3274 9.32591 13.2834C9.29452 13.2733 9.2732 13.2711 9.26003 13.2715C9.24844 13.272 9.24128 13.281 9.243 13.2925C9.24666 13.3168 9.26503 13.3699 9.34152 13.4719C9.35061 13.484 9.35301 13.5 9.3479 13.5141C9.34279 13.5284 9.33087 13.5393 9.31613 13.5429C9.20367 13.5704 9.20364 13.5704 9.18635 13.5569C9.04222 13.4475 8.97799 13.4764 8.90362 13.5098C8.79769 13.5575 8.70563 13.5773 8.54826 13.4064C8.50427 13.3587 8.43289 13.347 8.37464 13.3756C8.16462 13.4791 7.99009 13.4523 7.79334 13.4222C7.70306 13.4083 7.61021 13.394 7.50376 13.3893C7.47322 13.3879 7.44416 13.4 7.41809 13.416C7.30044 13.4879 7.16458 13.447 7.04282 13.4104C6.89987 13.3675 6.80895 13.3451 6.74359 13.4255C6.73147 13.4404 6.71126 13.446 6.69318 13.4393C6.62341 13.4141 6.55968 13.3236 6.4859 13.2188C6.41991 13.1251 6.32916 12.9968 6.2754 13.0035C6.25509 13.006 6.23207 13.0326 6.21026 13.0779C6.20165 13.0958 6.19941 13.1159 6.19956 13.1357C6.20135 13.3784 5.95141 13.528 5.72948 13.6609C5.67375 13.6943 5.62035 13.7262 5.57182 13.7587C5.54908 13.7739 5.53346 13.7972 5.52257 13.8223C5.45901 13.9689 5.31151 14.044 5.17912 14.0671C5.16899 14.0688 5.15897 14.0714 5.14966 14.0758C5.09365 14.1022 5.04887 14.1421 5.00174 14.1841C4.91297 14.2633 4.8127 14.3526 4.63588 14.3185C4.62932 14.3173 4.62263 14.3161 4.61599 14.3168C4.55675 14.3231 4.44745 14.4016 4.39304 14.4407C4.38175 14.4488 4.37147 14.4562 4.3625 14.4623C4.36011 14.464 4.35756 14.4655 4.35488 14.4667C4.2543 14.511 4.14308 14.5134 4.03552 14.5158C3.94227 14.5179 3.85418 14.5198 3.78774 14.5499C3.77697 14.5548 3.76473 14.5554 3.75364 14.5513C3.69471 14.5298 3.6272 14.5388 3.55568 14.5484C3.44304 14.5635 3.31536 14.5806 3.20358 14.4741C3.20271 14.4732 3.20188 14.4724 3.20108 14.4715C3.13886 14.4018 2.99966 14.3939 2.86798 14.4007C2.79531 14.4044 2.77816 14.4984 2.72083 14.5432C2.68508 14.5713 2.64667 14.548 2.58307 14.5093C2.4811 14.4473 2.29126 14.3318 2.01287 14.3362C2.00072 14.3358 1.98895 14.3317 1.98032 14.3231C1.85791 14.2015 1.8311 13.7884 1.80661 13.2181C1.79868 13.0336 1.78885 12.8049 1.7696 12.655C1.75961 12.5771 1.69174 12.5672 1.65956 12.6388C1.63425 12.695 1.60263 12.7744 1.56383 12.8862C1.55956 12.8986 1.55015 12.9085 1.53805 12.9133C1.48846 12.9333 1.44409 12.9336 1.40615 12.9141C1.36824 12.8946 1.34321 12.8593 1.32466 12.8166C1.31351 12.7909 1.27423 12.7933 1.2669 12.8203C1.26527 12.8268 1.26222 12.8328 1.25796 12.8381C1.23657 12.864 1.1715 12.9431 1.09931 12.9178C1.00021 12.8832 0.989541 12.6845 0.984589 12.3855C0.982873 12.2821 0.981113 12.1752 0.969719 12.1436C0.969524 12.1432 0.969343 12.1426 0.969162 12.142C0.963247 12.1233 0.934335 12.0831 0.908824 12.0477C0.868941 11.9923 0.806609 12.0012 0.834385 12.0637C0.837428 12.0705 0.840646 12.0776 0.843985 12.0849C0.858449 12.1167 0.873395 12.1495 0.882907 12.1856C0.884622 12.1921 0.884863 12.1989 0.883614 12.2055C0.801922 12.636 0.786969 13.0655 0.784846 13.4341C0.784719 13.4562 0.790506 13.4778 0.80162 13.4969C1.65979 14.9691 2.71607 16.4004 3.73785 17.7848C4.39298 18.6723 5.07038 19.5901 5.68752 20.5081C5.68793 20.5087 5.68832 20.5093 5.68871 20.51C5.88305 20.8323 6.45717 21.0839 7.44391 21.2797C8.31788 21.453 9.36682 21.5558 10.3812 21.6551C11.4496 21.7597 12.4591 21.8586 13.0367 22.0276ZM19.8463 23.0742C19.8448 23.0742 19.8432 23.0742 19.8415 23.0741C18.4874 22.9261 17.0871 22.715 15.7327 22.5107C14.8426 22.3765 13.9221 22.2377 13.0303 22.1194C13.0281 22.1191 13.0257 22.1185 13.0234 22.1179C12.4564 21.949 11.4441 21.8498 10.3724 21.7449C8.35859 21.5478 6.07616 21.3243 5.61195 20.5576C4.99611 19.6416 4.31949 18.7249 3.6652 17.8384C2.63278 16.4396 1.56522 14.993 0.700447 13.5026C0.696428 13.4956 0.694321 13.4878 0.694336 13.4798C0.695499 13.1083 0.707658 12.6711 0.787402 12.2291C0.790949 12.2094 0.790118 12.1891 0.78277 12.1705C0.776371 12.1543 0.769017 12.1381 0.761793 12.1223C0.719636 12.0297 0.667169 11.9144 0.824043 11.8003C0.838537 11.7898 0.857922 11.7889 0.873425 11.7979C0.888897 11.8071 0.897536 11.8244 0.895429 11.8423C0.892133 11.87 0.950665 11.9513 0.982106 11.9949C1.01553 12.0414 1.04443 12.0816 1.05497 12.1138C1.07038 12.1576 1.07258 12.2452 1.07488 12.384C1.07637 12.4737 1.07976 12.6786 1.10339 12.7782C1.10818 12.7984 1.15765 12.8145 1.17184 12.7994C1.17456 12.7965 1.18119 12.7874 1.1819 12.7835C1.19322 12.7208 1.23058 12.5135 1.23083 12.5121C1.23084 12.512 1.23084 12.512 1.23085 12.512C1.23409 12.4943 1.24764 12.4802 1.26527 12.4761C1.28293 12.4722 1.30127 12.4791 1.31188 12.4937C1.3404 12.5333 1.35502 12.593 1.37049 12.6563C1.38768 12.7267 1.40908 12.8141 1.44737 12.8337C1.46925 12.845 1.49074 12.8216 1.49906 12.7984C1.61887 12.4652 1.6822 12.4037 1.74875 12.4133C1.85377 12.4287 1.87188 12.6334 1.89683 13.2143C1.91227 13.5737 1.93096 14.0085 2.00371 14.1912C2.0182 14.2276 2.05581 14.2455 2.09492 14.2479C2.35366 14.264 2.53057 14.3716 2.62998 14.4321C2.63435 14.4348 2.63984 14.4306 2.63839 14.4257C2.63507 14.4143 2.63104 14.4012 2.62619 14.3859C2.62205 14.3728 2.62407 14.3585 2.63164 14.3472C2.63922 14.3358 2.65153 14.3284 2.66517 14.3272C2.6796 14.326 2.69494 14.3245 2.71098 14.3228C2.89597 14.3048 3.14903 14.2801 3.26709 14.4098C3.34722 14.4854 3.43828 14.473 3.54367 14.4589C3.6035 14.4509 3.66488 14.4426 3.72574 14.4517C3.75292 14.4557 3.78086 14.4547 3.80741 14.4476C3.87675 14.429 3.9534 14.4274 4.03352 14.4255C4.12606 14.4235 4.22157 14.4213 4.30248 14.3906C4.31058 14.3875 4.31814 14.3832 4.32518 14.3782C4.32998 14.3748 4.33505 14.3711 4.34035 14.3674C4.44973 14.2887 4.55477 14.2188 4.63689 14.2268C4.63874 14.2269 4.64056 14.2272 4.64238 14.2277C4.78213 14.2587 4.85254 14.1961 4.94165 14.1166C4.99757 14.0668 5.05539 14.0153 5.13543 13.9836C5.13882 13.9822 5.14237 13.9813 5.14598 13.9809C5.26991 13.964 5.41595 13.8931 5.45414 13.7441C5.45673 13.734 5.46274 13.7252 5.47114 13.719C5.53465 13.6723 5.60676 13.6291 5.6831 13.5834C5.90422 13.4511 6.13287 13.3141 6.10717 13.1048C6.10626 13.0974 6.10718 13.0899 6.10985 13.0829C6.15074 12.977 6.20128 12.9217 6.26436 12.9139C6.37221 12.9007 6.4633 13.03 6.55973 13.1668C6.58229 13.1988 6.60605 13.2325 6.6292 13.2626C6.66632 13.3107 6.73284 13.3055 6.7916 13.29C6.87914 13.2669 6.97805 13.2967 7.06885 13.3241C7.19652 13.3624 7.31709 13.3987 7.40729 13.3104C7.41574 13.3021 7.42709 13.2974 7.4389 13.2974C7.43883 13.2974 7.43896 13.2974 7.4389 13.2974C7.58015 13.2982 7.70078 13.3165 7.80703 13.3329C8.04298 13.3691 8.21349 13.3952 8.45803 13.2198C8.47808 13.2055 8.50598 13.2098 8.52064 13.2297C8.71672 13.495 8.78284 13.4652 8.86654 13.4275C8.94724 13.3911 9.04702 13.3462 9.22274 13.4715C9.22354 13.4721 9.22452 13.4723 9.22548 13.4721C9.22772 13.4716 9.2287 13.469 9.22742 13.467C9.15388 13.3563 9.13453 13.2793 9.16633 13.2276C9.18334 13.2 9.22112 13.1701 9.30462 13.185C9.45402 13.2115 9.69297 13.3722 9.77175 13.557C9.78416 13.5861 9.80248 13.6139 9.83225 13.6246C9.9665 13.6727 10.1661 13.6208 10.3601 13.5704C10.6077 13.5059 10.8634 13.4395 10.9721 13.6072C10.9806 13.6203 10.9898 13.6333 11.0029 13.6417C11.0615 13.6793 11.1433 13.6808 11.1949 13.6415C11.2083 13.6312 11.2263 13.6294 11.2415 13.6367C11.3388 13.6824 11.4076 13.7545 11.4741 13.824C11.5033 13.8548 11.5317 13.8845 11.5611 13.9102C11.589 13.9345 11.6277 13.939 11.6641 13.9321C11.7309 13.9193 11.7912 13.9199 11.8461 13.9204C11.9521 13.9214 12.0358 13.9222 12.1375 13.8368C12.1467 13.8292 12.1586 13.8254 12.1706 13.8264C12.2333 13.8322 12.8229 13.861 12.9924 13.8564C13.0064 13.856 13.0198 13.8527 13.0326 13.8473C13.0973 13.8199 13.1623 13.7917 13.2308 13.7622C13.5923 13.6059 14.0014 13.4291 14.3941 13.3489C14.4001 13.3477 14.406 13.3461 14.4117 13.3439C14.5495 13.2906 14.6818 13.1576 14.7225 13.0295C14.7261 13.0184 14.7339 13.0089 14.7443 13.0033C14.8018 12.9729 14.8727 12.9418 14.9478 12.9088C15.1565 12.817 15.4162 12.7029 15.5128 12.544C15.5223 12.5283 15.5403 12.52 15.5582 12.5228C15.719 12.5476 15.7917 12.5813 15.8308 12.5994C15.8427 12.6051 15.8565 12.6033 15.8662 12.5944C15.8757 12.5858 15.8875 12.5745 15.8997 12.5628C15.9362 12.5277 15.9914 12.4747 16.0816 12.3975C16.1437 12.3286 16.2722 12.0459 16.3415 11.8933C16.3488 11.8773 16.3556 11.8624 16.3618 11.8487C16.3734 11.8236 16.376 11.7954 16.3705 11.7682C16.3592 11.7127 16.3507 11.6449 16.3699 11.5888C16.3841 11.5476 16.3756 11.4945 16.3802 11.4511C16.3823 11.431 16.3955 11.414 16.4152 11.4058C16.4416 11.395 16.4852 11.3991 16.5451 11.4182C16.5592 11.4227 16.573 11.4277 16.5862 11.433C16.5977 11.4377 16.6096 11.4235 16.6022 11.4135C16.5448 11.3351 16.5102 11.2878 16.5441 11.249C16.5499 11.2424 16.5516 11.2124 16.5436 11.2088C16.4585 11.1701 16.3746 11.1255 16.292 11.0816C16.2045 11.0351 16.1219 10.9912 16.0415 10.9563C16.0281 10.9504 16.0183 10.9385 16.0153 10.9242C16.0123 10.9101 16.0164 10.8952 16.0262 10.8845C16.161 10.7362 16.2178 10.7149 16.2617 10.7286C16.2779 10.7335 16.2991 10.7309 16.307 10.7159C16.3244 10.6829 16.3413 10.6497 16.3502 10.6322C16.3565 10.6197 16.3683 10.6109 16.3821 10.6083C16.3958 10.6057 16.4101 10.6097 16.4205 10.619C16.4629 10.6569 16.4927 10.7242 16.5274 10.8022C16.5672 10.892 16.6029 10.9659 16.6456 11.0116C16.6593 11.0263 16.6807 11.0029 16.6886 10.9844C16.7071 10.9408 16.7626 10.9519 16.7926 10.9579C16.7989 10.9593 16.8049 10.9618 16.8102 10.9658C16.8448 10.991 16.8746 10.9995 16.9012 10.9916C16.9863 10.9667 17.0564 10.7856 17.1076 10.6533C17.1133 10.6384 17.119 10.6238 17.1246 10.6096C17.1498 10.5454 17.1134 10.4752 17.0811 10.4143C17.0776 10.4078 17.0748 10.4011 17.0728 10.3943C17.066 10.3717 17.0641 10.3365 17.0927 10.2975C17.1 10.2874 17.1113 10.2808 17.1238 10.2793C17.1385 10.2776 17.1579 10.2728 17.1769 10.2666C17.2139 10.2545 17.2339 10.2188 17.2417 10.1806C17.2616 10.0823 17.307 10.0488 17.3529 10.0239C17.3668 10.0162 17.3683 10.0006 17.3597 9.98724C17.2893 9.87737 17.2212 9.64769 17.2396 9.51787C17.2471 9.46489 17.2682 9.42817 17.302 9.40845C17.4737 9.28624 17.524 9.21656 17.5482 9.18299C17.593 9.12114 17.6205 9.12746 17.7022 9.14582C17.7304 9.15207 17.7693 9.16082 17.8231 9.17092C17.8513 9.17619 17.8826 9.17305 17.901 9.15111C17.9115 9.13855 17.9181 9.12436 17.9202 9.10909C17.9245 9.07719 17.9084 9.04302 17.8761 9.01548C17.8645 9.00554 17.8586 8.99049 17.8606 8.97544C17.8625 8.96024 17.8718 8.94715 17.8855 8.94053C18.1057 8.83276 18.3268 8.65878 18.5405 8.49066C18.7727 8.30785 19.0126 8.11912 19.2563 8.01104C19.2664 8.00655 19.2758 8.00103 19.2844 7.99408C19.6791 7.67546 20.2516 7.02442 20.566 6.41357C20.5732 6.39957 20.5773 6.38428 20.5794 6.36867C20.5985 6.22647 20.6659 6.19247 20.7062 6.18519C20.7414 6.17868 20.8067 6.12305 20.8046 6.08735C20.8027 6.05449 20.808 6.02293 20.8239 5.99344C20.826 5.98968 20.8284 5.98622 20.8314 5.98321C20.8391 5.97538 20.852 5.95882 20.8659 5.94122C20.8972 5.90113 20.9379 5.8492 20.9837 5.80946C21.0349 5.76515 21.0767 5.69578 21.0961 5.63096C21.0975 5.62635 21.099 5.62181 21.1007 5.61732C21.121 5.56239 21.1606 5.521 21.2119 5.50068C21.231 5.49315 21.2528 5.49933 21.2649 5.51603C21.2682 5.5204 21.2762 5.53078 21.2826 5.53048C21.3257 5.52837 21.4091 5.38931 21.4491 5.32248C21.4819 5.26785 21.5076 5.22465 21.531 5.20208C21.5359 5.19726 21.542 5.19349 21.5484 5.19139C21.5758 5.18236 21.596 5.18823 21.608 5.1947C21.6259 5.20418 21.6359 5.21938 21.6424 5.23473C21.6424 5.23488 21.6424 5.23458 21.6424 5.23473C21.653 5.19906 21.6654 5.15812 21.7066 5.15406C21.7183 5.15286 21.7305 5.14745 21.7345 5.13638C21.7637 5.05649 21.7907 4.96051 21.8186 4.86042C21.9059 4.54857 22.0048 4.19518 22.2387 4.08411C22.2575 4.07508 22.2799 4.08019 22.2931 4.0963C22.3062 4.1124 22.3067 4.13543 22.294 4.15199C22.1944 4.28413 22.1593 4.3928 22.2025 4.43569C22.2508 4.48352 22.3917 4.46935 22.5268 4.38582C22.5521 4.37019 22.5686 4.34418 22.5766 4.31555C22.6433 4.07775 22.8044 3.80351 23.0712 3.70143C23.1021 3.68958 23.129 3.66842 23.1462 3.6401C23.2049 3.5438 23.3218 3.38545 23.4563 3.38545C23.4572 3.38545 23.458 3.38528 23.4589 3.38494C23.7116 3.28279 23.9052 3.04959 24.0926 2.82406C24.171 2.72969 24.252 2.63231 24.3352 2.54773C24.3551 2.52706 24.3903 2.51844 24.4054 2.49405C24.4529 2.41738 24.5066 2.34367 24.558 2.2732C24.6031 2.21136 24.6472 2.15087 24.6809 2.09539C24.687 2.08545 24.668 2.05941 24.6575 2.05451C24.6135 2.03389 24.6295 1.98919 24.6587 1.90807C24.6782 1.85359 24.7064 1.78059 24.739 1.69616C24.826 1.47115 24.9573 1.131 24.9561 1.0419C24.9558 1.01767 24.9746 0.997501 24.9988 0.996147C25.0605 0.992987 25.1245 0.975828 25.1865 0.959423C25.2986 0.929623 25.4046 0.901325 25.4863 0.95882C25.5461 1.00081 25.5792 1.07907 25.5903 1.20505C25.627 1.46347 25.5679 1.96195 25.5116 2.33506C25.5104 2.34364 25.5066 2.35162 25.5009 2.35809C25.326 2.55676 25.3826 2.63728 25.4544 2.73932C25.509 2.81713 25.5771 2.91391 25.514 3.0599C25.5098 3.06953 25.5024 3.07751 25.4929 3.08218C25.3993 3.12974 25.3493 3.34165 25.3939 3.50224C25.4129 3.57072 25.4555 3.65095 25.55 3.64417C25.5683 3.64282 25.5855 3.65275 25.5936 3.66916C25.7182 3.92051 25.7852 3.92005 26.0709 3.80642C26.0799 3.80281 26.09 3.8022 26.0995 3.80491C26.7361 3.9795 26.643 4.78652 26.5814 5.32052C26.5768 5.35926 26.5726 5.39647 26.5687 5.43199C26.5665 5.452 26.5695 5.47218 26.5764 5.49106C26.714 5.86332 26.6677 6.29744 26.6229 6.71768C26.5757 7.16243 26.5266 7.62238 26.6908 8.01506C26.6968 8.02936 26.695 8.04576 26.6862 8.0584C26.6773 8.0712 26.6625 8.07842 26.647 8.07752C26.5186 8.0712 26.4375 8.08805 26.3916 8.1305C26.3278 8.18949 26.3245 8.30719 26.3198 8.47004L26.3188 8.5039C26.3185 8.51248 26.3158 8.52076 26.3111 8.52783C26.1511 8.76503 25.9657 8.86964 25.8022 8.9619C25.5918 9.0808 25.41 9.18344 25.3134 9.53744C25.3111 9.54617 25.3061 9.55384 25.2994 9.55971C25.1802 9.66311 25.0748 9.7033 24.9774 9.68283C24.8119 9.64791 24.7148 9.44277 24.621 9.24455C24.5476 9.08908 24.4716 8.92833 24.372 8.87054C24.364 8.86587 24.3577 8.8588 24.3537 8.85052C24.2847 8.70152 24.3227 8.63695 24.367 8.60896C24.3891 8.59494 24.4165 8.58879 24.4467 8.58883C24.5517 8.58894 24.6745 8.52073 24.645 8.4199C24.592 8.23927 24.5008 8.1258 24.3768 8.09136C24.1431 8.02665 23.8075 8.24619 23.5545 8.627C23.5474 8.63762 23.5421 8.64935 23.539 8.66172C23.4921 8.84947 23.5059 9.08447 23.5193 9.31213C23.5286 9.47024 23.5373 9.62041 23.5274 9.75668C23.526 9.77661 23.5288 9.79667 23.5366 9.81505C23.5432 9.8306 23.55 9.84611 23.5568 9.86133C23.6242 10.0145 23.6997 10.186 23.5422 10.3244C23.515 10.3483 23.4947 10.3798 23.4882 10.4155C23.4649 10.5438 23.4238 10.6096 23.3897 10.6643C23.3354 10.7516 23.3026 10.8043 23.4083 11.1163C23.4104 11.1229 23.4111 11.1298 23.4102 11.1366C23.3602 11.5207 23.4359 11.5843 23.5028 11.6403C23.6047 11.7258 23.6634 11.8127 23.5561 12.2234C23.555 12.2276 23.5532 12.2317 23.5509 12.2354C23.4418 12.414 23.3649 12.5727 23.3308 12.6856C23.3133 12.7434 23.3544 12.7968 23.4138 12.8074C23.8251 12.8806 24.0098 12.8457 24.1031 12.8281C24.2428 12.8018 24.2544 12.8364 24.3102 13.0033C24.3518 13.1278 24.4291 13.3596 24.6138 13.7581C24.6168 13.7644 24.6182 13.7714 24.618 13.7784C24.6141 13.9118 24.4162 13.9571 24.2717 13.99C24.2474 13.9956 24.224 14.001 24.2067 14.0059C24.1974 14.0084 24.1888 14.0126 24.1805 14.0174C24.1224 14.0503 23.9721 14.1209 23.8253 14.1804C23.5246 14.3023 23.4552 14.2942 23.4269 14.2772C23.4214 14.2739 23.4164 14.27 23.4108 14.2669C23.0542 14.0676 22.4612 14.1884 22.1459 14.4244C22.0892 14.4696 21.9994 14.4897 21.9124 14.5093C21.8486 14.5236 21.7951 14.5367 21.7557 14.5534C21.7063 14.5743 21.7141 14.6327 21.7518 14.6708C21.9902 14.9117 22.1213 15.1704 22.142 15.4415C22.1643 15.7317 22.06 16.0387 21.832 16.3544C21.8217 16.3687 21.8143 16.3849 21.8106 16.4022C21.7938 16.4808 21.7794 16.5514 21.7665 16.6144C21.6751 17.0629 21.6487 17.1923 21.286 17.6606C21.2712 17.6797 21.2621 17.7029 21.2597 17.727C21.2049 18.2808 20.9598 18.8346 20.7224 19.3707C20.5508 19.7584 20.3885 20.125 20.2942 20.4886C20.2926 20.4948 20.2915 20.501 20.2909 20.5073C20.2706 20.7252 20.2807 20.9713 20.2912 21.2317C20.3176 21.8799 20.3474 22.6147 19.8775 23.0619C19.8691 23.0699 19.8579 23.0742 19.8463 23.0742Z" fill="#2DD35C"/>
  <path d="M7.4389 13.2974C7.42709 13.2974 7.41574 13.3021 7.40729 13.3104C7.31709 13.3987 7.19652 13.3624 7.06885 13.3241C6.97805 13.2967 6.87914 13.2669 6.7916 13.29C6.73284 13.3055 6.66632 13.3107 6.6292 13.2626C6.60605 13.2325 6.58229 13.1988 6.55973 13.1668C6.4633 13.03 6.37221 12.9007 6.26436 12.9139C6.20128 12.9217 6.15074 12.977 6.10985 13.0829C6.10718 13.0899 6.10626 13.0974 6.10717 13.1048C6.13287 13.3141 5.90422 13.4511 5.6831 13.5834C5.60676 13.6291 5.53465 13.6723 5.47114 13.719C5.46274 13.7252 5.45673 13.734 5.45415 13.7441C5.41595 13.8931 5.26991 13.964 5.14598 13.9809C5.14237 13.9813 5.13882 13.9822 5.13543 13.9836C5.05539 14.0153 4.99757 14.0668 4.94165 14.1166C4.85254 14.1961 4.78213 14.2587 4.64238 14.2277C4.64056 14.2272 4.63874 14.2269 4.63689 14.2268C4.55477 14.2188 4.44973 14.2887 4.34035 14.3674C4.33505 14.3711 4.32998 14.3748 4.32518 14.3782C4.31814 14.3832 4.31058 14.3875 4.30248 14.3906C4.22157 14.4213 4.12606 14.4235 4.03352 14.4255C3.9534 14.4273 3.87675 14.429 3.80741 14.4476C3.78086 14.4547 3.75292 14.4557 3.72574 14.4517C3.66488 14.4426 3.6035 14.4509 3.54367 14.4589C3.43828 14.473 3.34722 14.4854 3.26709 14.4098C3.14903 14.2801 2.89597 14.3048 2.71098 14.3228C2.69494 14.3245 2.6796 14.326 2.66517 14.3272C2.65153 14.3284 2.63922 14.3358 2.63164 14.3472C2.62407 14.3585 2.62205 14.3728 2.62619 14.3859C2.63104 14.4012 2.63507 14.4143 2.63839 14.4257C2.63984 14.4306 2.63435 14.4348 2.62998 14.4321V14.4321C2.53057 14.3717 2.35366 14.264 2.09492 14.2479C2.05581 14.2455 2.0182 14.2276 2.0037 14.1912C1.93096 14.0085 1.91227 13.5737 1.89683 13.2143C1.87188 12.6334 1.85377 12.4287 1.74875 12.4133C1.6822 12.4037 1.61887 12.4652 1.49906 12.7984C1.49074 12.8216 1.46925 12.845 1.44737 12.8337V12.8337C1.40908 12.8141 1.38768 12.7267 1.37049 12.6563C1.35502 12.593 1.3404 12.5333 1.31188 12.4937C1.30127 12.4791 1.28293 12.4722 1.26527 12.4761C1.24764 12.4802 1.23409 12.4943 1.23085 12.512C1.23084 12.512 1.23084 12.512 1.23083 12.5121C1.23058 12.5135 1.19322 12.7208 1.1819 12.7835C1.18119 12.7874 1.17456 12.7965 1.17184 12.7994V12.7994C1.15765 12.8145 1.10818 12.7984 1.10339 12.7782C1.07976 12.6786 1.07637 12.4737 1.07488 12.384C1.07258 12.2452 1.07038 12.1576 1.05497 12.1138C1.04443 12.0816 1.01553 12.0414 0.982106 11.9949C0.950665 11.9513 0.892133 11.87 0.895429 11.8423C0.897536 11.8244 0.888897 11.8071 0.873425 11.7979C0.857922 11.7889 0.838537 11.7898 0.824043 11.8003C0.667169 11.9144 0.719636 12.0297 0.761793 12.1223C0.769017 12.1381 0.776371 12.1543 0.78277 12.1705C0.790118 12.1891 0.790949 12.2094 0.787402 12.2291C0.707658 12.6711 0.695499 13.1083 0.694336 13.4798C0.694321 13.4878 0.696428 13.4956 0.700447 13.5026C1.56522 14.993 2.63278 16.4396 3.6652 17.8384C4.31949 18.7249 4.99611 19.6416 5.61195 20.5576C6.07616 21.3243 8.35859 21.5478 10.3724 21.7449C11.4441 21.8498 12.4564 21.949 13.0234 22.1179C13.0257 22.1185 13.0281 22.1191 13.0303 22.1194C13.9221 22.2377 14.8426 22.3765 15.7327 22.5107C17.0871 22.715 18.4874 22.9261 19.8415 23.0741C19.8432 23.0742 19.8448 23.0742 19.8463 23.0742C19.8579 23.0742 19.8691 23.0699 19.8775 23.0619C20.3474 22.6147 20.3176 21.8799 20.2912 21.2317C20.2807 20.9713 20.2706 20.7252 20.2909 20.5073C20.2915 20.501 20.2926 20.4948 20.2942 20.4886C20.3885 20.125 20.5508 19.7584 20.7224 19.3707C20.9598 18.8346 21.2049 18.2808 21.2597 17.727C21.2621 17.7029 21.2712 17.6797 21.286 17.6606C21.6487 17.1923 21.6751 17.0629 21.7665 16.6144C21.7794 16.5514 21.7938 16.4808 21.8106 16.4022C21.8143 16.3849 21.8217 16.3687 21.832 16.3544C22.06 16.0387 22.1643 15.7317 22.142 15.4415C22.1213 15.1704 21.9902 14.9117 21.7518 14.6708C21.7141 14.6327 21.7063 14.5743 21.7557 14.5534C21.7951 14.5367 21.8486 14.5236 21.9124 14.5093C21.9994 14.4897 22.0892 14.4696 22.1459 14.4244C22.4612 14.1884 23.0542 14.0676 23.4108 14.2669C23.4164 14.27 23.4214 14.2739 23.4269 14.2772C23.4552 14.2942 23.5246 14.3023 23.8253 14.1804C23.9721 14.1209 24.1224 14.0503 24.1805 14.0174C24.1888 14.0126 24.1974 14.0084 24.2067 14.0059C24.224 14.001 24.2474 13.9956 24.2717 13.99C24.4162 13.9571 24.6141 13.9118 24.618 13.7784C24.6182 13.7714 24.6168 13.7644 24.6138 13.7581C24.4291 13.3596 24.3518 13.1278 24.3102 13.0033C24.2544 12.8364 24.2428 12.8018 24.1031 12.8281C24.0098 12.8457 23.8251 12.8806 23.4138 12.8074C23.3544 12.7968 23.3133 12.7434 23.3308 12.6856C23.3649 12.5727 23.4418 12.414 23.5509 12.2354C23.5532 12.2317 23.555 12.2276 23.5561 12.2234C23.6634 11.8127 23.6047 11.7258 23.5028 11.6403C23.4359 11.5843 23.3602 11.5207 23.4102 11.1366C23.4111 11.1298 23.4104 11.1229 23.4083 11.1163C23.3026 10.8043 23.3354 10.7516 23.3897 10.6643C23.4238 10.6096 23.4649 10.5438 23.4882 10.4155C23.4947 10.3798 23.515 10.3483 23.5422 10.3244C23.6997 10.186 23.6242 10.0145 23.5568 9.86133C23.55 9.84611 23.5432 9.8306 23.5366 9.81505C23.5288 9.79667 23.526 9.77661 23.5274 9.75668C23.5373 9.62041 23.5286 9.47024 23.5193 9.31213C23.5059 9.08447 23.4921 8.84947 23.539 8.66172C23.5421 8.64935 23.5474 8.63761 23.5545 8.627C23.8075 8.24619 24.1431 8.02665 24.3768 8.09136C24.5008 8.1258 24.592 8.23927 24.645 8.4199C24.6745 8.52072 24.5517 8.58894 24.4467 8.58883C24.4165 8.58879 24.3891 8.59494 24.367 8.60896C24.3227 8.63695 24.2847 8.70152 24.3537 8.85052C24.3577 8.8588 24.364 8.86587 24.372 8.87054C24.4716 8.92833 24.5476 9.08908 24.621 9.24455C24.7148 9.44277 24.8119 9.64791 24.9774 9.68283C25.0748 9.7033 25.1802 9.66311 25.2994 9.55971C25.3061 9.55384 25.3111 9.54617 25.3134 9.53744C25.41 9.18344 25.5918 9.0808 25.8022 8.9619C25.9657 8.86964 26.1511 8.76503 26.3111 8.52783C26.3158 8.52076 26.3185 8.51248 26.3188 8.5039L26.3198 8.47004C26.3245 8.30719 26.3278 8.18949 26.3916 8.1305C26.4375 8.08805 26.5186 8.0712 26.647 8.07752C26.6625 8.07842 26.6773 8.0712 26.6862 8.0584C26.695 8.04576 26.6968 8.02935 26.6908 8.01506C26.5266 7.62238 26.5757 7.16243 26.6229 6.71768C26.6677 6.29744 26.714 5.86332 26.5764 5.49106C26.5695 5.47218 26.5665 5.452 26.5687 5.43199C26.5726 5.39647 26.5768 5.35926 26.5814 5.32052C26.643 4.78652 26.7361 3.9795 26.0995 3.80491C26.09 3.8022 26.0799 3.80281 26.0709 3.80642C25.7852 3.92005 25.7182 3.92051 25.5936 3.66916C25.5855 3.65275 25.5683 3.64282 25.55 3.64417C25.4555 3.65094 25.4129 3.57073 25.3939 3.50224C25.3493 3.34165 25.3993 3.12974 25.4929 3.08218C25.5024 3.07751 25.5098 3.06953 25.514 3.0599C25.5771 2.91391 25.509 2.81713 25.4544 2.73932C25.3826 2.63728 25.326 2.55676 25.5009 2.35809C25.5066 2.35162 25.5104 2.34364 25.5116 2.33506C25.5679 1.96195 25.627 1.46347 25.5903 1.20505C25.5792 1.07907 25.5461 1.00081 25.4863 0.95882C25.4046 0.901326 25.2986 0.929622 25.1865 0.959422C25.1245 0.975828 25.0605 0.992986 24.9988 0.996147C24.9746 0.997501 24.9558 1.01767 24.9561 1.0419C24.9573 1.131 24.826 1.47115 24.739 1.69616C24.7064 1.78059 24.6782 1.85359 24.6587 1.90807C24.6295 1.98919 24.6135 2.03389 24.6575 2.05451V2.05451C24.668 2.05941 24.687 2.08544 24.6809 2.09539C24.6472 2.15087 24.6031 2.21136 24.558 2.2732C24.5066 2.34367 24.4529 2.41738 24.4054 2.49405C24.3903 2.51844 24.3551 2.52706 24.3352 2.54773V2.54773C24.252 2.63231 24.171 2.72969 24.0926 2.82406C23.9052 3.0496 23.7116 3.28279 23.4589 3.38494C23.458 3.38528 23.4572 3.38545 23.4563 3.38545V3.38545C23.3218 3.38545 23.2049 3.5438 23.1462 3.6401C23.129 3.66842 23.1021 3.68958 23.0712 3.70143C22.8044 3.80351 22.6433 4.07775 22.5766 4.31555C22.5686 4.34418 22.5521 4.37019 22.5268 4.38582C22.3917 4.46935 22.2508 4.48352 22.2025 4.43569C22.1593 4.3928 22.1944 4.28413 22.294 4.15198C22.3067 4.13543 22.3062 4.1124 22.2931 4.0963C22.2799 4.08019 22.2575 4.07508 22.2387 4.08411C22.0048 4.19518 21.9059 4.54857 21.8186 4.86042C21.7907 4.96051 21.7637 5.05649 21.7345 5.13638C21.7305 5.14745 21.7183 5.15287 21.7066 5.15406V5.15406C21.6654 5.15813 21.653 5.19906 21.6424 5.23473M7.4389 13.2974C7.43896 13.2974 7.43883 13.2974 7.4389 13.2974ZM7.4389 13.2974C7.58015 13.2982 7.70078 13.3165 7.80703 13.3329C8.04298 13.3691 8.21349 13.3952 8.45803 13.2198C8.47808 13.2055 8.50598 13.2098 8.52064 13.2297C8.71672 13.495 8.78284 13.4652 8.86654 13.4275C8.94724 13.3911 9.04702 13.3462 9.22274 13.4715C9.22354 13.4721 9.22452 13.4723 9.22548 13.4721V13.4721C9.22772 13.4716 9.2287 13.469 9.22742 13.467C9.15388 13.3563 9.13453 13.2793 9.16633 13.2276C9.18334 13.2 9.22112 13.1701 9.30462 13.185C9.45402 13.2115 9.69297 13.3722 9.77175 13.557C9.78416 13.586 9.80248 13.6139 9.83225 13.6246C9.9665 13.6727 10.1661 13.6208 10.3601 13.5704C10.6077 13.5059 10.8634 13.4395 10.9721 13.6072C10.9806 13.6203 10.9898 13.6333 11.0029 13.6417C11.0615 13.6793 11.1433 13.6808 11.1949 13.6415C11.2083 13.6312 11.2263 13.6294 11.2415 13.6367C11.3388 13.6824 11.4076 13.7545 11.4741 13.824C11.5033 13.8548 11.5317 13.8845 11.5611 13.9102C11.589 13.9345 11.6277 13.939 11.6641 13.9321C11.7309 13.9193 11.7911 13.9199 11.8461 13.9204C11.9521 13.9214 12.0358 13.9222 12.1375 13.8368C12.1467 13.8292 12.1586 13.8254 12.1706 13.8264C12.2333 13.8322 12.8229 13.861 12.9924 13.8564C13.0064 13.856 13.0198 13.8527 13.0327 13.8473C13.0973 13.8199 13.1623 13.7917 13.2308 13.7622C13.5923 13.6059 14.0014 13.4291 14.3941 13.3489C14.4001 13.3477 14.406 13.3461 14.4117 13.3439C14.5495 13.2906 14.6818 13.1576 14.7225 13.0295C14.7261 13.0184 14.7339 13.0089 14.7443 13.0033C14.8018 12.9729 14.8727 12.9418 14.9478 12.9088C15.1565 12.817 15.4162 12.7029 15.5128 12.544C15.5223 12.5283 15.5403 12.52 15.5582 12.5228C15.719 12.5476 15.7917 12.5813 15.8308 12.5994V12.5994C15.8427 12.6051 15.8565 12.6033 15.8662 12.5944C15.8757 12.5858 15.8875 12.5745 15.8997 12.5628C15.9362 12.5277 15.9914 12.4747 16.0816 12.3975C16.1437 12.3286 16.2722 12.0459 16.3415 11.8933C16.3488 11.8773 16.3556 11.8624 16.3618 11.8487C16.3734 11.8236 16.376 11.7954 16.3705 11.7682C16.3592 11.7127 16.3507 11.6449 16.3699 11.5888C16.3841 11.5476 16.3756 11.4945 16.3802 11.4511V11.4511C16.3823 11.431 16.3955 11.414 16.4152 11.4058C16.4416 11.395 16.4852 11.3991 16.5451 11.4182C16.5592 11.4227 16.573 11.4277 16.5862 11.433C16.5977 11.4377 16.6096 11.4235 16.6022 11.4135V11.4135C16.5448 11.3351 16.5102 11.2878 16.5441 11.249V11.249C16.5499 11.2424 16.5516 11.2124 16.5436 11.2088C16.4585 11.1701 16.3746 11.1255 16.292 11.0816C16.2045 11.0351 16.1219 10.9912 16.0415 10.9563C16.0281 10.9504 16.0183 10.9385 16.0153 10.9242C16.0123 10.9101 16.0164 10.8952 16.0262 10.8845C16.161 10.7362 16.2178 10.7149 16.2617 10.7286V10.7286C16.2779 10.7335 16.2991 10.7309 16.307 10.7159C16.3244 10.6829 16.3413 10.6497 16.3502 10.6322C16.3565 10.6197 16.3683 10.6109 16.3821 10.6083C16.3958 10.6057 16.4101 10.6097 16.4205 10.619C16.4629 10.6569 16.4927 10.7242 16.5274 10.8022C16.5672 10.892 16.6029 10.9659 16.6456 11.0116C16.6593 11.0263 16.6807 11.0029 16.6886 10.9844V10.9844C16.7071 10.9408 16.7626 10.9519 16.7926 10.9579C16.7989 10.9593 16.8049 10.9618 16.8102 10.9658C16.8448 10.991 16.8746 10.9995 16.9012 10.9916C16.9863 10.9667 17.0564 10.7856 17.1076 10.6533C17.1133 10.6384 17.119 10.6238 17.1246 10.6096C17.1498 10.5454 17.1134 10.4752 17.0811 10.4143C17.0776 10.4078 17.0748 10.4011 17.0728 10.3943C17.066 10.3717 17.0641 10.3365 17.0927 10.2975C17.1 10.2874 17.1113 10.2808 17.1238 10.2793C17.1385 10.2776 17.1579 10.2728 17.1769 10.2666C17.2139 10.2545 17.2339 10.2188 17.2417 10.1806C17.2616 10.0823 17.307 10.0488 17.3529 10.0239V10.0239C17.3668 10.0162 17.3683 10.0006 17.3597 9.98723C17.2893 9.87737 17.2212 9.64769 17.2396 9.51787C17.2471 9.46489 17.2682 9.42817 17.302 9.40845C17.4737 9.28624 17.524 9.21656 17.5482 9.18299C17.5929 9.12114 17.6205 9.12746 17.7022 9.14582C17.7304 9.15207 17.7693 9.16082 17.8231 9.17092C17.8513 9.17619 17.8826 9.17305 17.901 9.15111C17.9115 9.13855 17.9181 9.12436 17.9202 9.10909C17.9245 9.07719 17.9084 9.04302 17.8761 9.01548C17.8645 9.00554 17.8586 8.99049 17.8606 8.97544C17.8625 8.96024 17.8718 8.94715 17.8855 8.94053C18.1057 8.83276 18.3268 8.65878 18.5405 8.49066C18.7727 8.30785 19.0126 8.11912 19.2563 8.01104C19.2664 8.00655 19.2758 8.00103 19.2844 7.99408C19.6791 7.67546 20.2516 7.02442 20.566 6.41357C20.5732 6.39957 20.5773 6.38428 20.5794 6.36867C20.5985 6.22647 20.6659 6.19247 20.7062 6.18519V6.18519C20.7414 6.17868 20.8067 6.12305 20.8046 6.08735C20.8027 6.05449 20.808 6.02293 20.8239 5.99344C20.826 5.98968 20.8284 5.98622 20.8314 5.98321C20.8391 5.97538 20.852 5.95882 20.8659 5.94121C20.8972 5.90113 20.9379 5.8492 20.9837 5.80946C21.0349 5.76515 21.0767 5.69578 21.0961 5.63096C21.0975 5.62636 21.099 5.62181 21.1007 5.61732C21.121 5.56239 21.1606 5.521 21.2119 5.50068C21.231 5.49315 21.2528 5.49933 21.2649 5.51603C21.2682 5.5204 21.2762 5.53078 21.2826 5.53048C21.3257 5.52837 21.4091 5.38931 21.4491 5.32248C21.4819 5.26785 21.5076 5.22465 21.531 5.20208C21.5359 5.19726 21.542 5.1935 21.5484 5.19139C21.5758 5.18236 21.596 5.18823 21.608 5.1947C21.6259 5.20418 21.6359 5.21938 21.6424 5.23473M21.6424 5.23473C21.6424 5.23458 21.6424 5.23488 21.6424 5.23473ZM20.944 6.53828V6.53828C20.9436 6.53914 20.9427 6.53873 20.9429 6.53782C20.944 6.53362 20.945 6.5294 20.9458 6.52518C20.9466 6.52123 20.95 6.52139 20.949 6.52529C20.9478 6.52988 20.9461 6.53422 20.944 6.53828ZM15.7462 22.4215C14.8601 22.2878 13.9437 22.1496 13.0554 22.0316C13.049 22.0307 13.0429 22.0294 13.0367 22.0276C12.4591 21.8586 11.4496 21.7597 10.3812 21.6551C9.36682 21.5558 8.31788 21.453 7.44391 21.2797C6.45717 21.0839 5.88305 20.8323 5.68871 20.51C5.68832 20.5093 5.68793 20.5087 5.68752 20.5081C5.07038 19.5901 4.39298 18.6723 3.73785 17.7848C2.71607 16.4004 1.65979 14.9691 0.80162 13.4969C0.790506 13.4778 0.784719 13.4562 0.784846 13.4341C0.786969 13.0655 0.801922 12.636 0.883614 12.2055C0.884863 12.1989 0.884622 12.1921 0.882907 12.1856C0.873395 12.1495 0.858449 12.1167 0.843985 12.0849C0.840646 12.0776 0.837428 12.0705 0.834385 12.0637C0.806609 12.0012 0.868941 11.9923 0.908824 12.0477V12.0477C0.934335 12.0831 0.963247 12.1233 0.969162 12.142C0.969343 12.1426 0.969524 12.1432 0.969719 12.1436C0.981113 12.1752 0.982873 12.2821 0.984589 12.3855C0.989541 12.6845 1.00021 12.8832 1.09931 12.9178C1.1715 12.9431 1.23657 12.864 1.25796 12.8381C1.26222 12.8328 1.26527 12.8268 1.2669 12.8203V12.8203C1.27423 12.7933 1.31351 12.7909 1.32466 12.8166C1.34321 12.8593 1.36824 12.8946 1.40615 12.9141C1.44409 12.9336 1.48846 12.9333 1.53805 12.9133C1.55015 12.9085 1.55956 12.8986 1.56383 12.8862C1.60263 12.7744 1.63425 12.695 1.65956 12.6388C1.69174 12.5672 1.75961 12.5771 1.7696 12.655C1.78885 12.8049 1.79868 13.0336 1.80661 13.2181C1.8311 13.7884 1.85791 14.2015 1.98032 14.3231C1.98895 14.3317 2.00072 14.3358 2.01287 14.3362C2.29126 14.3318 2.4811 14.4473 2.58307 14.5093C2.64667 14.548 2.68508 14.5713 2.72083 14.5432V14.5432C2.77816 14.4984 2.79531 14.4044 2.86798 14.4007C2.99966 14.3939 3.13886 14.4018 3.20108 14.4715C3.20188 14.4724 3.20271 14.4732 3.20358 14.4741C3.31536 14.5806 3.44304 14.5635 3.55568 14.5484C3.6272 14.5388 3.69471 14.5298 3.75364 14.5513C3.76473 14.5554 3.77697 14.5548 3.78774 14.5499C3.85418 14.5198 3.94227 14.5179 4.03552 14.5158C4.14308 14.5134 4.2543 14.511 4.35488 14.4667C4.35756 14.4655 4.36011 14.464 4.3625 14.4623C4.37147 14.4562 4.38175 14.4488 4.39304 14.4407C4.44745 14.4016 4.55675 14.3231 4.61599 14.3168C4.62263 14.3161 4.62932 14.3173 4.63588 14.3185C4.8127 14.3526 4.91297 14.2633 5.00174 14.1841C5.04887 14.1421 5.09365 14.1022 5.14966 14.0758C5.15897 14.0714 5.16899 14.0688 5.17912 14.0671C5.31151 14.0439 5.45901 13.9689 5.52257 13.8223C5.53346 13.7972 5.54908 13.7739 5.57182 13.7587C5.62035 13.7262 5.67375 13.6943 5.72948 13.6609C5.95141 13.528 6.20135 13.3784 6.19956 13.1357C6.19941 13.1159 6.20165 13.0958 6.21026 13.0779C6.23207 13.0326 6.25509 13.006 6.2754 13.0035C6.32916 12.9968 6.41991 13.1251 6.4859 13.2188C6.55968 13.3236 6.62341 13.4141 6.69318 13.4393C6.71126 13.446 6.73147 13.4404 6.74359 13.4255C6.80895 13.3451 6.89987 13.3675 7.04282 13.4104C7.16458 13.447 7.30044 13.4879 7.41809 13.416C7.44416 13.4 7.47322 13.3879 7.50376 13.3893C7.61021 13.394 7.70306 13.4083 7.79335 13.4222C7.99009 13.4523 8.16462 13.4791 8.37464 13.3756C8.43289 13.347 8.50427 13.3587 8.54826 13.4064C8.70563 13.5773 8.79769 13.5575 8.90362 13.5098C8.97799 13.4764 9.04222 13.4475 9.18635 13.5569C9.20364 13.5704 9.20367 13.5704 9.31613 13.5429C9.33087 13.5393 9.34279 13.5284 9.3479 13.5141C9.35301 13.5 9.35061 13.484 9.34152 13.4719C9.26503 13.3699 9.24666 13.3168 9.243 13.2925C9.24128 13.281 9.24844 13.272 9.26003 13.2715C9.2732 13.2711 9.29452 13.2733 9.32591 13.2834C9.46246 13.3274 9.67225 13.4843 9.70379 13.64C9.70604 13.6511 9.71233 13.6609 9.72146 13.6675C9.88564 13.787 10.1384 13.7214 10.3828 13.6577C10.6186 13.5965 10.8412 13.5385 10.9068 13.6749C10.9091 13.6799 10.9124 13.6842 10.9163 13.688C10.9811 13.7498 11.0769 13.7728 11.1605 13.7541C11.2025 13.7447 11.2486 13.7414 11.2828 13.7675C11.3288 13.8027 11.3692 13.845 11.4088 13.8865C11.4604 13.9405 11.5138 13.9965 11.5781 14.0343C11.5895 14.0409 11.6031 14.0423 11.6156 14.0381C11.6998 14.0093 11.7737 14.0101 11.8454 14.0107C11.9394 14.0116 12.0362 14.0125 12.1422 13.9452C12.168 13.9289 12.1979 13.9189 12.2284 13.9207C12.4154 13.9314 12.9161 13.9544 13.0276 13.9449C13.0324 13.9446 13.0369 13.9434 13.0415 13.9416C13.1151 13.9106 13.1887 13.8787 13.2666 13.8451C13.6453 13.6814 14.0371 13.512 14.424 13.435C14.4261 13.4345 14.4282 13.4341 14.4303 13.4333C14.5767 13.3817 14.7159 13.2556 14.783 13.1195C14.7968 13.0915 14.8176 13.067 14.8458 13.0536C14.888 13.0337 14.9352 13.013 14.9841 12.9914C15.1682 12.9105 15.3899 12.8131 15.5229 12.6763C15.5561 12.6421 15.6031 12.6211 15.6494 12.6321C15.7255 12.6501 15.7657 12.6688 15.7927 12.6814C15.8696 12.7169 15.8892 12.6981 15.9622 12.628C15.9983 12.5932 16.0528 12.5408 16.1422 12.4644C16.1436 12.4633 16.1448 12.4621 16.146 12.4609C16.212 12.3903 16.3194 12.1602 16.4238 11.9307C16.4422 11.8903 16.4574 11.8568 16.4681 11.8345C16.4724 11.8253 16.4735 11.8149 16.4712 11.805L16.4682 11.7914C16.4369 11.6564 16.4357 11.5931 16.5113 11.5752C16.5287 11.5711 16.542 11.5571 16.5453 11.5396V11.5396C16.5472 11.5296 16.5583 11.5189 16.5676 11.523C16.5862 11.5313 16.6031 11.5406 16.615 11.5502C16.6184 11.553 16.6225 11.5554 16.6267 11.5571C16.6554 11.5685 16.7152 11.5923 16.7468 11.5512C16.7819 11.5061 16.737 11.4448 16.675 11.3601V11.3601C16.6723 11.3564 16.6752 11.3514 16.6796 11.3523C16.7277 11.3617 16.7731 11.4053 16.8076 11.4382C16.8428 11.4721 16.8761 11.5038 16.9152 11.4835C16.9566 11.462 16.9562 11.4125 16.9334 11.2642C16.9304 11.2446 16.9149 11.2291 16.8952 11.2264C16.7068 11.1998 16.5174 11.0991 16.3343 11.0019C16.2844 10.9754 16.2361 10.9496 16.1886 10.9257C16.1628 10.9128 16.1566 10.8782 16.1782 10.859C16.1981 10.8412 16.2123 10.8307 16.2222 10.8245C16.2245 10.8231 16.2276 10.8245 16.2278 10.8273V10.8273C16.2303 10.8446 16.2352 10.8809 16.2721 10.887C16.2985 10.8916 16.3143 10.8844 16.3441 10.8358C16.3689 10.7956 16.4256 10.7956 16.4447 10.8387V10.8387C16.5128 10.9922 16.6154 11.224 16.8514 11.1321C16.8663 11.1262 16.8771 11.1128 16.8795 11.0968V11.0968C16.8805 11.0905 16.8855 11.0848 16.8919 11.0844C16.9035 11.0836 16.9153 11.0817 16.9267 11.0783C17.0544 11.0409 17.1273 10.8523 17.1917 10.686C17.2216 10.6087 17.2498 10.5359 17.2758 10.5007C17.2843 10.4894 17.2868 10.4746 17.2829 10.4611C17.2788 10.4474 17.2686 10.4366 17.2554 10.4316C17.1955 10.4092 17.1639 10.3837 17.1593 10.3684V10.3684C17.1588 10.3663 17.1604 10.3645 17.1624 10.364C17.2095 10.3536 17.278 10.3294 17.3103 10.2946C17.3175 10.287 17.3217 10.2769 17.3223 10.2662C17.3285 10.1399 17.3628 10.1213 17.3961 10.1032C17.4236 10.0881 17.4652 10.0656 17.4688 9.99874C17.4694 9.9858 17.4646 9.97331 17.4554 9.96413C17.3994 9.90919 17.3114 9.65544 17.329 9.53051C17.3323 9.50749 17.3393 9.49093 17.3478 9.48642C17.3493 9.48551 17.3509 9.48461 17.3524 9.48356C17.5379 9.35171 17.5943 9.2736 17.6215 9.23597V9.23597C17.6272 9.2281 17.6365 9.22414 17.646 9.226C17.6563 9.228 17.6691 9.23088 17.6825 9.23386C17.7207 9.24244 17.7785 9.25554 17.8663 9.27044C17.8752 9.27194 17.8845 9.27074 17.8928 9.26683C17.9585 9.23642 18.0011 9.18345 18.0096 9.12144V9.12144C18.0193 9.05072 18.033 8.96549 18.0937 8.92803C18.2645 8.82274 18.4325 8.69054 18.5964 8.56155C18.8306 8.37733 19.0727 8.18679 19.3125 8.08504C19.3163 8.08339 19.3197 8.08128 19.3229 8.07887C19.732 7.75468 20.34 7.06505 20.6613 6.4251C20.6641 6.41983 20.6656 6.41411 20.666 6.40824C20.6717 6.33073 20.6933 6.27925 20.7223 6.27399C20.7535 6.26842 20.8081 6.308 20.8395 6.37618C20.8549 6.40944 20.8969 6.52503 20.7912 6.61142C20.7754 6.62452 20.7703 6.64649 20.7787 6.66516C20.7872 6.68382 20.8072 6.69435 20.8274 6.69104C20.9303 6.67358 20.9947 6.63716 21.0244 6.57967C21.0706 6.48951 21.0165 6.37874 20.9643 6.27158C20.9265 6.19406 20.8876 6.11429 20.8958 6.05998C20.8978 6.04681 20.9059 6.03571 20.9143 6.02541C20.9211 6.01713 20.9285 6.0076 20.9369 5.9969C20.9797 5.94227 21.0798 5.81434 21.1317 5.84534C21.149 5.85573 21.1711 5.85332 21.1859 5.83932C21.2006 5.82548 21.2042 5.8035 21.1947 5.78559C21.1734 5.74495 21.1698 5.69122 21.1854 5.64863V5.64863C21.1981 5.61475 21.2407 5.61869 21.2769 5.62062C21.2804 5.6208 21.2837 5.62079 21.2869 5.62064C21.3782 5.61642 21.4571 5.48488 21.5266 5.36899V5.36899C21.5434 5.34089 21.5877 5.34896 21.6186 5.3598C21.6297 5.3637 21.643 5.3649 21.6589 5.36191C21.6648 5.36071 21.6705 5.35845 21.6755 5.35529C21.6965 5.34139 21.7088 5.31876 21.7178 5.29474C21.7216 5.28458 21.7334 5.27967 21.7442 5.27944V5.27944C21.7614 5.27898 21.7768 5.2689 21.784 5.25355C21.8297 5.15602 21.8666 5.02432 21.9056 4.8848C21.942 4.75493 21.9805 4.61742 22.0291 4.49633C22.0417 4.46499 22.1149 4.47584 22.1389 4.49966V4.49966C22.2334 4.59342 22.4549 4.55866 22.6328 4.42215C22.6413 4.41567 22.6473 4.40634 22.6495 4.39596C22.7028 4.15229 22.8691 3.84134 23.1622 3.76714C23.1748 3.76398 23.1854 3.75555 23.1912 3.74396C23.2599 3.61046 23.3738 3.46928 23.4621 3.47591C23.4688 3.47636 23.4755 3.47545 23.4817 3.47304C23.761 3.36453 23.965 3.11905 24.1621 2.8817V2.8817C24.1764 2.86458 24.2124 2.88152 24.2176 2.9032C24.2194 2.91051 24.2219 2.91755 24.2252 2.9243C24.2345 2.94356 24.2547 2.9684 24.2975 2.97758C24.3111 2.98059 24.3254 2.97697 24.3361 2.96794C24.3468 2.95891 24.3527 2.94552 24.3521 2.93152C24.3429 2.72126 24.496 2.51145 24.631 2.32648C24.7679 2.1388 24.8862 1.97655 24.8075 1.8447V1.8447C24.7992 1.83082 24.7905 1.81397 24.7963 1.79887C24.8052 1.77552 24.8143 1.75182 24.8233 1.72867C24.9115 1.50026 24.9853 1.30537 25.0218 1.17435C25.0367 1.1208 25.081 1.07852 25.1351 1.06579C25.1603 1.05988 25.1851 1.05327 25.2097 1.04672C25.3048 1.02143 25.3871 0.999456 25.4344 1.03272C25.4699 1.05755 25.4922 1.11866 25.5003 1.21423V1.21423C25.5006 1.21592 25.5007 1.21758 25.501 1.21929C25.5277 1.40956 25.5031 1.77319 25.4296 2.27317C25.4262 2.29625 25.416 2.31793 25.4015 2.33621C25.2208 2.56418 25.3088 2.68948 25.3805 2.79125C25.4225 2.85112 25.4574 2.90083 25.4472 2.96975C25.4432 2.99684 25.4232 3.01766 25.4033 3.03647C25.2954 3.1385 25.2613 3.36228 25.3068 3.52632C25.3341 3.62467 25.3868 3.69122 25.4568 3.71948C25.4975 3.73589 25.5375 3.75887 25.5605 3.79618C25.6896 4.00522 25.8176 3.99876 26.0498 3.91141C26.0757 3.90164 26.1045 3.89987 26.1305 3.90953C26.3432 3.98845 26.4691 4.16676 26.515 4.453C26.559 4.72722 26.5217 5.05036 26.4917 5.31014C26.4854 5.36462 26.4794 5.4161 26.4745 5.46441C26.4738 5.47178 26.4748 5.47916 26.4777 5.48608C26.625 5.84579 26.5803 6.26465 26.5332 6.7082C26.4934 7.08179 26.4525 7.4657 26.5341 7.81996C26.5532 7.90282 26.492 7.98369 26.4126 8.01414C26.3802 8.02659 26.3529 8.04324 26.3302 8.06427C26.2385 8.14901 26.2346 8.28958 26.2295 8.46748V8.46748C26.2291 8.48094 26.2249 8.49405 26.217 8.505C26.0737 8.70504 25.9132 8.79561 25.7578 8.88333C25.549 9.00123 25.3511 9.11307 25.2409 9.4636C25.2335 9.48736 25.22 9.50911 25.2 9.52406C25.1218 9.58279 25.0533 9.6065 24.9961 9.59433C24.8743 9.56874 24.787 9.38422 24.7026 9.20587C24.6327 9.05808 24.5607 8.90579 24.46 8.82229C24.4413 8.80686 24.4244 8.78864 24.4168 8.7657C24.4014 8.71958 24.4038 8.6925 24.4153 8.68527C24.4614 8.65607 24.6319 8.72289 24.7074 8.81335C24.7198 8.82825 24.7401 8.83351 24.7582 8.82674C24.7762 8.81982 24.7878 8.80236 24.7872 8.7831C24.7691 8.22306 24.5672 8.05058 24.4008 8.00437C24.1209 7.92686 23.7445 8.16602 23.4644 8.59993C23.462 8.60354 23.4602 8.6076 23.4588 8.61197C23.3998 8.81831 23.4147 9.07207 23.429 9.3174C23.4391 9.48792 23.4484 9.64896 23.434 9.78894C23.4332 9.79616 23.4341 9.80354 23.4368 9.81031C23.4486 9.83981 23.4615 9.86931 23.4742 9.89775C23.5562 10.0842 23.5947 10.1947 23.431 10.2939C23.4189 10.3011 23.411 10.3138 23.4095 10.3278C23.3926 10.4889 23.3505 10.5567 23.3131 10.6166C23.2457 10.7248 23.2115 10.8029 23.3104 11.1084C23.3162 11.1261 23.318 11.1451 23.3159 11.1637C23.2733 11.5326 23.3459 11.6265 23.4447 11.7096C23.5103 11.7645 23.567 11.8123 23.475 12.1761C23.472 12.1879 23.4672 12.1995 23.4609 12.2099C23.3545 12.3864 23.1963 12.6818 23.224 12.8332C23.2273 12.8513 23.2412 12.8656 23.2591 12.8694C23.7847 12.98 24.011 12.9372 24.1199 12.9168C24.1308 12.9147 24.1425 12.9125 24.1524 12.911C24.1677 12.9086 24.1814 12.9149 24.1877 12.929C24.1977 12.9515 24.2105 12.9898 24.2246 13.0319C24.2648 13.1523 24.338 13.3717 24.5069 13.7417C24.5194 13.7691 24.5212 13.8017 24.4966 13.8188C24.4384 13.8593 24.3135 13.8878 24.2515 13.902C24.2109 13.9113 24.1789 13.9187 24.1567 13.927C24.1531 13.9283 24.1498 13.93 24.1468 13.9323C24.0724 13.9841 23.5522 14.2082 23.4693 14.1962C23.4689 14.1961 23.4686 14.196 23.4683 14.1958V14.1958C23.468 14.1956 23.4677 14.1954 23.4674 14.1952C23.0818 13.9695 22.433 14.0967 22.0909 14.3529C22.0493 14.386 21.9697 14.4039 21.8926 14.4212C21.7591 14.4512 21.6079 14.4852 21.5919 14.6181C21.5903 14.6326 21.5957 14.6472 21.6065 14.6569C22.1535 15.1502 22.1977 15.7131 21.7379 16.33C21.734 16.3353 21.7313 16.3411 21.7299 16.3474C21.7098 16.4412 21.6929 16.5237 21.678 16.5964C21.5852 17.0521 21.563 17.1605 21.1836 17.6451C21.1782 17.6522 21.1749 17.6606 21.1743 17.6695C21.1311 18.2246 20.8814 18.7887 20.6398 19.3341C20.4723 19.7125 20.2991 20.1038 20.2034 20.4789C20.2029 20.4811 20.2024 20.4834 20.2023 20.4856C20.1797 20.7128 20.1901 20.9667 20.2009 21.2353C20.2267 21.8659 20.2532 22.5171 19.8711 22.9392C19.846 22.967 19.8087 22.9796 19.7715 22.9755C18.4441 22.8284 17.0731 22.6215 15.7462 22.4215ZM16.8336 11.3392C16.8323 11.338 16.831 11.3369 16.8297 11.3357C16.8209 11.3282 16.8306 11.3069 16.8419 11.3091V11.3091C16.8462 11.3099 16.8494 11.3133 16.85 11.3175C16.8506 11.3218 16.8511 11.3259 16.8516 11.3299C16.8529 11.3397 16.8411 11.3457 16.8336 11.3392Z" stroke="#2DD35C" stroke-width="1.10743"/>
</svg>