<svg xmlns="http://www.w3.org/2000/svg" width="27" height="26" viewBox="0 0 27 26" fill="none">
  <path d="M5.16667 22.7476C4.57083 22.7476 4.06094 22.5356 3.637 22.1116C3.21306 21.6877 3.00072 21.1774 3 20.5809V8.66411C3 8.06827 3.21233 7.55838 3.637 7.13443C4.06167 6.71049 4.57156 6.49815 5.16667 6.49743H9.5V4.33075C9.5 3.73491 9.71233 3.22502 10.137 2.80107C10.5617 2.37712 11.0716 2.16478 11.6667 2.16406H16C16.5958 2.16406 17.1061 2.3764 17.5308 2.80107C17.9554 3.22574 18.1674 3.73563 18.1667 4.33075V6.49743H22.5C23.0958 6.49743 23.6061 6.70976 24.0308 7.13443C24.4554 7.5591 24.6674 8.069 24.6667 8.66411V20.5809C24.6667 21.1767 24.4547 21.687 24.0308 22.1116C23.6068 22.5363 23.0966 22.7483 22.5 22.7476H5.16667ZM11.6667 6.49743H16V4.33075H11.6667V6.49743ZM13.8333 16.7892C14.4292 16.7892 14.9394 16.5772 15.3641 16.1533C15.7888 15.7293 16.0007 15.2191 16 14.6225C16 14.0267 15.788 13.5168 15.3641 13.0928C14.9401 12.6689 14.4299 12.4565 13.8333 12.4558C13.2375 12.4558 12.7276 12.6681 12.3037 13.0928C11.8797 13.5175 11.6674 14.0274 11.6667 14.6225C11.6667 15.2183 11.879 15.7286 12.3037 16.1533C12.7283 16.5779 13.2382 16.7899 13.8333 16.7892Z" fill="#2DD35C"/>
</svg>