<svg xmlns="http://www.w3.org/2000/svg" width="25" height="26" viewBox="0 0 25 26" fill="none">
  <path fill-rule="evenodd" clip-rule="evenodd" d="M12 8.93169C11.1713 8.93285 10.3586 8.70267 9.65355 8.26706C9.04597 7.89127 8.53679 7.37597 8.16829 6.76394C7.19329 7.36518 6.37104 8.18906 5.76979 9.16244C6.43183 9.55918 6.97977 10.1207 7.36022 10.7922C7.74067 11.4637 7.94064 12.2224 7.94064 12.9942C7.94064 13.766 7.74067 14.5246 7.36022 15.1962C6.97977 15.8677 6.43183 16.4292 5.76979 16.8259C6.37104 17.8009 7.19492 18.6232 8.16829 19.2244C8.56504 18.5624 9.12654 18.0145 9.79806 17.634C10.4696 17.2536 11.2282 17.0536 12 17.0536C12.7719 17.0536 13.5305 17.2536 14.202 17.634C14.8736 18.0145 15.4351 18.5624 15.8318 19.2244C16.8068 18.6232 17.629 17.7993 18.2303 16.8259L18.1848 16.7983C17.531 16.3964 16.9918 15.8327 16.6193 15.1617C16.2467 14.4907 16.0534 13.735 16.058 12.9676C16.0626 12.2001 16.2649 11.4468 16.6454 10.7803C17.0259 10.1137 17.5717 9.55655 18.2303 9.16244C17.6287 8.1869 16.8073 7.36554 15.8318 6.76394L15.8042 6.80943C15.404 7.45855 14.8443 7.99438 14.1784 8.36588C13.5125 8.73738 12.7626 8.93217 12 8.93169ZM16.4672 4.32481C16.4358 3.16091 15.9514 2.05523 15.117 1.24311C14.2827 0.430987 13.1644 -0.0234375 12 -0.0234375C10.8357 -0.0234375 9.71738 0.430987 8.88306 1.24311C8.04873 2.05523 7.56432 3.16091 7.53292 4.32481C5.73067 5.25642 4.26228 6.72481 3.33067 8.52706C2.16677 8.55846 1.06109 9.04287 0.248968 9.8772C-0.563154 10.7115 -1.01758 11.8299 -1.01758 12.9942C-1.01758 14.1585 -0.563154 15.2769 0.248968 16.1112C1.06109 16.9455 2.16677 17.4299 3.33067 17.4613C4.26228 19.2636 5.73067 20.732 7.53292 21.6636C7.56097 22.6249 7.89853 23.5515 8.49541 24.3056C9.09229 25.0598 9.91661 25.6011 10.8458 25.8492C11.775 26.0973 12.7595 26.0389 13.6528 25.6826C14.5462 25.3264 15.3007 24.6914 15.8042 23.8719C16.2023 23.2252 16.4428 22.4712 16.4672 21.6619C18.2691 20.7307 19.7375 19.2629 20.6694 17.4613C21.8304 17.4258 22.9318 16.9396 23.7403 16.1056C24.5487 15.2717 25.0006 14.1557 25 12.9942C25.0002 11.8328 24.5482 10.717 23.7398 9.88319C22.9315 9.04935 21.8302 8.56296 20.6694 8.52706C19.7377 6.72488 18.2694 5.25651 16.4672 4.32481ZM14.0313 4.46293C14.0313 5.00166 13.8173 5.51831 13.4364 5.89925C13.0554 6.28018 12.5388 6.49418 12 6.49418C11.4613 6.49418 10.9447 6.28018 10.5637 5.89925C10.1828 5.51831 9.96879 5.00166 9.96879 4.46293C9.96879 3.92421 10.1828 3.40756 10.5637 3.02662C10.9447 2.64569 11.4613 2.43169 12 2.43169C12.5388 2.43169 13.0554 2.64569 13.4364 3.02662C13.8173 3.40756 14.0313 3.92421 14.0313 4.46293ZM5.50004 12.9942C5.50004 13.5329 5.28604 14.0496 4.90511 14.4305C4.52417 14.8114 4.00752 15.0254 3.46879 15.0254C2.93007 15.0254 2.41342 14.8114 2.03248 14.4305C1.65155 14.0496 1.43754 13.5329 1.43754 12.9942C1.43754 12.4555 1.65155 11.9388 2.03248 11.5579C2.41342 11.1769 2.93007 10.9629 3.46879 10.9629C4.00752 10.9629 4.52417 11.1769 4.90511 11.5579C5.28604 11.9388 5.50004 12.4555 5.50004 12.9942ZM14.0313 21.5254C14.0313 22.0642 13.8173 22.5808 13.4364 22.9617C13.0554 23.3427 12.5388 23.5567 12 23.5567C11.4613 23.5567 10.9447 23.3427 10.5637 22.9617C10.1828 22.5808 9.96879 22.0642 9.96879 21.5254C9.96879 20.9867 10.1828 20.4701 10.5637 20.0891C10.9447 19.7082 11.4613 19.4942 12 19.4942C12.5388 19.4942 13.0554 19.7082 13.4364 20.0891C13.8173 20.4701 14.0313 20.9867 14.0313 21.5254ZM20.5313 15.0254C21.07 15.0254 21.5867 14.8114 21.9676 14.4305C22.3485 14.0496 22.5625 13.5329 22.5625 12.9942C22.5625 12.4555 22.3485 11.9388 21.9676 11.5579C21.5867 11.1769 21.07 10.9629 20.5313 10.9629C19.9926 10.9629 19.4759 11.1769 19.095 11.5579C18.7141 11.9388 18.5 12.4555 18.5 12.9942C18.5 13.5329 18.7141 14.0496 19.095 14.4305C19.4759 14.8114 19.9926 15.0254 20.5313 15.0254Z" fill="#2DD35C"/>
</svg>