<svg xmlns="http://www.w3.org/2000/svg" width="20" height="24" viewBox="0 0 20 24" fill="none">
  <path d="M2.6875 2.25H12.2344C12.795 2.25 13.25 2.705 13.25 3.26562V10.375C13.25 10.5905 13.3356 10.7972 13.488 10.9495C13.6403 11.1019 13.847 11.1875 14.0625 11.1875H17.1094C17.67 11.1875 18.125 11.6425 18.125 12.2031V21.75H15.6875V18.9062C15.6875 18.583 15.5591 18.273 15.3305 18.0445C15.102 17.8159 14.792 17.6875 14.4688 17.6875H5.53125C5.20802 17.6875 4.89802 17.8159 4.66946 18.0445C4.4409 18.273 4.3125 18.583 4.3125 18.9062V21.75H1.875V3.0625C1.875 2.84701 1.9606 2.64035 2.11298 2.48798C2.26535 2.3356 2.47201 2.25 2.6875 2.25ZM14.0625 21.75H10.8125V19.3125H14.0625V21.75ZM9.1875 21.75H5.9375V19.3125H9.1875V21.75ZM18.9375 23.375C19.153 23.375 19.3597 23.2894 19.512 23.137C19.6644 22.9847 19.75 22.778 19.75 22.5625V12.2031C19.75 11.8564 19.6817 11.513 19.549 11.1926C19.4163 10.8722 19.2218 10.5811 18.9766 10.3359C18.7314 10.0907 18.4403 9.89621 18.1199 9.76351C17.7995 9.6308 17.4561 9.5625 17.1094 9.5625H14.875V3.26562C14.875 2.91885 14.8067 2.57548 14.674 2.2551C14.5413 1.93473 14.3468 1.64363 14.1016 1.39842C13.8564 1.15322 13.5653 0.958709 13.2449 0.826006C12.9245 0.693302 12.5811 0.625 12.2344 0.625H2.6875C2.04103 0.625 1.42105 0.881807 0.963927 1.33893C0.506807 1.79605 0.25 2.41603 0.25 3.0625V22.5625C0.25 22.778 0.335603 22.9847 0.487976 23.137C0.640349 23.2894 0.847012 23.375 1.0625 23.375H18.9375ZM5.53125 7.125C5.85448 7.125 6.16448 6.9966 6.39304 6.76804C6.6216 6.53948 6.75 6.22948 6.75 5.90625C6.75 5.58302 6.6216 5.27302 6.39304 5.04446C6.16448 4.8159 5.85448 4.6875 5.53125 4.6875C5.20802 4.6875 4.89802 4.8159 4.66946 5.04446C4.4409 5.27302 4.3125 5.58302 4.3125 5.90625C4.3125 6.22948 4.4409 6.53948 4.66946 6.76804C4.89802 6.9966 5.20802 7.125 5.53125 7.125ZM5.53125 11.1875C5.85448 11.1875 6.16448 11.0591 6.39304 10.8305C6.6216 10.602 6.75 10.292 6.75 9.96875C6.75 9.64552 6.6216 9.33552 6.39304 9.10696C6.16448 8.8784 5.85448 8.75 5.53125 8.75C5.20802 8.75 4.89802 8.8784 4.66946 9.10696C4.4409 9.33552 4.3125 9.64552 4.3125 9.96875C4.3125 10.292 4.4409 10.602 4.66946 10.8305C4.89802 11.0591 5.20802 11.1875 5.53125 11.1875ZM6.75 14.0312C6.75 14.3545 6.6216 14.6645 6.39304 14.893C6.16448 15.1216 5.85448 15.25 5.53125 15.25C5.20802 15.25 4.89802 15.1216 4.66946 14.893C4.4409 14.6645 4.3125 14.3545 4.3125 14.0312C4.3125 13.708 4.4409 13.398 4.66946 13.1695C4.89802 12.9409 5.20802 12.8125 5.53125 12.8125C5.85448 12.8125 6.16448 12.9409 6.39304 13.1695C6.6216 13.398 6.75 13.708 6.75 14.0312ZM9.59375 7.125C9.91698 7.125 10.227 6.9966 10.4555 6.76804C10.6841 6.53948 10.8125 6.22948 10.8125 5.90625C10.8125 5.58302 10.6841 5.27302 10.4555 5.04446C10.227 4.8159 9.91698 4.6875 9.59375 4.6875C9.27052 4.6875 8.96052 4.8159 8.73196 5.04446C8.5034 5.27302 8.375 5.58302 8.375 5.90625C8.375 6.22948 8.5034 6.53948 8.73196 6.76804C8.96052 6.9966 9.27052 7.125 9.59375 7.125ZM10.8125 9.96875C10.8125 10.292 10.6841 10.602 10.4555 10.8305C10.227 11.0591 9.91698 11.1875 9.59375 11.1875C9.27052 11.1875 8.96052 11.0591 8.73196 10.8305C8.5034 10.602 8.375 10.292 8.375 9.96875C8.375 9.64552 8.5034 9.33552 8.73196 9.10696C8.96052 8.8784 9.27052 8.75 9.59375 8.75C9.91698 8.75 10.227 8.8784 10.4555 9.10696C10.6841 9.33552 10.8125 9.64552 10.8125 9.96875ZM9.59375 15.25C9.91698 15.25 10.227 15.1216 10.4555 14.893C10.6841 14.6645 10.8125 14.3545 10.8125 14.0312C10.8125 13.708 10.6841 13.398 10.4555 13.1695C10.227 12.9409 9.91698 12.8125 9.59375 12.8125C9.27052 12.8125 8.96052 12.9409 8.73196 13.1695C8.5034 13.398 8.375 13.708 8.375 14.0312C8.375 14.3545 8.5034 14.6645 8.73196 14.893C8.96052 15.1216 9.27052 15.25 9.59375 15.25ZM14.875 14.0312C14.875 14.3545 14.7466 14.6645 14.518 14.893C14.2895 15.1216 13.9795 15.25 13.6562 15.25C13.333 15.25 13.023 15.1216 12.7945 14.893C12.5659 14.6645 12.4375 14.3545 12.4375 14.0312C12.4375 13.708 12.5659 13.398 12.7945 13.1695C13.023 12.9409 13.333 12.8125 13.6562 12.8125C13.9795 12.8125 14.2895 12.9409 14.518 13.1695C14.7466 13.398 14.875 13.708 14.875 14.0312Z" fill="#2DD35C"/>
</svg>