<svg xmlns="http://www.w3.org/2000/svg" width="19" height="22" viewBox="0 0 19 22" fill="none">
  <path fill-rule="evenodd" clip-rule="evenodd" d="M2.6 0.601562C1.91044 0.601563 1.24912 0.87549 0.761522 1.36308C0.273928 1.85068 0 2.512 0 3.20156V21.4016L4.55 18.8016L9.1 21.4016L13.65 18.8016L18.2 21.4016V3.20156C18.2 2.512 17.9261 1.85068 17.4385 1.36308C16.9509 0.87549 16.2896 0.601563 15.6 0.601562H2.6ZM5.85 4.50156C5.33283 4.50156 4.83684 4.70701 4.47114 5.0727C4.10545 5.4384 3.9 5.93439 3.9 6.45156C3.9 6.96873 4.10545 7.46473 4.47114 7.83042C4.83684 8.19612 5.33283 8.40156 5.85 8.40156C6.36717 8.40156 6.86316 8.19612 7.22886 7.83042C7.59455 7.46473 7.8 6.96873 7.8 6.45156C7.8 5.93439 7.59455 5.4384 7.22886 5.0727C6.86316 4.70701 6.36717 4.50156 5.85 4.50156ZM13.9191 4.88246C13.6753 4.63875 13.3447 4.50184 13 4.50184C12.6553 4.50184 12.3247 4.63875 12.0809 4.88246L4.2809 12.6825C4.15674 12.8024 4.0577 12.9458 3.98957 13.1044C3.92144 13.263 3.88557 13.4336 3.88407 13.6062C3.88257 13.7789 3.91547 13.95 3.98083 14.1098C4.0462 14.2696 4.14273 14.4147 4.26479 14.5368C4.38685 14.6588 4.53199 14.7554 4.69176 14.8207C4.85153 14.8861 5.02271 14.919 5.19532 14.9175C5.36794 14.916 5.53852 14.8801 5.69713 14.812C5.85573 14.7439 5.99918 14.6448 6.1191 14.5207L13.9191 6.72066C14.1628 6.47688 14.2997 6.14628 14.2997 5.80156C14.2997 5.45685 14.1628 5.12625 13.9191 4.88246ZM12.35 11.0016C11.8328 11.0016 11.3368 11.207 10.9711 11.5727C10.6054 11.9384 10.4 12.4344 10.4 12.9516C10.4 13.4687 10.6054 13.9647 10.9711 14.3304C11.3368 14.6961 11.8328 14.9016 12.35 14.9016C12.8672 14.9016 13.3632 14.6961 13.7289 14.3304C14.0946 13.9647 14.3 13.4687 14.3 12.9516C14.3 12.4344 14.0946 11.9384 13.7289 11.5727C13.3632 11.207 12.8672 11.0016 12.35 11.0016Z" fill="#2DD35C"/>
</svg>