<svg xmlns="http://www.w3.org/2000/svg" width="26" height="26" viewBox="0 0 26 26" fill="none">
  <path d="M16.7128 17.5281L20.5587 13.6823C20.7753 13.4656 21.0281 13.3616 21.317 13.3703C21.6059 13.379 21.8587 13.492 22.0753 13.7094C22.2739 13.926 22.3732 14.1788 22.3732 14.4677C22.3732 14.7566 22.2739 15.0094 22.0753 15.226L17.4982 19.8302C17.2816 20.0469 17.0288 20.1552 16.7399 20.1552C16.451 20.1552 16.1982 20.0469 15.9816 19.8302L13.6524 17.501C13.4538 17.3024 13.3545 17.0497 13.3545 16.7427C13.3545 16.4358 13.4538 16.183 13.6524 15.9844C13.851 15.7858 14.1038 15.6865 14.4107 15.6865C14.7177 15.6865 14.9705 15.7858 15.1691 15.9844L16.7128 17.5281ZM16.7128 8.86146L20.5587 5.01563C20.7753 4.79896 21.0281 4.69496 21.317 4.70362C21.6059 4.71229 21.8587 4.82532 22.0753 5.04271C22.2739 5.25938 22.3732 5.51215 22.3732 5.80104C22.3732 6.08993 22.2739 6.34271 22.0753 6.55938L17.4982 11.1635C17.2816 11.3802 17.0288 11.4885 16.7399 11.4885C16.451 11.4885 16.1982 11.3802 15.9816 11.1635L13.6524 8.83437C13.4538 8.63576 13.3545 8.38299 13.3545 8.07604C13.3545 7.7691 13.4538 7.51632 13.6524 7.31771C13.851 7.1191 14.1038 7.01979 14.4107 7.01979C14.7177 7.01979 14.9705 7.1191 15.1691 7.31771L16.7128 8.86146ZM2.25033 18.4219C1.94338 18.4219 1.68627 18.3179 1.47899 18.1099C1.27171 17.9019 1.16771 17.6448 1.16699 17.3385C1.16699 17.0316 1.27099 16.7745 1.47899 16.5672C1.68699 16.3599 1.9441 16.2559 2.25033 16.2552H9.83366C10.1406 16.2552 10.3981 16.3592 10.6061 16.5672C10.8141 16.7752 10.9177 17.0323 10.917 17.3385C10.917 17.6455 10.813 17.903 10.605 18.111C10.397 18.319 10.1399 18.4226 9.83366 18.4219H2.25033ZM2.25033 9.75521C1.94338 9.75521 1.68627 9.65121 1.47899 9.44321C1.27171 9.23521 1.16771 8.9781 1.16699 8.67187C1.16699 8.36493 1.27099 8.10782 1.47899 7.90054C1.68699 7.69326 1.9441 7.58926 2.25033 7.58854H9.83366C10.1406 7.58854 10.3981 7.69254 10.6061 7.90054C10.8141 8.10854 10.9177 8.36565 10.917 8.67187C10.917 8.97882 10.813 9.23629 10.605 9.44429C10.397 9.65229 10.1399 9.75593 9.83366 9.75521H2.25033Z" fill="#2DD35C"/>
</svg>