<svg xmlns="http://www.w3.org/2000/svg" width="16" height="17" viewBox="0 0 16 17" fill="none">
  <path d="M8 1.65281C10.1205 1.65281 10.4096 1.65281 11.2771 1.65281C12.0482 1.65281 12.4337 1.84559 12.7229 1.94197C13.1084 2.13474 13.3976 2.23113 13.6867 2.52029C13.9759 2.80944 14.1687 3.0986 14.2651 3.48414C14.3614 3.7733 14.4578 4.15884 14.5542 4.92992C14.5542 5.79739 14.5542 5.99016 14.5542 8.20703C14.5542 10.4239 14.5542 10.6167 14.5542 11.4841C14.5542 12.2552 14.3614 12.6408 14.2651 12.9299C14.0723 13.3155 13.9759 13.6046 13.6867 13.8938C13.3976 14.1829 13.1084 14.3757 12.7229 14.4721C12.4337 14.5685 12.0482 14.6649 11.2771 14.7612C10.4096 14.7612 10.2169 14.7612 8 14.7612C5.78313 14.7612 5.59036 14.7612 4.72289 14.7612C3.95181 14.7612 3.56627 14.5685 3.27711 14.4721C2.89157 14.2793 2.60241 14.1829 2.31325 13.8938C2.0241 13.6046 1.83133 13.3155 1.73494 12.9299C1.63855 12.6408 1.54217 12.2552 1.44578 11.4841C1.44578 10.6167 1.44578 10.4239 1.44578 8.20703C1.44578 5.99016 1.44578 5.79739 1.44578 4.92992C1.44578 4.15884 1.63855 3.7733 1.73494 3.48414C1.92771 3.0986 2.0241 2.80944 2.31325 2.52029C2.60241 2.23113 2.89157 2.03836 3.27711 1.94197C3.56627 1.84559 3.95181 1.7492 4.72289 1.65281C5.59036 1.65281 5.87952 1.65281 8 1.65281ZM8 0.207031C5.78313 0.207031 5.59036 0.207031 4.72289 0.207031C3.85542 0.207031 3.27711 0.399803 2.79518 0.592574C2.31325 0.785345 1.83133 1.0745 1.3494 1.55643C0.867471 2.03836 0.674699 2.4239 0.385543 3.00221C0.192772 3.48414 0.0963856 4.06245 0 4.92992C0 5.79739 0 6.08655 0 8.20703C0 10.4239 0 10.6167 0 11.4841C0 12.3516 0.192772 12.9299 0.385543 13.4119C0.578314 13.8938 0.867471 14.3757 1.3494 14.8576C1.83133 15.3396 2.21687 15.5323 2.79518 15.8215C3.27711 16.0143 3.85542 16.1106 4.72289 16.207C5.59036 16.207 5.87952 16.207 8 16.207C10.1205 16.207 10.4096 16.207 11.2771 16.207C12.1446 16.207 12.7229 16.0143 13.2048 15.8215C13.6867 15.6287 14.1687 15.3396 14.6506 14.8576C15.1325 14.3757 15.3253 13.9902 15.6145 13.4119C15.8072 12.9299 15.9036 12.3516 16 11.4841C16 10.6167 16 10.3275 16 8.20703C16 6.08655 16 5.79739 16 4.92992C16 4.06245 15.8072 3.48414 15.6145 3.00221C15.4217 2.52029 15.1325 2.03836 14.6506 1.55643C14.1687 1.0745 13.7831 0.881731 13.2048 0.592574C12.7229 0.399803 12.1446 0.303417 11.2771 0.207031C10.4096 0.207031 10.2169 0.207031 8 0.207031Z" fill="white"/>
  <path d="M8 4.06245C5.68675 4.06245 3.85542 5.89378 3.85542 8.20703C3.85542 10.5203 5.68675 12.3516 8 12.3516C10.3133 12.3516 12.1446 10.5203 12.1446 8.20703C12.1446 5.89378 10.3133 4.06245 8 4.06245ZM8 10.9058C6.55422 10.9058 5.30121 9.7492 5.30121 8.20703C5.30121 6.76125 6.45783 5.50824 8 5.50824C9.44578 5.50824 10.6988 6.66486 10.6988 8.20703C10.6988 9.65282 9.44578 10.9058 8 10.9058Z" fill="white"/>
  <path d="M12.241 4.92992C12.7733 4.92992 13.2048 4.49839 13.2048 3.96607C13.2048 3.43375 12.7733 3.00221 12.241 3.00221C11.7086 3.00221 11.2771 3.43375 11.2771 3.96607C11.2771 4.49839 11.7086 4.92992 12.241 4.92992Z" fill="white"/>
</svg>