<svg xmlns="http://www.w3.org/2000/svg" width="15" height="16" viewBox="0 0 15 16" fill="none">
  <g clip-path="url(#clip0_1291_4788)">
    <path d="M12.7781 13.4903H10.5595V10.0089C10.5595 9.17875 10.5422 8.11188 9.39937 8.11188C8.2425 8.11188 8.06625 9.01234 8.06625 9.9475V13.4898H5.84484V6.33156H7.97859V7.30797H8.00719C8.30531 6.74406 9.03047 6.15109 10.1123 6.15109C12.3628 6.15109 12.7805 7.63281 12.7805 9.55937V13.4898L12.7781 13.4903ZM3.33516 5.35328C3.1656 5.35334 2.99769 5.31995 2.84106 5.25502C2.68442 5.19009 2.54214 5.0949 2.42235 4.9749C2.30257 4.85489 2.20763 4.71243 2.14299 4.55568C2.07834 4.39893 2.04525 4.23096 2.04562 4.06141C2.0459 3.8062 2.12185 3.5568 2.26386 3.34475C2.40587 3.13269 2.60756 2.96751 2.84344 2.87008C3.07932 2.77265 3.3388 2.74735 3.58906 2.79738C3.83932 2.84741 4.06912 2.97052 4.24942 3.15114C4.42972 3.33177 4.55241 3.5618 4.60198 3.81215C4.65156 4.0625 4.62578 4.32192 4.52793 4.55763C4.43007 4.79333 4.26452 4.99473 4.05221 5.13635C3.8399 5.27798 3.59037 5.35347 3.33516 5.35328ZM4.44797 13.4903H2.22187V6.33203H4.44797V13.4903ZM13.8919 0.707031H1.10625C0.495469 0.707031 0 1.19031 0 1.78844V14.6261C0 15.2242 0.495469 15.7075 1.10625 15.7075H13.8895C14.4994 15.7075 15 15.2242 15 14.6261V1.78844C15 1.19031 14.4994 0.707031 13.8895 0.707031H13.8919Z" fill="white"/>
  </g>
  <defs>
    <clipPath id="clip0_1291_4788">
      <rect width="15" height="15" fill="white" transform="translate(0 0.707031)"/>
    </clipPath>
  </defs>
</svg>