<svg xmlns="http://www.w3.org/2000/svg" width="50" height="34" viewBox="0 0 50 34" fill="none">
  <path d="M0.12922 0.184788C0.115822 0.158213 0.102424 0.131637 0.0890253 0.105061C0.20684 0.0933457 0.313432 0.0811152 0.412232 0.0697787C0.636669 0.0440266 0.820895 0.0228882 1.00512 0.0228882C1.53289 0.0228882 2.06085 0.0252679 2.5889 0.0276479C3.9975 0.0339969 5.40673 0.0403487 6.81456 0.00154164C7.61439 -0.0224681 8.05696 0.230972 8.41422 0.972607M0.12922 0.184788C0.100351 0.187721 0.0707309 0.19064 0.0402982 0.193523C5.58322 11.188 11.0501 22.0303 16.6405 33.1118L16.6871 33.0193M0.12922 0.184788C0.238593 0.173674 0.337179 0.162342 0.428286 0.15187C0.648744 0.126529 0.825408 0.106222 1.00512 0.106222C1.53205 0.106222 2.05951 0.1086 2.58728 0.110979C3.99634 0.11733 5.40759 0.123691 6.81686 0.0848444L6.81706 0.0848383C7.20831 0.0730935 7.50103 0.129641 7.7375 0.271429C7.97374 0.413077 8.16438 0.646127 8.33892 1.00831M0.12922 0.184788C5.658 11.1512 11.1113 21.9666 16.6871 33.0193M16.6871 33.0193C16.7027 33.0501 16.7182 33.081 16.7338 33.1118L24.9213 16.8637L24.8936 16.8084L24.9681 16.771L25.0425 16.8085L25.0146 16.8638L33.1731 33.1143C33.1887 33.0834 33.2043 33.0526 33.2199 33.0217M16.6871 33.0193L24.8936 16.7335L24.9682 16.5856L25.0425 16.7336L33.2199 33.0217M33.2199 33.0217L33.2664 33.1144C38.8669 22.0206 44.3573 11.1527 49.9578 0.111553C49.9267 0.111551 49.8955 0.111546 49.8644 0.111539M33.2199 33.0217C38.8044 21.9596 44.2797 11.1215 49.8644 0.111539M49.8644 0.111539C49.8785 0.0837651 49.8926 0.0559892 49.9067 0.0282128C49.3643 0.0281268 48.83 0.0273125 48.3022 0.0265077C46.2629 0.0233977 44.3203 0.0204353 42.3777 0.0602325M49.8644 0.111539C49.3362 0.111419 48.8158 0.110626 48.3016 0.109842C46.2624 0.106733 44.3211 0.103772 42.3796 0.143545M42.3777 0.0602325C42.1458 0.065568 41.8445 0.468398 41.7032 0.735173M42.3777 0.0602325L42.3796 0.143545M42.3777 0.0602325L42.3794 0.143549C42.3795 0.143548 42.3796 0.143546 42.3796 0.143545M41.7032 0.735173C41.1199 1.89323 40.5642 3.06699 40.0089 4.23961C39.917 4.43386 39.825 4.62807 39.7329 4.82217M41.7032 0.735173L41.7776 0.772658C41.7775 0.772917 41.7774 0.773176 41.7772 0.773435M41.7032 0.735173L41.7768 0.774179C41.777 0.773931 41.7771 0.773683 41.7772 0.773435M39.7329 4.82217C39.0928 6.17806 38.4526 7.53481 37.8124 8.89156C36.8529 10.925 35.8934 12.9584 34.934 14.989C34.5898 15.7136 34.2251 16.4286 33.8311 17.2012C33.6532 17.55 33.4693 17.9105 33.2787 18.2889C33.2879 18.306 33.2971 18.323 33.3063 18.34L33.233 18.3797L33.1585 18.3422C33.1673 18.3249 33.176 18.3076 33.1847 18.2903C32.8895 17.7445 32.5973 17.2057 32.3079 16.6722C31.1091 14.4621 29.9604 12.3444 28.8659 10.203C28.6793 9.83754 28.8019 9.18394 29.0045 8.77044M39.7329 4.82217L39.8083 4.85775C39.8083 4.85779 39.8083 4.85784 39.8082 4.85788M39.7329 4.82217L39.8082 4.85788M29.0045 8.77044C29.8024 7.12765 30.6444 5.50282 31.4869 3.87707C31.8156 3.2429 32.1443 2.60858 32.4705 1.97301C32.6815 1.56161 32.88 1.14642 33.1015 0.683043C33.1897 0.498459 33.2816 0.30623 33.3794 0.103549C33.3485 0.103544 33.3176 0.103534 33.2868 0.103518M29.0045 8.77044L28.9296 8.73403C28.9296 8.73398 28.9296 8.73394 28.9296 8.7339M29.0045 8.77044L28.9297 8.73377C28.9297 8.73381 28.9297 8.73385 28.9296 8.7339M33.2868 0.103518C33.3001 0.0759458 33.3135 0.0481758 33.3271 0.0202011C32.803 0.0200161 32.2898 0.0183042 31.785 0.0166199C30.1701 0.0112316 28.6407 0.00612878 27.1143 0.0522295M33.2868 0.103518C33.1952 0.293661 33.1088 0.474418 33.0257 0.648229C32.8045 1.11105 32.6069 1.52461 32.3963 1.93497C32.0705 2.56988 31.742 3.2038 31.4134 3.83775C30.5708 5.46383 29.728 7.09011 28.9296 8.7339M33.2868 0.103518C32.7761 0.103263 32.2758 0.101594 31.7837 0.0999525C30.1692 0.0945666 28.6418 0.0894711 27.117 0.13552M27.1143 0.0522295C26.8023 0.0629005 26.3864 0.425719 26.2211 0.732511C24.4634 3.98525 22.7208 7.24554 20.9783 10.5058C19.9825 12.3688 18.9868 14.2318 17.9882 16.0934C17.7266 16.5792 17.4349 17.0494 17.1188 17.559C16.9807 17.7817 16.8378 18.0119 16.6908 18.2542C16.6987 18.2708 16.7066 18.2874 16.7144 18.3039L16.6392 18.3397L16.5678 18.2966C16.5773 18.2808 16.5868 18.2651 16.5963 18.2494C16.0033 17.001 15.4144 15.7626 14.8292 14.5318C12.6483 9.94537 10.5181 5.46555 8.41422 0.972607M27.1143 0.0522295L27.1171 0.135515C27.1171 0.135517 27.117 0.135518 27.117 0.13552M27.1143 0.0522295L27.1168 0.135526C27.1168 0.135524 27.1169 0.135522 27.117 0.13552M8.41422 0.972607L8.33914 1.00877C8.33907 1.00862 8.339 1.00847 8.33892 1.00831M8.41422 0.972607L8.33875 1.00795C8.33881 1.00807 8.33887 1.00819 8.33892 1.00831M8.33892 1.00831C10.4429 5.50135 12.5731 9.98131 14.7539 14.5676C15.3533 15.828 15.9564 17.0965 16.5639 18.3754L16.6304 18.5155L16.7105 18.3827C16.8745 18.111 17.0339 17.8539 17.1879 17.6057C17.5049 17.0947 17.7988 16.621 18.0616 16.1329L18.0616 16.1328C19.0603 14.2711 20.056 12.4081 21.0517 10.5451C22.7943 7.28488 24.5368 4.02482 26.2944 0.772128L26.2945 0.772039C26.3708 0.630334 26.5081 0.471255 26.6646 0.346499C26.8233 0.220111 26.9878 0.139999 27.117 0.13552M42.3796 0.143545C42.3443 0.144357 42.2978 0.161056 42.241 0.199442C42.1853 0.237131 42.1265 0.291193 42.0682 0.355594C41.9518 0.484156 41.8452 0.64527 41.7772 0.773435M41.7772 0.773435C41.1946 1.93033 40.6394 3.10288 40.0842 4.27536C39.9923 4.46956 39.9003 4.66376 39.8082 4.85788M39.8082 4.85788C39.168 6.21382 38.5278 7.57064 37.8876 8.92747C36.9282 10.9608 35.9687 12.9941 35.0093 15.0246L35.0092 15.0247C34.6646 15.7504 34.299 16.4671 33.9046 17.2404C33.7127 17.6167 33.5139 18.0064 33.3074 18.4171L33.2356 18.5599L33.1597 18.4193C32.8483 17.8432 32.54 17.2749 32.2349 16.7125C31.036 14.5022 29.8867 12.3834 28.7917 10.2409L28.7917 10.2409C28.6872 10.0364 28.6731 9.76176 28.7066 9.49438C28.7403 9.22475 28.8242 8.94911 28.9296 8.7339" fill="#D9D9D9" stroke="#009D46" stroke-width="0.166668"/>
</svg>