<svg xmlns="http://www.w3.org/2000/svg" width="50" height="34" viewBox="0 0 50 34" fill="none">
  <path d="M0.12922 0.372288C0.115822 0.345713 0.102424 0.319137 0.0890253 0.292561C0.20684 0.280846 0.313432 0.268615 0.412232 0.257279C0.636669 0.231527 0.820895 0.210388 1.00512 0.210388C1.53289 0.210388 2.06085 0.212768 2.5889 0.215148C3.9975 0.221497 5.40673 0.227849 6.81456 0.189042C7.61439 0.165032 8.05696 0.418472 8.41422 1.16011M0.12922 0.372288C0.100351 0.375221 0.0707309 0.37814 0.0402982 0.381023C5.58322 11.3755 11.0501 22.2178 16.6405 33.2993L16.6871 33.2068M0.12922 0.372288C0.238593 0.361174 0.337179 0.349842 0.428286 0.33937C0.648744 0.314029 0.825408 0.293722 1.00512 0.293722C1.53205 0.293722 2.05951 0.2961 2.58728 0.298479C3.99634 0.30483 5.40759 0.311191 6.81686 0.272344L6.81706 0.272338C7.20831 0.260593 7.50103 0.317141 7.7375 0.458929C7.97374 0.600577 8.16438 0.833627 8.33892 1.19581M0.12922 0.372288C5.658 11.3387 11.1113 22.1541 16.6871 33.2068M16.6871 33.2068C16.7027 33.2376 16.7182 33.2685 16.7338 33.2993L24.9213 17.0512L24.8936 16.9959L24.9681 16.9585L25.0425 16.996L25.0146 17.0513L33.1731 33.3018C33.1887 33.2709 33.2043 33.2401 33.2199 33.2092M16.6871 33.2068L24.8936 16.921L24.9682 16.7731L25.0425 16.9211L33.2199 33.2092M33.2199 33.2092L33.2664 33.3019C38.8669 22.2081 44.3573 11.3402 49.9578 0.299053C49.9267 0.299051 49.8955 0.299046 49.8644 0.299039M33.2199 33.2092C38.8044 22.1471 44.2797 11.309 49.8644 0.299039M49.8644 0.299039C49.8785 0.271265 49.8926 0.243489 49.9067 0.215713C49.3643 0.215627 48.83 0.214813 48.3022 0.214008C46.2629 0.210898 44.3203 0.207935 42.3777 0.247732M49.8644 0.299039C49.3362 0.298919 48.8158 0.298126 48.3016 0.297342C46.2624 0.294233 44.3211 0.291272 42.3796 0.331045M42.3777 0.247732C42.1458 0.253068 41.8445 0.655898 41.7032 0.922673M42.3777 0.247732L42.3796 0.331045M42.3777 0.247732L42.3794 0.331049C42.3795 0.331048 42.3796 0.331046 42.3796 0.331045M41.7032 0.922673C41.1199 2.08073 40.5642 3.25449 40.0089 4.42711C39.917 4.62136 39.825 4.81557 39.7329 5.00967M41.7032 0.922673L41.7776 0.960158C41.7775 0.960417 41.7774 0.960676 41.7772 0.960935M41.7032 0.922673L41.7768 0.961679C41.777 0.961431 41.7771 0.961183 41.7772 0.960935M39.7329 5.00967C39.0928 6.36556 38.4526 7.72231 37.8124 9.07906C36.8529 11.1125 35.8934 13.1459 34.934 15.1765C34.5898 15.9011 34.2251 16.6161 33.8311 17.3887C33.6532 17.7375 33.4693 18.098 33.2787 18.4764C33.2879 18.4935 33.2971 18.5105 33.3063 18.5275L33.233 18.5672L33.1585 18.5297C33.1673 18.5124 33.176 18.4951 33.1847 18.4778C32.8895 17.932 32.5973 17.3932 32.3079 16.8597C31.1091 14.6496 29.9604 12.5319 28.8659 10.3905C28.6793 10.025 28.8019 9.37144 29.0045 8.95794M39.7329 5.00967L39.8083 5.04525C39.8083 5.04529 39.8083 5.04534 39.8082 5.04538M39.7329 5.00967L39.8082 5.04538M29.0045 8.95794C29.8024 7.31515 30.6444 5.69032 31.4869 4.06457C31.8156 3.4304 32.1443 2.79608 32.4705 2.16051C32.6815 1.74911 32.88 1.33392 33.1015 0.870543C33.1897 0.685959 33.2816 0.49373 33.3794 0.291049C33.3485 0.291044 33.3176 0.291034 33.2868 0.291018M29.0045 8.95794L28.9296 8.92153C28.9296 8.92148 28.9296 8.92144 28.9296 8.9214M29.0045 8.95794L28.9297 8.92127C28.9297 8.92131 28.9297 8.92135 28.9296 8.9214M33.2868 0.291018C33.3001 0.263446 33.3135 0.235676 33.3271 0.207701C32.803 0.207516 32.2898 0.205804 31.785 0.20412C30.1701 0.198732 28.6407 0.193629 27.1143 0.23973M33.2868 0.291018C33.1952 0.481161 33.1088 0.661918 33.0257 0.835729C32.8045 1.29855 32.6069 1.71211 32.3963 2.12247C32.0705 2.75738 31.742 3.3913 31.4134 4.02525C30.5708 5.65133 29.728 7.27761 28.9296 8.9214M33.2868 0.291018C32.7761 0.290763 32.2758 0.289094 31.7837 0.287452C30.1692 0.282067 28.6418 0.276971 27.117 0.32302M27.1143 0.23973C26.8023 0.250401 26.3864 0.613219 26.2211 0.920011C24.4634 4.17275 22.7208 7.43304 20.9783 10.6933C19.9825 12.5563 18.9868 14.4193 17.9882 16.2809C17.7266 16.7667 17.4349 17.2369 17.1188 17.7465C16.9807 17.9692 16.8378 18.1994 16.6908 18.4417C16.6987 18.4583 16.7066 18.4749 16.7144 18.4914L16.6392 18.5272L16.5678 18.4841C16.5773 18.4683 16.5868 18.4526 16.5963 18.4369C16.0033 17.1885 15.4144 15.9501 14.8292 14.7193C12.6483 10.1329 10.5181 5.65305 8.41422 1.16011M27.1143 0.23973L27.1171 0.323015C27.1171 0.323017 27.117 0.323018 27.117 0.32302M27.1143 0.23973L27.1168 0.323026C27.1168 0.323024 27.1169 0.323022 27.117 0.32302M8.41422 1.16011L8.33914 1.19627C8.33907 1.19612 8.339 1.19597 8.33892 1.19581M8.41422 1.16011L8.33875 1.19545C8.33881 1.19557 8.33887 1.19569 8.33892 1.19581M8.33892 1.19581C10.4429 5.68885 12.5731 10.1688 14.7539 14.7551C15.3533 16.0155 15.9564 17.284 16.5639 18.5629L16.6304 18.703L16.7105 18.5702C16.8745 18.2985 17.0339 18.0414 17.1879 17.7932C17.5049 17.2822 17.7988 16.8085 18.0616 16.3204L18.0616 16.3203C19.0603 14.4586 20.056 12.5956 21.0517 10.7326C22.7943 7.47238 24.5368 4.21232 26.2944 0.959628L26.2945 0.959539C26.3708 0.817834 26.5081 0.658755 26.6646 0.533999C26.8233 0.407611 26.9878 0.327499 27.117 0.32302M42.3796 0.331045C42.3443 0.331857 42.2978 0.348556 42.241 0.386942C42.1853 0.424631 42.1265 0.478693 42.0682 0.543094C41.9518 0.671656 41.8452 0.83277 41.7772 0.960935M41.7772 0.960935C41.1946 2.11783 40.6394 3.29038 40.0842 4.46286C39.9923 4.65706 39.9003 4.85126 39.8082 5.04538M39.8082 5.04538C39.168 6.40132 38.5278 7.75814 37.8876 9.11497C36.9282 11.1483 35.9687 13.1816 35.0093 15.2121L35.0092 15.2122C34.6646 15.9379 34.299 16.6546 33.9046 17.4279C33.7127 17.8042 33.5139 18.1939 33.3074 18.6046L33.2356 18.7474L33.1597 18.6068C32.8483 18.0307 32.54 17.4624 32.2349 16.9C31.036 14.6897 29.8867 12.5709 28.7917 10.4284L28.7917 10.4284C28.6872 10.2239 28.6731 9.94926 28.7066 9.68188C28.7403 9.41225 28.8242 9.13661 28.9296 8.9214" fill="#D9D9D9" stroke="#009D46" stroke-width="0.166668"/>
</svg>