<svg xmlns="http://www.w3.org/2000/svg" width="110" height="32" viewBox="0 0 110 32" fill="none">
  <path d="M95.9582 27.6142C95.9582 28.1091 95.9474 28.4531 95.9582 28.7875C95.969 29.0632 95.8647 29.1782 95.5795 29.1746C94.7405 29.1634 93.9015 29.1634 93.0626 29.1746C92.7786 29.1746 92.6587 29.068 92.6827 28.7899C92.6899 28.6976 92.6827 28.6041 92.6827 28.5106V3.57461C92.6827 2.92383 92.6827 2.92383 93.3502 2.92383C94.0178 2.92383 94.6554 2.92383 95.3086 2.92383C95.9618 2.92383 95.9558 2.92383 95.9558 3.54944V16.4285C96.2926 16.2068 96.555 16.0354 96.8187 15.8617C99.8234 13.8733 104.168 14.5613 106.226 17.7697C106.869 18.7941 107.246 19.9635 107.321 21.171C107.441 22.7423 107.294 24.2979 106.546 25.7253C105.458 27.7999 103.75 28.9888 101.392 29.2765C99.6699 29.4862 98.1191 29.0775 96.6833 28.1487C96.4795 28.0097 96.2794 27.8491 95.9582 27.6142ZM96.0517 22.0327C96.0109 24.522 97.7392 26.1891 100.069 26.1616C102.425 26.134 104.053 24.4837 104.05 22.0579C104.05 19.5686 102.387 17.9399 100.007 17.9327C97.5726 17.9243 96.0121 19.7664 96.0517 22.0315V22.0327Z" fill="white"/>
  <path d="M54.282 21.6078C54.5984 21.2998 54.9256 21.0086 55.2265 20.6814C55.8701 19.9934 56.4909 19.2839 57.1441 18.5984C57.983 17.7103 58.8423 16.8378 59.6933 15.9617C59.7423 15.9235 59.7859 15.8787 59.8227 15.8286C60.2877 14.9441 61.0692 14.8698 61.956 14.9202C62.9928 14.9765 64.0331 14.9334 65.2004 14.9334C65.0242 15.1287 64.9247 15.2498 64.8133 15.36C63.1354 17.0379 61.4547 18.7158 59.7712 20.3937C59.3133 20.854 58.8903 21.3525 58.4348 21.8116C58.2443 22.0057 58.2742 22.1399 58.454 22.3113C60.1535 23.9413 61.8498 25.5745 63.5429 27.2108C64.1853 27.8328 64.8073 28.4776 65.5012 29.1752C64.1829 29.1752 62.9448 29.1512 61.7092 29.1871C61.4809 29.2005 61.2527 29.1616 61.0417 29.0736C60.8307 28.9855 60.6425 28.8506 60.4915 28.679C58.6614 26.8225 56.8049 24.9912 54.9616 23.1467C54.7219 22.913 54.5169 22.6565 54.2005 22.3077C54.185 22.6229 54.1682 22.7991 54.1682 22.9765C54.1682 24.8665 54.1574 26.7578 54.1754 28.649C54.1754 29.0469 54.0783 29.2039 53.6552 29.1859C52.9097 29.1548 52.1619 29.156 51.4176 29.1859C51.0089 29.2015 50.8843 29.0745 50.8855 28.6622C50.8999 25.0667 50.8939 21.4712 50.8939 17.8757C50.8939 13.0817 50.8939 8.29605 50.8843 3.50683C50.8843 3.06459 51.0041 2.90758 51.4572 2.92796C52.1703 2.96391 52.8882 2.96271 53.6013 2.92796C54.0567 2.90519 54.1778 3.05859 54.1766 3.50444C54.1622 9.33235 54.159 15.1607 54.167 20.9894V21.5671L54.282 21.6078Z" fill="white"/>
  <path d="M17.0291 29.8403L13.3197 22.4564L9.59713 29.8391C7.07069 24.8342 4.60057 19.9383 2.0957 14.9729C2.29106 14.9549 2.4193 14.9322 2.54754 14.9322C3.41765 14.9322 4.28896 14.9465 5.15908 14.9226C5.51863 14.9118 5.71758 15.0256 5.87818 15.3588C7.08387 17.932 8.30874 20.4956 9.57556 23.1611C9.80208 22.7859 10.007 22.4767 10.182 22.1519C11.4165 19.852 12.6413 17.5473 13.883 15.251C13.9573 15.1131 14.1443 14.9501 14.2845 14.9453C15.1977 14.9178 16.1134 14.931 17.1189 14.931C16.9559 15.2677 16.8301 15.5398 16.6923 15.8083C16.1697 16.8258 15.6328 17.8361 15.1342 18.862C15.0431 19.0478 14.988 19.3414 15.0719 19.5056C15.6891 20.7125 16.3447 21.9026 17.035 23.179C17.3191 22.6146 17.5696 22.1399 17.7997 21.6557C18.5188 20.1349 19.2379 18.6104 19.957 17.0883C20.2482 16.4746 20.5371 15.8586 20.8427 15.2522C20.9062 15.1323 21.0416 14.9513 21.1459 14.9489C22.2581 14.9262 23.3703 14.9346 24.5724 14.9346C22.0412 19.9215 19.5603 24.8294 17.0291 29.8403Z" fill="white"/>
  <path d="M87.3717 27.7514C86.619 28.1553 85.9623 28.6107 85.2372 28.8768C82.8402 29.7529 80.5834 29.4437 78.5519 27.8736C76.9939 26.6751 76.2951 25.0104 76.071 23.0916C75.8996 21.6211 76.0375 20.2032 76.5948 18.8333C77.4409 16.7539 78.9822 15.45 81.161 14.9442C83.3399 14.4384 85.327 14.8903 87.0996 16.2626C87.156 16.3069 87.2195 16.3417 87.3717 16.4423C87.3717 16.0073 87.3825 15.6597 87.3717 15.3121C87.3609 15.0293 87.4796 14.9274 87.7576 14.931C88.5498 14.9418 89.3432 14.9562 90.1342 14.931C90.5549 14.9154 90.658 15.0664 90.6556 15.4655C90.6424 18.7494 90.6484 22.0345 90.6484 25.3184C90.6484 26.4498 90.6352 27.5812 90.6556 28.7114C90.6556 29.0805 90.5357 29.1992 90.1762 29.1908C89.3996 29.1692 88.6181 29.1668 87.8463 29.1908C87.47 29.2028 87.3453 29.065 87.3741 28.7054C87.3861 28.3842 87.3717 28.0774 87.3717 27.7514ZM87.2782 22.0909C87.4592 19.4721 85.1317 17.4011 82.344 18.0387C80.0369 18.5673 78.945 20.7342 79.398 22.967C79.8894 25.3903 81.9844 26.5026 84.3215 26.0447C85.9455 25.7259 87.4496 23.9282 87.2746 22.0909H87.2782Z" fill="white"/>
  <path d="M30.8915 29.4505C26.9712 29.6075 23.5519 26.2037 23.5591 22.0821C23.5675 18.0336 26.9329 14.474 31.3434 14.7233C34.9221 14.9246 38.3115 17.9952 38.2144 22.323C38.1293 26.133 34.9209 29.5931 30.8915 29.4505ZM30.9694 18.0072C28.5389 17.8298 26.9676 19.9368 26.9041 21.8831C26.8226 24.3664 28.582 26.2133 30.8975 26.1918C33.249 26.1702 34.9365 24.4611 34.9329 22.0497C34.9293 19.8745 33.2957 17.9077 30.9694 18.0072Z" fill="white"/>
  <path d="M71.0404 16.0487C71.0404 11.8648 71.0403 7.68081 71.0308 3.49564C71.0308 3.05219 71.1506 2.89639 71.6048 2.91796C72.3024 2.95391 73.0035 2.94912 73.7022 2.91796C74.1169 2.89998 74.2296 3.03781 74.2284 3.4477C74.2152 7.83302 74.22 12.2195 74.22 16.6049C74.22 20.6031 74.22 24.6025 74.2296 28.6007C74.2296 29.0453 74.1097 29.1999 73.6567 29.1783C72.9592 29.1424 72.2568 29.1472 71.5593 29.1783C71.1446 29.1963 71.0308 29.0585 71.032 28.6486C71.0451 24.449 71.0404 20.2495 71.0404 16.0487Z" fill="white"/>
  <path d="M49.4689 15.3561C49.077 16.2706 48.6947 17.1455 48.3304 18.0276C48.2045 18.3308 48.0331 18.302 47.7802 18.2026C46.7531 17.8023 45.714 17.7411 44.7336 18.3008C43.4536 19.0355 42.6902 20.1142 42.6878 21.6399C42.6818 23.9662 42.677 26.2925 42.6938 28.6176C42.6938 29.031 42.6051 29.2024 42.1533 29.182C41.3778 29.1461 40.5952 29.1629 39.821 29.1761C39.5226 29.1761 39.4075 29.0802 39.4087 28.7734C39.4143 24.2926 39.4143 19.8114 39.4087 15.3298C39.4087 15.0253 39.519 14.9211 39.8198 14.9259C40.6436 14.9394 41.4673 14.9394 42.2911 14.9259C42.6039 14.9259 42.701 15.0457 42.6902 15.3429C42.6711 15.7554 42.6912 16.1687 42.7501 16.5774C43.51 15.4904 44.5131 14.818 45.7991 14.6706C47.0587 14.5256 48.2513 14.8635 49.4689 15.3561Z" fill="white"/>
  <path d="M67.5682 27.0149C67.4851 26.9602 67.4051 26.901 67.3285 26.8375C65.7968 25.3418 64.2735 23.8413 62.731 22.3551C62.4506 22.0855 62.4566 21.9225 62.731 21.6516C64.3346 20.0744 65.9203 18.4804 67.5622 16.8408L67.5682 27.0149Z" fill="white"/>
  <path d="M4.34703 26.3727C5.32142 26.2349 6.03932 27.2752 6.02494 28.071C6.00696 29.0298 5.28786 29.7118 4.2967 29.7345C4.07262 29.745 3.84876 29.7095 3.63892 29.6302C3.42909 29.5509 3.23771 29.4295 3.07658 29.2734C2.91545 29.1174 2.78799 28.9299 2.70204 28.7227C2.6161 28.5155 2.57349 28.2929 2.57684 28.0686C2.57325 27.0307 3.34508 26.2865 4.34703 26.3727Z" fill="#009D46"/>
</svg>