<svg xmlns="http://www.w3.org/2000/svg" width="60" height="60" viewBox="0 0 60 60" fill="none">
  <g clip-path="url(#clip0_1441_4993)">
    <path d="M22.0547 43.2656C19.3828 51.2109 8.78906 51.2109 8.78906 51.2109C8.78906 51.2109 8.78906 40.6172 16.7344 37.9453" stroke="white" stroke-width="3.75" stroke-linecap="round" stroke-linejoin="round"/>
    <path d="M45.9141 24.7049L30 40.6189L19.3828 30.0017L35.2969 14.0877C41.3203 8.06424 47.3438 8.13455 49.9219 8.50955C50.3197 8.56262 50.689 8.74514 50.9728 9.02894C51.2566 9.31274 51.4391 9.68204 51.4922 10.0799C51.8672 12.658 51.9375 18.6814 45.9141 24.7049Z" stroke="white" stroke-width="3.75" stroke-linecap="round" stroke-linejoin="round"/>
    <path d="M43.2656 27.3516V42.4922C43.2586 42.9868 43.0564 43.4585 42.7031 43.8047L35.1328 51.3984C34.8926 51.6383 34.5918 51.8085 34.2625 51.8909C33.9332 51.9732 33.5877 51.9646 33.2629 51.8659C32.9381 51.7673 32.6461 51.5823 32.4182 51.3307C32.1903 51.0792 32.0349 50.7704 31.9687 50.4375L30 40.6172" stroke="white" stroke-width="3.75" stroke-linecap="round" stroke-linejoin="round"/>
    <path d="M32.65 16.7344H17.5093C17.0148 16.7414 16.543 16.9436 16.1968 17.2969L8.6031 24.8672C8.3632 25.1074 8.19301 25.4082 8.11067 25.7375C8.02834 26.0668 8.03696 26.4123 8.1356 26.7371C8.23425 27.0619 8.41922 27.3539 8.6708 27.5818C8.92237 27.8097 9.23109 27.965 9.56404 28.0312L19.3843 30" stroke="white" stroke-width="3.75" stroke-linecap="round" stroke-linejoin="round"/>
  </g>
  <defs>
    <clipPath id="clip0_1441_4993">
      <rect width="60" height="60" fill="white"/>
    </clipPath>
  </defs>
</svg>