<svg width="229" height="349" viewBox="0 0 229 349" fill="none" xmlns="http://www.w3.org/2000/svg">
<path d="M70.1597 287.972C70.1597 307.302 54.5857 322.921 35.3108 322.921C16.036 322.921 0.461914 307.302 0.461914 287.972C0.461914 268.796 16.036 253.178 35.3108 253.178C54.5857 253.178 70.1597 268.796 70.1597 287.972Z" fill="#151715"/>
<path d="M151 297.925C152.7 294.516 153.6 290.605 153.6 286.593C153.6 272.152 141.9 260.418 127.5 260.418C113.1 260.418 101.4 272.152 101.4 286.593C101.4 290.705 102.4 294.516 104 297.925H151Z" fill="#151715"/>
<path d="M116.268 248.212L133.415 168.808L150.413 248.211L168.228 401.081H133.418H98.4529L116.268 248.212Z" fill="#151715" stroke="#009D46" stroke-width="1.55829"/>
<path d="M133.419 165.102L145.885 248.084L158.351 401.86H133.419H108.486L120.952 248.084L133.419 165.102Z" fill="#151715"/>
<path d="M130.457 248.111L133.402 182.775L136.224 248.111L136.224 248.118L139.944 401.081H133.418H126.737L130.457 248.119L130.457 248.111Z" fill="#151715" stroke="#009D46" stroke-width="1.55829"/>
<path d="M109.732 247.772C109.732 235.701 112.704 224.788 117.451 216.919C122.207 209.033 128.657 204.325 135.6 204.325C142.543 204.325 148.993 209.033 153.749 216.919C158.495 224.788 161.468 235.701 161.468 247.772C161.468 250.609 161.207 253.32 160.922 256.057H110.248C109.865 253.357 109.732 250.639 109.732 247.772Z" fill="#151715" stroke="#009D46" stroke-width="1.55829"/>
<path d="M109.889 247.772C109.889 235.664 112.057 224.72 115.549 216.832C117.295 212.887 119.357 209.741 121.612 207.592C123.862 205.447 126.27 204.325 128.744 204.325C131.176 204.325 133.564 205.444 135.812 207.591C138.064 209.741 140.136 212.889 141.902 216.835C145.432 224.724 147.677 235.668 147.755 247.774C147.755 250.627 147.624 253.347 147.362 256.057H110.281C110.02 253.347 109.889 250.626 109.889 247.772Z" fill="#151715" stroke="#009D46" stroke-width="1.55829"/>
<path d="M110.2 243.711H44.0767C44.0673 243.564 44.057 243.397 44.0459 243.21C43.9993 242.426 43.9399 241.297 43.8891 239.924C43.7872 237.177 43.7195 233.456 43.855 229.554C43.9907 225.647 44.3294 221.583 45.0328 218.143C45.3844 216.423 45.8234 214.878 46.3638 213.594C46.9069 212.304 47.5337 211.323 48.2358 210.686L48.2503 210.673L48.264 210.659C49.1884 209.732 50.2397 208.679 51.2876 207.773C82.6027 188.878 105.109 154.92 110.2 114.891V115.066V115.454V115.843V116.234V116.627V117.02V117.415V117.811V118.208V118.607V119.007V119.408V119.81V120.213V120.618V121.023V121.43V121.838V122.247V122.657V123.069V123.481V123.894V124.309V124.724V125.141V125.558V125.977V126.397V126.817V127.239V127.661V128.085V128.509V128.934V129.361V129.788V130.216V130.644V131.074V131.505V131.936V132.368V132.801V133.235V133.67V134.105V134.541V134.978V135.416V135.854V136.293V136.733V137.173V137.614V138.056V138.499V138.942V139.385V139.83V140.274V140.72V141.166V141.612V142.06V142.507V142.955V143.404V143.853V144.303V144.753V145.204V145.655V146.106V146.558V147.01V147.463V147.916V148.37V148.823V149.278V149.732V150.187V150.642V151.098V151.553V152.009V152.465V152.922V153.379V153.836V154.293V154.75V155.208V155.665V156.123V156.581V157.04V157.498V157.956V158.415V158.873V159.332V159.791V160.249V160.708V161.167V161.626V162.085V162.543V163.002V163.461V163.92V164.378V164.837V165.295V165.754V166.212V166.67V167.128V167.586V168.043V168.501V168.958V169.415V169.872V170.329V170.785V171.241V171.697V172.153V172.608V173.063V173.518V173.972V174.426V174.88V175.333V175.786V176.239V176.691V177.143V177.594V178.045V178.495V178.945V179.395V179.844V180.292V180.74V181.188V181.634V182.081V182.527V182.972V183.416V183.86V184.304V184.747V185.189V185.63V186.071V186.511V186.951V187.39V187.828V188.265V188.702V189.137V189.572V190.007V190.44V190.873V191.305V191.736V192.166V192.596V193.024V193.452V193.878V194.304V194.729V195.153V195.576V195.998V196.42V196.84V197.259V197.677V198.094V198.511V198.926V199.34V199.753V200.165V200.576V200.985V201.394V201.801V202.208V202.613V203.017V203.42V203.822V204.222V204.621V205.019V205.416V205.812V206.206V206.599V206.991V207.381V207.771V208.158V208.545V208.93V209.314V209.696V210.077V210.457V210.835V211.212V211.587V211.961V212.333V212.704V213.074V213.441V213.808V214.173V214.536V214.898V215.258V215.617V215.974V216.33V216.683V217.036V217.386V217.735V218.083V218.428V218.772V219.114V219.455V219.794V220.131V220.466V220.8V221.132V221.462V221.79V222.116V222.441V222.764V223.084V223.403V223.721V224.036V224.349V224.661V224.97V225.278V225.583V225.887V226.189V226.489V226.786V227.082V227.376V227.667V227.957V228.244V228.53V228.813V229.095V229.374V229.651V229.926V230.199V230.469V230.738V231.004V231.268V231.53V231.789V232.047V232.302V232.555V232.805V233.054V233.3V233.543V233.785V234.024V234.26V234.495V234.727V234.956V235.184V235.408V235.631V235.851V236.068V236.283V236.496V236.706V236.913V237.118V237.321V237.521V237.718V237.913V238.105V238.295V238.482V238.667V238.848V239.028V239.204V239.378V239.549V239.718V239.884V240.047V240.208V240.365V240.52V240.672V240.822V240.969V241.112V241.253V241.392V241.527V241.66V241.789V241.916V242.04V242.161V242.279V242.394V242.507V242.616V242.722V242.826V242.926V243.023V243.118V243.209V243.298V243.383V243.465V243.544V243.62V243.693V243.711Z" fill="#151715" stroke="#009D46" stroke-width="1.55829"/>
<path d="M50.8566 220.556L50.8629 220.551L50.8691 220.545C51.2789 220.193 51.6696 219.838 52.0577 219.485C52.7525 218.852 53.4392 218.228 54.2126 217.642C79.0541 204.12 98.8933 182.574 110.044 156.557C110.044 177.424 110.043 198.682 110.024 215.05C110.015 223.753 110 231.072 109.978 236.216C109.967 238.788 109.954 240.815 109.939 242.197C109.933 242.76 109.927 243.214 109.92 243.554H45.8446C45.8715 239.373 46.1207 234.566 46.8439 230.342C47.2282 228.096 47.7426 226.039 48.417 224.336C49.0955 222.623 49.9105 221.335 50.8566 220.556Z" fill="#151715" stroke="#009D46" stroke-width="1.55829"/>
<path d="M51.594 241.685L51.6014 241.68L51.6086 241.675C51.955 241.414 52.3238 241.147 52.7039 240.871C53.6115 240.212 54.5838 239.507 55.469 238.739C78.0829 227.834 96.9309 211.827 110.044 192.53V192.572V192.746V192.919V193.093V193.266V193.439V193.612V193.785V193.958V194.13V194.303V194.475V194.647V194.819V194.991V195.162V195.334V195.505V195.676V195.847V196.018V196.189V196.359V196.53V196.7V196.87V197.04V197.21V197.379V197.549V197.718V197.887V198.056V198.225V198.393V198.562V198.73V198.898V199.066V199.234V199.401V199.569V199.736V199.903V200.07V200.236V200.403V200.569V200.735V200.901V201.067V201.233V201.398V201.563V201.728V201.893V202.058V202.222V202.386V202.55V202.714V202.878V203.042V203.205V203.368V203.531V203.694V203.856V204.019V204.181V204.343V204.504V204.666V204.827V204.988V205.149V205.31V205.471V205.631V205.791V205.951V206.111V206.27V206.429V206.588V206.747V206.906V207.064V207.222V207.38V207.538V207.696V207.853V208.01V208.167V208.324V208.48V208.637V208.793V208.948V209.104V209.259V209.414V209.569V209.724V209.878V210.033V210.187V210.34V210.494V210.647V210.8V210.953V211.106V211.258V211.41V211.562V211.714V211.865V212.016V212.167V212.318V212.468V212.618V212.768V212.918V213.067V213.216V213.365V213.514V213.663V213.811V213.959V214.106V214.254V214.401V214.548V214.695V214.841V214.987V215.133V215.279V215.424V215.569V215.714V215.859V216.003V216.147V216.291V216.435V216.578V216.721V216.864V217.006V217.148V217.29V217.432V217.573V217.715V217.855V217.996V218.136V218.276V218.416V218.555V218.695V218.834V218.972V219.111V219.249V219.386V219.524V219.661V219.798V219.935V220.071V220.207V220.343V220.478V220.614V220.749V220.883V221.017V221.151V221.285V221.419V221.552V221.685V221.817V221.949V222.081V222.213V222.344V222.475V222.606V222.737V222.867V222.997V223.126V223.255V223.384V223.513V223.641V223.769V223.897V224.024V224.151V224.278V224.404V224.53V224.656V224.782V224.907V225.032V225.156V225.28V225.404V225.528V225.651V225.774V225.896V226.019V226.14V226.262V226.383V226.504V226.625V226.745V226.865V226.985V227.104V227.223V227.341V227.46V227.578V227.695V227.812V227.929V228.046V228.162V228.278V228.394V228.509V228.624V228.738V228.852V228.966V229.08V229.193V229.306V229.418V229.53V229.642V229.753V229.864V229.975V230.085V230.195V230.305V230.414V230.523V230.631V230.739V230.847V230.955V231.062V231.168V231.275V231.381V231.486V231.592V231.697V231.801V231.905V232.009V232.112V232.215V232.318V232.42V232.522V232.624V232.725V232.826V232.926V233.026V233.126V233.225V233.324V233.422V233.521V233.618V233.716V233.813V233.909V234.005V234.101V234.197V234.292V234.386V234.481V234.574V234.668V234.761V234.854V234.946V235.038V235.129V235.22V235.311V235.401V235.491V235.581V235.67V235.758V235.847V235.935V236.022V236.109V236.196V236.282V236.368V236.453V236.538V236.623V236.707V236.791V236.874V236.957V237.04V237.122V237.204V237.285V237.366V237.446V237.526V237.606V237.685V237.764V237.842V237.92V237.997V238.075V238.151V238.227V238.303V238.378V238.453V238.528V238.602V238.676V238.749V238.821V238.894V238.966V239.037V239.108V239.179V239.249V239.318V239.388V239.457V239.525V239.593V239.66V239.727V239.794V239.86V239.926V239.991V240.056V240.12V240.184V240.247V240.31V240.373V240.435V240.496V240.558V240.618V240.679V240.738V240.798V240.856V240.915V240.973V241.03V241.087V241.144V241.2V241.256V241.311V241.365V241.42V241.473V241.527V241.579V241.632V241.683V241.735V241.786V241.836V241.886V241.936V241.985V242.033V242.081V242.129V242.176V242.222V242.268V242.314V242.359V242.404V242.448V242.492V242.535V242.577V242.62V242.661V242.703V242.743V242.784V242.823V242.863V242.901V242.94V242.977V243.015V243.051V243.088V243.123V243.159V243.193V243.228V243.261V243.295V243.327V243.36V243.391V243.422V243.453V243.483V243.513V243.542V243.555H49.8691C50.3933 242.768 50.9364 242.156 51.594 241.685Z" fill="#151715" stroke="#009D46" stroke-width="1.55829"/>
<path d="M227.154 243.21C227.143 243.397 227.133 243.564 227.123 243.711H161V243.693V243.62V243.544V243.465V243.383V243.298V243.209V243.118V243.023V242.926V242.826V242.722V242.616V242.507V242.394V242.279V242.161V242.04V241.916V241.789V241.66V241.527V241.392V241.253V241.112V240.969V240.822V240.672V240.52V240.365V240.208V240.047V239.884V239.718V239.549V239.378V239.204V239.028V238.848V238.667V238.482V238.295V238.105V237.913V237.718V237.521V237.321V237.118V236.913V236.706V236.496V236.283V236.068V235.851V235.631V235.408V235.184V234.956V234.727V234.495V234.26V234.024V233.785V233.543V233.3V233.054V232.805V232.555V232.302V232.047V231.789V231.53V231.268V231.004V230.738V230.469V230.199V229.926V229.651V229.374V229.095V228.813V228.53V228.244V227.957V227.667V227.376V227.082V226.786V226.489V226.189V225.887V225.583V225.278V224.97V224.661V224.349V224.036V223.721V223.403V223.084V222.764V222.441V222.116V221.79V221.462V221.132V220.8V220.466V220.131V219.794V219.455V219.114V218.772V218.428V218.083V217.735V217.386V217.036V216.683V216.33V215.974V215.617V215.258V214.898V214.536V214.173V213.808V213.441V213.074V212.704V212.333V211.961V211.587V211.212V210.835V210.457V210.077V209.696V209.314V208.93V208.545V208.158V207.771V207.381V206.991V206.599V206.206V205.812V205.416V205.019V204.621V204.222V203.822V203.42V203.017V202.613V202.208V201.801V201.394V200.985V200.576V200.165V199.753V199.34V198.926V198.511V198.094V197.677V197.259V196.84V196.42V195.998V195.576V195.153V194.729V194.304V193.878V193.452V193.024V192.596V192.166V191.736V191.305V190.873V190.44V190.007V189.572V189.137V188.702V188.265V187.828V187.39V186.951V186.511V186.071V185.63V185.189V184.747V184.304V183.86V183.416V182.972V182.527V182.081V181.634V181.188V180.74V180.292V179.844V179.395V178.945V178.495V178.045V177.594V177.143V176.691V176.239V175.786V175.333V174.88V174.426V173.972V173.518V173.063V172.608V172.153V171.697V171.241V170.785V170.329V169.872V169.415V168.958V168.501V168.043V167.586V167.128V166.67V166.212V165.754V165.295V164.837V164.378V163.92V163.461V163.002V162.543V162.085V161.626V161.167V160.708V160.249V159.791V159.332V158.873V158.415V157.956V157.498V157.04V156.581V156.123V155.665V155.208V154.75V154.293V153.836V153.379V152.922V152.465V152.009V151.553V151.098V150.642V150.187V149.732V149.278V148.823V148.37V147.916V147.463V147.01V146.558V146.106V145.655V145.204V144.753V144.303V143.853V143.404V142.955V142.507V142.06V141.612V141.166V140.72V140.274V139.83V139.385V138.942V138.499V138.056V137.614V137.173V136.733V136.293V135.854V135.416V134.978V134.541V134.105V133.67V133.235V132.801V132.368V131.936V131.505V131.074V130.644V130.216V129.788V129.361V128.934V128.509V128.085V127.661V127.239V126.817V126.397V125.977V125.558V125.141V124.724V124.309V123.894V123.481V123.069V122.657V122.247V121.838V121.43V121.023V120.618V120.213V119.81V119.408V119.007V118.607V118.208V117.811V117.415V117.02V116.627V116.234V115.843V115.454V115.066V114.891C166.092 154.92 188.598 188.878 219.913 207.773C220.961 208.679 222.012 209.732 222.936 210.659L222.95 210.673L222.964 210.686C223.667 211.323 224.293 212.304 224.836 213.594C225.377 214.878 225.816 216.423 226.167 218.143C226.871 221.583 227.209 225.647 227.345 229.554C227.481 233.456 227.413 237.177 227.311 239.924C227.26 241.297 227.201 242.426 227.154 243.21Z" fill="#151715" stroke="#009D46" stroke-width="1.55829"/>
<path d="M220.331 220.545L220.338 220.551L220.344 220.556C221.29 221.335 222.105 222.623 222.783 224.336C223.458 226.039 223.972 228.096 224.357 230.342C225.08 234.566 225.329 239.373 225.356 243.554H161.28C161.273 243.214 161.267 242.76 161.261 242.197C161.246 240.815 161.233 238.788 161.222 236.216C161.2 231.072 161.186 223.753 161.176 215.05C161.158 198.682 161.157 177.424 161.157 156.557C172.307 182.574 192.146 204.12 216.988 217.642C217.761 218.228 218.448 218.852 219.143 219.484C219.531 219.838 219.922 220.193 220.331 220.545Z" fill="#151715" stroke="#009D46" stroke-width="1.55829"/>
<path d="M215.886 238.739C217.132 239.826 218.38 240.761 219.772 241.692C220.425 242.162 220.965 242.772 221.487 243.555H161.312V243.542V243.513V243.483V243.453V243.422V243.391V243.36V243.327V243.295V243.261V243.228V243.193V243.159V243.123V243.088V243.051V243.015V242.977V242.94V242.901V242.863V242.823V242.784V242.743V242.703V242.661V242.62V242.577V242.535V242.492V242.448V242.404V242.359V242.314V242.268V242.222V242.176V242.129V242.081V242.033V241.985V241.936V241.886V241.836V241.786V241.735V241.683V241.632V241.579V241.527V241.473V241.42V241.365V241.311V241.256V241.2V241.144V241.087V241.03V240.973V240.915V240.856V240.798V240.738V240.679V240.618V240.558V240.496V240.435V240.373V240.31V240.247V240.184V240.12V240.056V239.991V239.926V239.86V239.794V239.727V239.66V239.593V239.525V239.457V239.388V239.318V239.249V239.179V239.108V239.037V238.966V238.894V238.821V238.749V238.676V238.602V238.528V238.453V238.378V238.303V238.227V238.151V238.075V237.997V237.92V237.842V237.764V237.685V237.606V237.526V237.446V237.366V237.285V237.204V237.122V237.04V236.957V236.874V236.791V236.707V236.623V236.538V236.453V236.368V236.282V236.196V236.109V236.022V235.935V235.847V235.758V235.67V235.581V235.491V235.401V235.311V235.22V235.129V235.038V234.946V234.854V234.761V234.668V234.574V234.481V234.386V234.292V234.197V234.101V234.005V233.909V233.813V233.716V233.618V233.521V233.422V233.324V233.225V233.126V233.026V232.926V232.826V232.725V232.624V232.522V232.42V232.318V232.215V232.112V232.009V231.905V231.801V231.697V231.592V231.486V231.381V231.275V231.168V231.062V230.955V230.847V230.739V230.631V230.523V230.414V230.305V230.195V230.085V229.975V229.864V229.753V229.642V229.53V229.418V229.306V229.193V229.08V228.966V228.852V228.738V228.624V228.509V228.394V228.278V228.162V228.046V227.929V227.812V227.695V227.578V227.46V227.341V227.223V227.104V226.985V226.865V226.745V226.625V226.504V226.383V226.262V226.14V226.019V225.896V225.774V225.651V225.528V225.404V225.28V225.156V225.032V224.907V224.782V224.656V224.53V224.404V224.278V224.151V224.024V223.897V223.769V223.641V223.513V223.384V223.255V223.126V222.997V222.867V222.737V222.606V222.475V222.344V222.213V222.081V221.949V221.817V221.685V221.552V221.419V221.285V221.151V221.017V220.883V220.749V220.614V220.478V220.343V220.207V220.071V219.935V219.798V219.661V219.524V219.386V219.249V219.111V218.972V218.834V218.695V218.555V218.416V218.276V218.136V217.996V217.855V217.715V217.573V217.432V217.29V217.148V217.006V216.864V216.721V216.578V216.435V216.291V216.147V216.003V215.859V215.714V215.569V215.424V215.279V215.133V214.987V214.841V214.695V214.548V214.401V214.254V214.106V213.959V213.811V213.663V213.514V213.365V213.216V213.067V212.918V212.768V212.618V212.468V212.318V212.167V212.016V211.865V211.714V211.562V211.41V211.258V211.106V210.953V210.8V210.647V210.494V210.34V210.187V210.033V209.878V209.724V209.569V209.414V209.259V209.104V208.948V208.793V208.637V208.48V208.324V208.167V208.01V207.853V207.696V207.538V207.38V207.222V207.064V206.906V206.747V206.588V206.429V206.27V206.111V205.951V205.791V205.631V205.471V205.31V205.149V204.988V204.827V204.666V204.504V204.343V204.181V204.019V203.856V203.694V203.531V203.368V203.205V203.042V202.878V202.714V202.55V202.386V202.222V202.058V201.893V201.728V201.563V201.398V201.233V201.067V200.901V200.735V200.569V200.403V200.236V200.07V199.903V199.736V199.569V199.401V199.234V199.066V198.898V198.73V198.562V198.393V198.225V198.056V197.887V197.718V197.549V197.379V197.21V197.04V196.87V196.7V196.53V196.359V196.189V196.018V195.847V195.676V195.505V195.334V195.162V194.991V194.819V194.647V194.475V194.303V194.13V193.958V193.785V193.612V193.439V193.266V193.093V192.919V192.746V192.572V192.53C174.425 211.826 193.273 227.834 215.886 238.739Z" fill="#151715" stroke="#009D46" stroke-width="1.55829"/>
<path d="M161.312 74.4618V243.555H109.889V74.4618C109.889 66.7585 112.748 50.3162 117.49 34.7408C119.859 26.9624 122.687 19.4367 125.842 13.3528C128.901 7.45453 132.205 3.03647 135.597 0.97719C138.994 3.07261 142.3 7.51252 145.359 13.4184C148.514 19.51 151.342 27.0311 153.71 34.7997C158.453 50.3557 161.312 66.7587 161.312 74.4618Z" fill="#151715" stroke="#009D46" stroke-width="1.55829"/>
<path d="M135.912 243.555V1.17091C139.196 3.30565 142.393 7.6333 145.359 13.3528C148.514 19.4367 151.342 26.9624 153.71 34.7408C158.453 50.3162 161.312 66.7584 161.312 74.4618V243.555H135.912Z" fill="#151715" stroke="#009D46" stroke-width="1.55829"/>
<path d="M153.562 33.9886H117.795C120.064 26.5568 122.785 19.3725 125.832 13.502C128.92 7.55145 132.283 3.07362 135.752 0.976831C139.15 3.07417 142.474 7.55099 145.543 13.5003C148.572 19.3718 151.292 26.5569 153.562 33.9886Z" fill="#151715" stroke="#009D46" stroke-width="1.55829"/>
<path d="M145.387 13.5003C148.416 19.3718 151.136 26.5569 153.406 33.9886H135.912V1.17874C139.199 3.35317 142.413 7.73544 145.387 13.5003Z" fill="#151715" stroke="#009D46" stroke-width="1.55829"/>
<path d="M151.256 62.5687L151.252 62.5772L151.248 62.5859C151.053 63.0319 150.768 63.2965 150.397 63.4565C150.001 63.6274 149.459 63.6976 148.748 63.6442C147.314 63.5363 145.463 62.9514 143.356 62.169C138.347 60.2261 132.697 60.2261 127.688 62.169C125.581 62.9514 123.73 63.5363 122.296 63.6442C121.585 63.6976 121.043 63.6274 120.647 63.4565C120.275 63.2965 119.991 63.0319 119.796 62.5859L119.792 62.5772L119.788 62.5687C119.613 62.1912 119.551 61.5675 119.715 60.7298C119.876 59.9092 120.239 58.9611 120.805 57.9989C121.939 56.0737 123.839 54.1727 126.38 53.152C132.274 50.88 138.77 50.88 144.664 53.152C147.205 54.1727 149.105 56.0737 150.239 57.9989C150.805 58.9611 151.168 59.9092 151.329 60.7298C151.493 61.5675 151.431 62.1912 151.256 62.5687Z" fill="#151715" stroke="#009D46" stroke-width="1.55829"/>
<path d="M70.7748 247.772C70.7748 235.63 72.0949 224.644 74.1965 216.716C75.2488 212.747 76.4858 209.588 77.8228 207.439C79.1868 205.248 80.5131 204.325 81.6828 204.325C82.8506 204.325 84.1673 205.245 85.5193 207.437C86.8446 209.585 88.0674 212.744 89.1103 216.714C91.1928 224.643 92.5131 235.631 92.5909 247.774C92.5908 250.618 92.4608 253.334 92.3189 256.057H70.9272C70.9171 254.841 70.8856 253.625 70.854 252.405L70.8524 252.342C70.8134 250.837 70.7748 249.323 70.7748 247.772Z" fill="#151715" stroke="#009D46" stroke-width="1.55829"/>
<path d="M81.407 211.69C80.4347 209.654 79.326 208.039 78.0706 207.07C79.3189 205.19 80.5388 204.325 81.6827 204.325C82.8506 204.325 84.1673 205.246 85.5219 207.437C86.8498 209.586 88.0774 212.745 89.1301 216.716C91.232 224.645 92.591 235.633 92.7466 247.777C92.7464 250.62 92.6164 253.335 92.4746 256.057H86.9851C86.9957 255.022 87.0251 253.96 87.0554 252.867L87.0585 252.755C87.0974 251.35 87.1367 249.894 87.1367 248.397C87.1367 237.882 86.12 228.289 84.4289 220.933C83.5837 217.256 82.5648 214.116 81.407 211.69Z" fill="#151715" stroke="#009D46" stroke-width="1.55829"/>
<path d="M178.764 247.772C178.764 235.63 180.085 224.644 182.186 216.716C183.239 212.747 184.476 209.588 185.813 207.439C187.177 205.248 188.503 204.325 189.673 204.325C190.84 204.325 192.157 205.245 193.509 207.437C194.834 209.585 196.057 212.744 197.1 216.714C199.183 224.643 200.503 235.631 200.581 247.774C200.581 250.618 200.451 253.334 200.309 256.057H179.004C178.765 253.365 178.764 250.655 178.764 247.772Z" fill="#151715" stroke="#009D46" stroke-width="1.55829"/>
<path d="M189.397 211.69C188.424 209.654 187.316 208.039 186.06 207.07C187.309 205.19 188.529 204.325 189.672 204.325C190.84 204.325 192.157 205.246 193.512 207.437C194.84 209.586 196.067 212.745 197.12 216.716C199.222 224.645 200.581 235.633 200.736 247.777C200.736 250.62 200.606 253.335 200.464 256.057H195.013C195.126 253.623 195.126 251.068 195.126 248.41V248.397C195.126 237.882 194.11 228.289 192.419 220.933C191.573 217.256 190.555 214.116 189.397 211.69Z" fill="#151715" stroke="#009D46" stroke-width="1.55829"/>
</svg>
