<svg xmlns="http://www.w3.org/2000/svg" width="14" height="15" viewBox="0 0 14 15" fill="none">
  <mask id="mask0_1018_17456" style="mask-type:alpha" maskUnits="userSpaceOnUse" x="0" y="0" width="14" height="15">
    <rect y="0.5" width="14" height="14" fill="#D9D9D9"/>
  </mask>
  <g mask="url(#mask0_1018_17456)">
    <path d="M6.09922 9.3H7.89922L7.55422 7.365C7.75422 7.265 7.91172 7.12 8.02672 6.93C8.14172 6.74 8.19922 6.53 8.19922 6.3C8.19922 5.97 8.08172 5.6875 7.84672 5.4525C7.61172 5.2175 7.32922 5.1 6.99922 5.1C6.66922 5.1 6.38672 5.2175 6.15172 5.4525C5.91672 5.6875 5.79922 5.97 5.79922 6.3C5.79922 6.53 5.85672 6.74 5.97172 6.93C6.08672 7.12 6.24422 7.265 6.44422 7.365L6.09922 9.3ZM6.99922 13.5C5.60922 13.15 4.46172 12.3525 3.55672 11.1075C2.65172 9.8625 2.19922 8.48 2.19922 6.96V3.3L6.99922 1.5L11.7992 3.3V6.96C11.7992 8.48 11.3467 9.8625 10.4417 11.1075C9.53672 12.3525 8.38922 13.15 6.99922 13.5ZM6.99922 12.24C8.03922 11.91 8.89922 11.25 9.57922 10.26C10.2592 9.27 10.5992 8.17 10.5992 6.96V4.125L6.99922 2.775L3.39922 4.125V6.96C3.39922 8.17 3.73922 9.27 4.41922 10.26C5.09922 11.25 5.95922 11.91 6.99922 12.24Z" fill="#17E250"/>
  </g>
</svg>