<svg xmlns="http://www.w3.org/2000/svg" width="15" height="15" viewBox="0 0 15 15" fill="none">
  <mask id="mask0_815_3933" style="mask-type:alpha" maskUnits="userSpaceOnUse" x="0" y="0" width="15" height="15">
    <rect x="0.5" y="0.5" width="14" height="14" fill="#D9D9D9"/>
  </mask>
  <g mask="url(#mask0_815_3933)">
    <path d="M12.7645 6.94583V11.5833C12.7645 11.9042 12.6503 12.1788 12.4218 12.4073C12.1933 12.6358 11.9187 12.75 11.5979 12.75H3.43119C3.11036 12.75 2.8357 12.6358 2.60723 12.4073C2.37876 12.1788 2.26452 11.9042 2.26452 11.5833V6.94583C2.04091 6.74167 1.86834 6.47917 1.74681 6.15833C1.62529 5.8375 1.62286 5.4875 1.73952 5.10833L2.35202 3.125C2.4298 2.87222 2.56834 2.66319 2.76765 2.49792C2.96695 2.33264 3.19786 2.25 3.46036 2.25H11.5687C11.8312 2.25 12.0597 2.33021 12.2541 2.49062C12.4486 2.65104 12.5895 2.8625 12.677 3.125L13.2895 5.10833C13.4062 5.4875 13.4038 5.83264 13.2822 6.14375C13.1607 6.45486 12.9881 6.72222 12.7645 6.94583ZM8.79786 6.33333C9.06036 6.33333 9.25966 6.2434 9.39577 6.06354C9.53188 5.88368 9.58536 5.68194 9.55619 5.45833L9.23536 3.41667H8.09786V5.575C8.09786 5.77917 8.16591 5.9566 8.30202 6.10729C8.43813 6.25799 8.60341 6.33333 8.79786 6.33333ZM6.17286 6.33333C6.39647 6.33333 6.57876 6.25799 6.71973 6.10729C6.8607 5.9566 6.93119 5.77917 6.93119 5.575V3.41667H5.79369L5.47286 5.45833C5.43397 5.69167 5.48501 5.89583 5.62598 6.07083C5.76695 6.24583 5.94924 6.33333 6.17286 6.33333ZM3.57702 6.33333C3.75202 6.33333 3.90515 6.27014 4.0364 6.14375C4.16765 6.01736 4.24786 5.85694 4.27702 5.6625L4.59786 3.41667H3.46036L2.87702 5.37083C2.81869 5.56528 2.85029 5.77431 2.97181 5.99792C3.09334 6.22153 3.29508 6.33333 3.57702 6.33333ZM11.452 6.33333C11.734 6.33333 11.9381 6.22153 12.0645 5.99792C12.1909 5.77431 12.2201 5.56528 12.152 5.37083L11.5395 3.41667H10.4312L10.752 5.6625C10.7812 5.85694 10.8614 6.01736 10.9926 6.14375C11.1239 6.27014 11.277 6.33333 11.452 6.33333ZM3.43119 11.5833H11.5979V7.47083C11.5492 7.49028 11.5176 7.5 11.5031 7.5H11.452C11.1895 7.5 10.9586 7.45625 10.7593 7.36875C10.56 7.28125 10.3631 7.14028 10.1687 6.94583C9.99369 7.12083 9.79438 7.25694 9.57077 7.35417C9.34716 7.45139 9.10897 7.5 8.85619 7.5C8.59369 7.5 8.3482 7.45139 8.11973 7.35417C7.89126 7.25694 7.68952 7.12083 7.51452 6.94583C7.34925 7.12083 7.15723 7.25694 6.93848 7.35417C6.71973 7.45139 6.48397 7.5 6.23119 7.5C5.94924 7.5 5.69404 7.45139 5.46556 7.35417C5.23709 7.25694 5.03536 7.12083 4.86036 6.94583C4.65619 7.15 4.45445 7.2934 4.25515 7.37604C4.05584 7.45868 3.8298 7.5 3.57702 7.5H3.5114C3.48709 7.5 3.46036 7.49028 3.43119 7.47083V11.5833Z" fill="#17E250"/>
  </g>
</svg>