<svg width="50" height="50" viewBox="0 0 50 50" fill="none" xmlns="http://www.w3.org/2000/svg">
<rect width="50" height="50" rx="25" fill="#25201D"/>
<path d="M29 24C30.66 24 31.99 22.66 31.99 21C31.99 19.34 30.66 18 29 18C27.34 18 26 19.34 26 21C26 22.66 27.34 24 29 24ZM21 24C22.66 24 23.99 22.66 23.99 21C23.99 19.34 22.66 18 21 18C19.34 18 18 19.34 18 21C18 22.66 19.34 24 21 24ZM21 26C18.67 26 14 27.17 14 29.5V31C14 31.55 14.45 32 15 32H27C27.55 32 28 31.55 28 31V29.5C28 27.17 23.33 26 21 26ZM29 26C28.71 26 28.38 26.02 28.03 26.05C28.05 26.06 28.06 26.08 28.07 26.09C29.21 26.92 30 28.03 30 29.5V31C30 31.35 29.93 31.69 29.82 32H35C35.55 32 36 31.55 36 31V29.5C36 27.17 31.33 26 29 26Z" fill="white"/>
</svg>
