<svg xmlns="http://www.w3.org/2000/svg" width="16" height="14" viewBox="0 0 16 14" fill="none">
  <path d="M16 1.70703C15.4 2.00703 14.8 2.10703 14.1 2.20703C14.8 1.80703 15.3 1.20703 15.5 0.407031C14.9 0.807031 14.2 1.00703 13.4 1.20703C12.8 0.607031 11.9 0.207031 11 0.207031C8.9 0.207031 7.3 2.20703 7.8 4.20703C5.1 4.10703 2.7 2.80703 1 0.807032C0.1 2.30703 0.6 4.20703 2 5.20703C1.5 5.20703 1 5.00703 0.5 4.80703C0.5 6.30703 1.6 7.70703 3.1 8.10703C2.6 8.20703 2.1 8.30703 1.6 8.20703C2 9.50703 3.2 10.507 4.7 10.507C3.5 11.407 1.7 11.907 0 11.707C1.5 12.607 3.2 13.207 5 13.207C11.1 13.207 14.5 8.10703 14.3 3.40703C15 3.00703 15.6 2.40703 16 1.70703Z" fill="white"/>
</svg>