<svg xmlns="http://www.w3.org/2000/svg" width="47" height="38" viewBox="0 0 47 38" fill="none">
  <path d="M9.36024 30.0855C11.0098 29.3836 12.7635 30.8757 13.1134 32.2827C13.5338 33.9783 12.59 35.5173 10.8567 36.0247C10.4674 36.1488 10.0567 36.1919 9.65011 36.1513C9.24349 36.1107 8.84949 35.9873 8.49238 35.7886C8.13528 35.5899 7.82263 35.3203 7.57371 34.9962C7.32478 34.6721 7.14485 34.3005 7.045 33.9042C6.54932 32.0796 7.55653 30.4061 9.36024 30.0855Z" fill="white"/>
  <path d="M33.3075 30.2096L23.2991 18.9657L20.2298 33.7116C13.4245 26.096 6.76979 18.6459 0.0211307 11.0898C0.356403 10.9661 0.571317 10.8655 0.796967 10.8051C2.32802 10.3948 3.86795 10.0093 5.3877 9.55689C6.01528 9.36839 6.41904 9.47493 6.85872 9.98548C10.1935 13.9448 13.5574 17.8782 17.0432 21.971C17.265 21.2042 17.4798 20.5634 17.6346 19.9094C18.7223 15.2805 19.791 10.6476 20.8931 6.02156C20.9589 5.744 21.211 5.36904 21.4555 5.29449C23.0494 4.8154 24.6668 4.40688 26.4362 3.93279C26.3082 4.60223 26.215 5.14028 26.0991 5.67765C25.6593 7.71447 25.1909 9.7454 24.7973 11.7857C24.7246 12.1555 24.7661 12.6982 24.9911 12.9475C26.6462 14.7802 28.3609 16.5652 30.1774 18.4857C30.4111 17.3585 30.6281 16.4052 30.8047 15.4447C31.3529 12.4295 31.8995 9.408 32.4472 6.39068C32.6703 5.17362 32.8881 3.95347 33.1399 2.74228C33.1952 2.50144 33.3482 2.11915 33.5305 2.06577C35.4768 1.50131 37.4378 0.99169 39.553 0.424921C37.4503 10.3934 35.3989 20.199 33.3075 30.2096Z" fill="white"/>
</svg>