<svg width="300" height="200" viewBox="0 0 300 200" fill="none" xmlns="http://www.w3.org/2000/svg">
<path d="M299.186 0.737588C265.678 66.7966 232.826 131.825 199.319 198.197L150.255 100.469L149.809 99.5807L149.362 100.468L100.122 198.182C66.6677 131.867 33.9479 66.975 0.775316 1.17708C1.43155 1.11039 2.02307 1.0424 2.56971 0.979568C3.89246 0.827526 4.95244 0.705687 6.03071 0.705687C9.1923 0.705687 12.3571 0.719952 15.5237 0.734225C23.978 0.772331 32.4455 0.810497 40.9011 0.577421L40.9023 0.577384C43.2498 0.506916 45.0061 0.846198 46.4249 1.69692C47.8424 2.54683 48.9863 3.9452 50.0336 6.11845C62.6574 33.0764 75.4388 59.956 88.5236 87.4736C92.1195 95.0358 95.7383 102.646 99.3831 110.32L99.7822 111.16L100.263 110.364C101.247 108.733 102.203 107.191 103.127 105.701C105.029 102.636 106.793 99.7932 108.369 96.8649L108.37 96.8642C114.362 85.6934 120.337 74.5149 126.311 63.3368C136.766 43.776 147.221 24.2165 157.766 4.70108L157.767 4.70055C158.225 3.85033 159.048 2.89586 159.988 2.14733C160.939 1.38903 161.926 0.908363 162.701 0.881474C171.85 0.60518 181.015 0.635753 190.702 0.668068C193.655 0.677919 196.656 0.687932 199.721 0.689464C199.171 1.83027 198.653 2.91477 198.154 3.9576C196.827 6.73452 195.641 9.21592 194.378 11.6781C192.422 15.4875 190.451 19.2911 188.48 23.0948C183.424 32.8509 178.368 42.6081 173.578 52.4704C172.945 53.7618 172.442 55.416 172.239 57.0341C172.038 58.6383 172.123 60.2859 172.75 61.5133L172.75 61.5134C179.32 74.3673 186.215 87.0796 193.408 100.34C195.239 103.715 197.089 107.126 198.958 110.583L199.413 111.426L199.844 110.57C201.083 108.106 202.276 105.768 203.427 103.51C205.794 98.8702 207.987 94.5698 210.055 90.2157L210.055 90.2148C215.817 78.0221 221.578 65.8118 227.34 53.6017C231.176 45.4708 235.013 37.34 238.849 29.2146C239.402 28.0489 239.954 26.8827 240.507 25.7166C243.837 18.683 247.168 11.649 250.663 4.70899C251.071 3.94 251.71 2.97327 252.409 2.2019C252.759 1.8155 253.112 1.49114 253.446 1.265C253.786 1.03486 254.065 0.934643 254.277 0.929629C265.926 0.690988 277.574 0.708749 289.809 0.727403C292.894 0.732107 296.017 0.736867 299.186 0.737588Z" stroke="#009D46"/>
<path d="M30.0084 153.498L30.065 153.503L30.1214 153.495C36.4128 152.604 41.9028 155.511 45.8214 159.993C49.7465 164.483 52.0401 170.495 51.9466 175.671C51.7119 188.187 42.3506 197.099 29.3679 197.397L29.3679 197.397L29.356 197.398C26.4334 197.535 23.5138 197.072 20.7769 196.037C18.04 195.002 15.5439 193.417 13.4424 191.38C11.3408 189.343 9.67828 186.897 8.55727 184.193C7.43627 181.489 6.88052 178.583 6.92427 175.656H6.92436L6.92432 175.647C6.87728 162.058 16.9485 152.372 30.0084 153.498Z" stroke="#009D46"/>
</svg>
