<svg width="50" height="50" viewBox="0 0 50 50" fill="none" xmlns="http://www.w3.org/2000/svg">
<rect width="50" height="50" rx="25" fill="#3B3B3B"/>
<path d="M29.5664 34.2242L24.9822 25.0931L20.3817 34.2227C17.2594 28.0336 14.2067 21.9793 11.1111 15.839C11.3525 15.8168 11.511 15.7886 11.6695 15.7886C12.7448 15.7886 13.8216 15.8064 14.897 15.7767C15.3413 15.7634 15.5872 15.9042 15.7857 16.3162C17.2757 19.4982 18.7895 22.6684 20.3551 25.9646C20.635 25.5007 20.8883 25.1183 21.1045 24.7167C22.6301 21.8725 24.1439 19.0225 25.6784 16.1828C25.7702 16.0124 26.0013 15.8108 26.1746 15.8049C27.3032 15.7708 28.4348 15.7871 29.6775 15.7871C29.4761 16.2036 29.3206 16.54 29.1502 16.872C28.5044 18.1303 27.8409 19.3797 27.2247 20.6483C27.1121 20.8781 27.044 21.2412 27.1477 21.4442C27.9105 22.9367 28.7207 24.4084 29.5739 25.9868C29.9249 25.2887 30.2345 24.7018 30.5188 24.1031C31.4075 22.2223 32.2962 20.3371 33.1849 18.4549C33.5449 17.696 33.9018 16.9342 34.2795 16.1843C34.358 16.0361 34.5254 15.8123 34.6543 15.8093C36.0288 15.7812 37.4033 15.7916 38.8889 15.7916C35.7607 21.9585 32.6947 28.0276 29.5664 34.2242Z" fill="white"/>
<path d="M13.8937 29.9357C15.0979 29.7653 15.9851 31.0517 15.9674 32.0359C15.9451 33.2215 15.0564 34.0648 13.8315 34.093C13.5546 34.106 13.2779 34.0621 13.0186 33.964C12.7593 33.8659 12.5228 33.7158 12.3236 33.5228C12.1245 33.3298 11.967 33.098 11.8608 32.8418C11.7545 32.5855 11.7019 32.3103 11.706 32.0329C11.7016 30.7494 12.6555 29.829 13.8937 29.9357Z" fill="white"/>
</svg>
